<svg width="23" height="23" viewBox="0 0 23 23" fill="none" xmlns="http://www.w3.org/2000/svg">
<g clip-path="url(#clip0_1_1091)">
<path d="M1.04492 14.7221H2.83792V20.2991C2.83059 20.3504 2.83426 20.3834 2.84892 20.3981C2.85626 20.3981 2.89659 20.3944 2.96992 20.3871H8.50292V22.1801H1.93592C1.64259 22.2021 1.41526 22.1214 1.25392 21.9381C1.11459 21.7767 1.04859 21.6044 1.05592 21.4211V14.7221H1.04492ZM1.25392 1.53306C1.41526 1.34973 1.63526 1.26539 1.91392 1.28006H8.50292V3.06206H2.91492C2.87092 3.06206 2.84526 3.06573 2.83792 3.07306C2.83059 3.08039 2.83059 3.12439 2.83792 3.20506V8.73806H1.04492L1.05592 2.21506C1.02659 1.92906 1.09259 1.70173 1.25392 1.53306ZM21.9449 2.21506V8.73806H20.1519V3.16106V3.07306H14.4869V1.28006H20.9329C21.2776 1.25806 21.5398 1.33139 21.7194 1.50006C21.8991 1.66872 21.9743 1.90706 21.9449 2.21506ZM21.1199 22.1801H14.4869V20.3871H20.1079C20.1226 20.3871 20.1354 20.3816 20.1464 20.3706C20.1574 20.3596 20.1593 20.2991 20.1519 20.1891V14.7221H21.9449L21.9339 21.3221C21.9486 21.5934 21.8753 21.8079 21.7139 21.9656C21.5526 22.1232 21.3546 22.1947 21.1199 22.1801Z" fill="#F5F4F3"/>
</g>
<defs>
<clipPath id="clip0_1_1091">
<rect width="22.61" height="22" fill="white" transform="matrix(1 0 0 -1 0.189941 22.7305)"/>
</clipPath>
</defs>
</svg>
