<svg width="21" height="23" viewBox="0 0 21 23" fill="none" xmlns="http://www.w3.org/2000/svg">
<g clip-path="url(#clip0_1_1085)">
<path d="M9.67 2.08322C9.67 1.92189 9.72683 1.78622 9.8405 1.67622C9.95416 1.56622 10.0953 1.51122 10.264 1.51122H19.702C19.8633 1.51122 20.0045 1.56805 20.1255 1.68172C20.2465 1.79539 20.307 1.92922 20.307 2.08322V21.3772C20.307 21.5386 20.2465 21.6742 20.1255 21.7842C20.0045 21.8942 19.8633 21.9492 19.702 21.9492H1.915C1.74633 21.9492 1.60333 21.8924 1.486 21.7787C1.36866 21.6651 1.31 21.5312 1.31 21.3772V11.6312C1.31 11.4699 1.36683 11.3342 1.4805 11.2242C1.59416 11.1142 1.739 11.0592 1.915 11.0592H9.34C9.428 11.0592 9.505 11.0299 9.571 10.9712C9.637 10.9126 9.67 10.8429 9.67 10.7622V2.08322ZM18.547 20.6182C18.6423 20.6182 18.7212 20.5889 18.7835 20.5302C18.8458 20.4716 18.877 20.4019 18.877 20.3212V12.4342C18.877 12.3829 18.844 12.3371 18.778 12.2967C18.712 12.2564 18.635 12.2362 18.547 12.2362H15.104C14.9353 12.2362 14.7923 12.1794 14.675 12.0657C14.5577 11.9521 14.499 11.8182 14.499 11.6642V11.4662C14.499 11.3049 14.5577 11.1692 14.675 11.0592C14.7923 10.9492 14.9353 10.8942 15.104 10.8942H18.569C18.6643 10.8942 18.7432 10.8649 18.8055 10.8062C18.8678 10.7476 18.899 10.6779 18.899 10.5972V3.16122C18.899 3.08055 18.866 3.01089 18.8 2.95222C18.734 2.89355 18.657 2.86422 18.569 2.86422H11.43C11.3347 2.86422 11.2558 2.89355 11.1935 2.95222C11.1312 3.01089 11.1 3.08055 11.1 3.16122V11.8402C11.1 11.9942 11.0413 12.1281 10.924 12.2417C10.8067 12.3554 10.6673 12.4122 10.506 12.4122H3.059C2.971 12.4122 2.89583 12.4416 2.8335 12.5002C2.77116 12.5589 2.74 12.6286 2.74 12.7092V20.2992C2.74 20.3799 2.77116 20.4496 2.8335 20.5082C2.89583 20.5669 2.971 20.5962 3.059 20.5962H9.34C9.428 20.5962 9.505 20.5669 9.571 20.5082C9.637 20.4496 9.67 20.3799 9.67 20.2992V17.0652C9.67 16.9112 9.72866 16.7774 9.846 16.6637C9.96333 16.5501 10.1027 16.4932 10.264 16.4932H10.495C10.6563 16.4932 10.7957 16.5501 10.913 16.6637C11.0303 16.7774 11.089 16.9112 11.089 17.0652V20.3212C11.089 20.5192 11.177 20.6182 11.353 20.6182H18.547Z" fill="#F5F4F3"/>
</g>
<defs>
<clipPath id="clip0_1_1085">
<rect width="20.55" height="22" fill="white" transform="matrix(1 0 0 -1 0.219971 22.7305)"/>
</clipPath>
</defs>
</svg>
