<svg width="23" height="23" viewBox="0 0 23 23" fill="none" xmlns="http://www.w3.org/2000/svg">
<g clip-path="url(#clip0_1_1087)">
<path d="M16.247 6.39547L7.37 10.7515C7.46533 11.0668 7.513 11.3931 7.513 11.7305C7.513 12.0971 7.45799 12.4528 7.348 12.7975L16.093 17.3625C16.4083 16.8785 16.819 16.4971 17.325 16.2185C17.8457 15.9251 18.4067 15.7785 19.008 15.7785C19.6387 15.7785 20.2253 15.9361 20.768 16.2515C21.296 16.5595 21.714 16.9775 22.022 17.5055C22.3373 18.0408 22.495 18.6238 22.495 19.2545C22.495 19.8851 22.3373 20.4718 22.022 21.0145C21.714 21.5351 21.296 21.9495 20.768 22.2575C20.2253 22.5728 19.6387 22.7305 19.008 22.7305C18.3773 22.7305 17.7943 22.5728 17.259 22.2575C16.731 21.9495 16.313 21.5351 16.005 21.0145C15.6897 20.4718 15.532 19.8851 15.532 19.2545C15.532 19.1738 15.5357 19.0895 15.543 19.0015L6.435 14.2495C6.11966 14.5575 5.75116 14.7976 5.32949 14.97C4.90783 15.1423 4.466 15.2285 4.004 15.2285C3.366 15.2285 2.77566 15.0671 2.233 14.7445C1.705 14.4365 1.287 14.0185 0.978995 13.4905C0.656328 12.9478 0.494995 12.3593 0.494995 11.725C0.494995 11.0906 0.656328 10.5021 0.978995 9.95947C1.287 9.43147 1.705 9.01347 2.233 8.70547C2.77566 8.3828 3.366 8.22147 4.004 8.22147C4.488 8.22147 4.94633 8.31497 5.37899 8.50197C5.81166 8.68897 6.18933 8.94747 6.512 9.27747L15.532 4.85547C15.488 4.6428 15.466 4.42647 15.466 4.20647C15.466 3.5758 15.6237 2.98914 15.939 2.44647C16.247 1.9258 16.665 1.51147 17.193 1.20347C17.7357 0.888136 18.3223 0.730469 18.953 0.730469C19.5837 0.730469 20.1667 0.888136 20.702 1.20347C21.23 1.51147 21.648 1.9258 21.956 2.44647C22.2713 2.98914 22.429 3.5758 22.429 4.20647C22.429 4.83714 22.2713 5.42014 21.956 5.95547C21.648 6.48347 21.23 6.90147 20.702 7.20947C20.1667 7.5248 19.5837 7.68247 18.953 7.68247C18.4177 7.68247 17.9117 7.56514 17.435 7.33047C16.973 7.11047 16.577 6.7988 16.247 6.39547Z" fill="#F5F4F3"/>
</g>
<defs>
<clipPath id="clip0_1_1087">
<rect width="22.61" height="22" fill="white" transform="matrix(1 0 0 -1 0.190002 22.7305)"/>
</clipPath>
</defs>
</svg>
