<svg width="23" height="23" viewBox="0 0 23 23" fill="none" xmlns="http://www.w3.org/2000/svg">
<g clip-path="url(#clip0_1_1083)">
<path d="M8.99802 7.44081L7.66702 12.9628L5.04902 21.3118C4.95369 21.6271 4.98669 21.9058 5.14802 22.1478C5.29469 22.3678 5.51102 22.5163 5.79702 22.5933C6.08302 22.6703 6.35436 22.6538 6.61102 22.5438C6.88969 22.4191 7.07669 22.2028 7.17202 21.8948L9.55902 14.2608L12.914 17.4508L13.783 21.8838C13.8197 22.0671 13.9022 22.2285 14.0305 22.3678C14.1589 22.5071 14.3147 22.608 14.498 22.6703C14.6814 22.7326 14.872 22.7473 15.07 22.7143C15.268 22.6813 15.4422 22.6043 15.5925 22.4833C15.7429 22.3623 15.851 22.2156 15.917 22.0433C15.983 21.871 15.9977 21.6931 15.961 21.5098L15.026 16.7798C14.982 16.5745 14.883 16.3985 14.729 16.2518L11.462 13.1278L12.452 8.92581L13.156 10.3778C13.2 10.4731 13.2642 10.5538 13.3485 10.6198C13.4329 10.6858 13.53 10.7335 13.64 10.7628L16.808 11.5548C17.006 11.5988 17.193 11.5731 17.369 11.4778C17.545 11.3825 17.6587 11.2431 17.71 11.0598C17.7614 10.8765 17.7357 10.7041 17.633 10.5428C17.5304 10.3815 17.38 10.2751 17.182 10.2238L14.355 9.50881L12.793 6.28581C12.749 6.19048 12.6849 6.10981 12.6005 6.04381C12.5162 5.97781 12.4227 5.93381 12.32 5.91181V5.90081H12.265C12.2357 5.89348 12.2027 5.88981 12.166 5.88981L9.97703 5.63681C9.88169 5.60748 9.78636 5.59648 9.69103 5.60381L9.65803 5.59281V5.60381C9.56269 5.61114 9.47469 5.63681 9.39402 5.68081L6.25902 7.27581C6.07569 7.37114 5.95836 7.51414 5.90702 7.70481L5.02702 10.7958C4.97569 10.9791 5.00136 11.1533 5.10402 11.3183C5.20669 11.4833 5.35702 11.5896 5.55502 11.6373C5.75302 11.685 5.94002 11.6611 6.11602 11.5658C6.29202 11.4705 6.40569 11.3311 6.45702 11.1478L7.26002 8.33181L8.99802 7.44081ZM11.66 4.84481C12.0634 4.84481 12.4337 4.75314 12.771 4.56981C13.1084 4.38648 13.376 4.13714 13.574 3.82181C13.772 3.50648 13.871 3.16181 13.871 2.78781C13.871 2.41381 13.772 2.06914 13.574 1.75381C13.376 1.43848 13.1084 1.18914 12.771 1.00581C12.4337 0.822477 12.0634 0.73081 11.66 0.73081C11.2567 0.73081 10.8864 0.822477 10.549 1.00581C10.2117 1.18914 9.94403 1.43848 9.74603 1.75381C9.54803 2.06914 9.44903 2.41381 9.44903 2.78781C9.44903 3.16181 9.54803 3.50648 9.74603 3.82181C9.94403 4.13714 10.2117 4.38648 10.549 4.56981C10.8864 4.75314 11.2567 4.84481 11.66 4.84481Z" fill="#F5F4F3"/>
</g>
<defs>
<clipPath id="clip0_1_1083">
<rect width="22.61" height="22" fill="white" transform="matrix(1 0 0 -1 0.190002 22.7305)"/>
</clipPath>
</defs>
</svg>
