<svg width="23" height="23" viewBox="0 0 23 23" fill="none" xmlns="http://www.w3.org/2000/svg">
<g clip-path="url(#clip0_1_1089)">
<path d="M10.626 18.2423C10.5233 18.4477 10.3748 18.609 10.1805 18.7263C9.98616 18.8437 9.779 18.9023 9.559 18.9023H2.695C1.969 18.9023 1.42083 18.7135 1.0505 18.3358C0.680162 17.9582 0.494995 17.3843 0.494995 16.6143V6.84634C0.494995 6.29634 0.566495 5.85634 0.709495 5.52634C0.852495 5.19634 1.0835 4.95251 1.4025 4.79484C1.7215 4.63718 2.15233 4.55834 2.695 4.55834H20.295C21.043 4.55834 21.5967 4.75084 21.956 5.13584C22.3153 5.52084 22.495 6.09101 22.495 6.84634V16.6143C22.495 17.3257 22.3043 17.883 21.923 18.2863C21.5417 18.6897 20.999 18.895 20.295 18.9023H13.365C13.123 18.9023 12.9012 18.8363 12.6995 18.7043C12.4978 18.5723 12.3493 18.3963 12.254 18.1763L11.473 16.4383L10.626 18.2423ZM11.671 16.0093C11.649 16.046 11.6215 16.0735 11.5885 16.0918C11.5555 16.1102 11.517 16.1193 11.473 16.1193C11.429 16.1193 11.3887 16.1083 11.352 16.0863C11.3153 16.0643 11.2897 16.0387 11.275 16.0093L11.473 16.4383L11.671 16.0093ZM9.56999 17.4943C9.56999 17.4943 9.56633 17.4943 9.559 17.4943H9.56999ZM20.295 17.4943C20.603 17.4943 20.812 17.432 20.922 17.3073C21.032 17.1827 21.087 16.9517 21.087 16.6143V6.84634C21.087 6.58234 21.0687 6.39168 21.032 6.27434C20.9953 6.15701 20.9238 6.07634 20.8175 6.03234C20.7112 5.98834 20.537 5.96634 20.295 5.96634H2.695C2.40166 5.96634 2.21466 5.97734 2.134 5.99934C2.024 6.02868 1.95433 6.10568 1.925 6.23034C1.91033 6.31834 1.903 6.52368 1.903 6.84634V16.6143C1.903 16.8783 1.92133 17.0708 1.958 17.1918C1.99466 17.3128 2.068 17.3935 2.178 17.4338C2.288 17.4742 2.46033 17.4943 2.695 17.4943H9.427L10.395 15.4153C10.4903 15.2027 10.6352 15.034 10.8295 14.9093C11.0238 14.7847 11.2365 14.7223 11.4675 14.7223C11.6985 14.7223 11.913 14.7847 12.111 14.9093C12.309 15.034 12.4557 15.2063 12.551 15.4263L13.486 17.4943H20.295ZM6.85299 12.8523C7.04366 12.8523 7.21966 12.801 7.381 12.6983C7.54233 12.5957 7.67066 12.4563 7.766 12.2803C7.86133 12.1043 7.909 11.91 7.909 11.6973C7.909 11.4553 7.8485 11.2372 7.7275 11.0428C7.60649 10.8485 7.447 10.7092 7.249 10.6248C7.05099 10.5405 6.85116 10.5203 6.6495 10.5643C6.44783 10.6083 6.27 10.711 6.11599 10.8723C5.962 11.0337 5.863 11.2317 5.81899 11.4663C5.77499 11.701 5.79516 11.9283 5.8795 12.1483C5.96383 12.3683 6.09583 12.5407 6.2755 12.6653C6.45516 12.79 6.64766 12.8523 6.85299 12.8523ZM6.864 14.2603C6.36533 14.2603 5.907 14.1155 5.489 13.8258C5.071 13.5362 4.7685 13.153 4.5815 12.6763C4.3945 12.1997 4.34683 11.7102 4.4385 11.2078C4.53016 10.7055 4.75016 10.2692 5.0985 9.89884C5.44683 9.52851 5.86849 9.29018 6.36349 9.18384C6.8585 9.07751 7.337 9.12518 7.799 9.32684C8.26099 9.52851 8.62949 9.84568 8.9045 10.2783C9.17949 10.711 9.31699 11.184 9.31699 11.6973C9.31699 12.1593 9.207 12.5865 8.98699 12.9788C8.767 13.3712 8.47 13.6828 8.09599 13.9138C7.72199 14.1448 7.31133 14.2603 6.864 14.2603ZM16.126 12.8523C16.3167 12.8523 16.4927 12.801 16.654 12.6983C16.8153 12.5957 16.9437 12.4563 17.039 12.2803C17.1343 12.1043 17.182 11.91 17.182 11.6973C17.182 11.4553 17.1197 11.2372 16.995 11.0428C16.8703 10.8485 16.7108 10.7092 16.5165 10.6248C16.3222 10.5405 16.1223 10.5203 15.917 10.5643C15.7117 10.6083 15.532 10.711 15.378 10.8723C15.224 11.0337 15.1268 11.2317 15.0865 11.4663C15.0462 11.701 15.0682 11.9283 15.1525 12.1483C15.2368 12.3683 15.367 12.5407 15.543 12.6653C15.719 12.79 15.9133 12.8523 16.126 12.8523ZM16.137 14.2603C15.631 14.2603 15.1708 14.1155 14.7565 13.8258C14.3422 13.5362 14.0397 13.153 13.849 12.6763C13.6583 12.1997 13.6107 11.7102 13.706 11.2078C13.8013 10.7055 14.0232 10.2692 14.3715 9.89884C14.7198 9.52851 15.1415 9.29018 15.6365 9.18384C16.1315 9.07751 16.61 9.12518 17.072 9.32684C17.534 9.52851 17.9007 9.84568 18.172 10.2783C18.4433 10.711 18.579 11.184 18.579 11.6973C18.579 12.1593 18.4708 12.5865 18.2545 12.9788C18.0382 13.3712 17.7412 13.6828 17.3635 13.9138C16.9858 14.1448 16.577 14.2603 16.137 14.2603Z" fill="#F5F4F3"/>
</g>
<defs>
<clipPath id="clip0_1_1089">
<rect width="22.61" height="22" fill="white" transform="matrix(1 0 0 -1 0.190002 22.7305)"/>
</clipPath>
</defs>
</svg>
