<svg width="49" height="49" viewBox="0 0 49 49" fill="none" xmlns="http://www.w3.org/2000/svg">
<rect x="0.5" y="0.730469" width="48" height="48" rx="24" fill="black" fill-opacity="0.5"/>
<g clip-path="url(#clip0_1_1110)">
<path d="M32.9497 30.8198C33.1714 31.0858 33.2933 31.3312 33.3155 31.556C33.3377 31.7808 33.2601 32.0009 33.0827 32.2163L32.0282 33.2708C31.7686 33.4861 31.5089 33.5938 31.2492 33.5938C30.9896 33.5938 30.7394 33.4861 30.4987 33.2708L26.2427 28.9862C25.1724 29.6259 24.0039 29.9458 22.7372 29.9458C20.7866 29.9458 19.1177 29.2301 17.7307 27.7988C16.2994 26.4181 15.5837 24.7587 15.5837 22.8208C15.5837 20.9398 16.2551 19.3058 17.5977 17.9188C18.9721 16.5508 20.6092 15.8668 22.5092 15.8668C23.4782 15.8668 24.3807 16.0441 25.2167 16.3988C26.0527 16.7534 26.8317 17.2886 27.5537 18.0043C28.9914 19.4356 29.7102 21.0981 29.7102 22.9918C29.7102 24.3154 29.3587 25.5251 28.6557 26.6208L32.9497 30.8198ZM17.6927 22.8208C17.6927 23.4731 17.821 24.0922 18.0775 24.678C18.334 25.2638 18.7156 25.8101 19.2222 26.3168C19.7289 26.8234 20.2767 27.205 20.8657 27.4615C21.4547 27.718 22.0786 27.8463 22.7372 27.8463C24.0672 27.8463 25.1914 27.3649 26.1097 26.4023C27.0787 25.4839 27.5632 24.3471 27.5632 22.9918C27.5632 21.7061 27.0502 20.5534 26.0242 19.5338C25.5176 19.0334 24.9697 18.6534 24.3807 18.3938C23.7917 18.1341 23.1711 18.0043 22.5187 18.0043C21.1887 18.0043 20.0614 18.4856 19.1367 19.4483C18.1741 20.3666 17.6927 21.4908 17.6927 22.8208Z" fill="white"/>
</g>
<defs>
<clipPath id="clip0_1_1110">
<rect width="18.02" height="19" fill="white" transform="matrix(1 0 0 -1 15.48 34.2305)"/>
</clipPath>
</defs>
</svg>
