<svg width="49" height="49" viewBox="0 0 49 49" fill="none" xmlns="http://www.w3.org/2000/svg">
<g clip-path="url(#clip0_1_1290)">
<rect width="48" height="48" transform="translate(0.5 0.69043)" fill="white"/>
<rect x="0.5" y="0.69043" width="48" height="48" rx="24" fill="#181513"/>
<path d="M35 36.6904C35 36.6904 31.4647 35.2992 28.6046 34.1848H16.5781C15.1544 34.1848 14 32.9608 14 31.4512V15.424C14 13.9144 15.1544 12.6904 16.5781 12.6904H32.4211C33.8448 12.6904 34.9993 13.9144 34.9993 15.424V29.2272L35 36.6904ZM31.8961 27.704C31.6482 27.3983 31.2156 27.363 30.9269 27.6248C30.9044 27.6448 28.6653 29.636 24.4992 29.636C20.3849 29.636 18.1113 27.6592 18.0708 27.6232C17.7822 27.3626 17.3507 27.3983 17.1032 27.7032C16.9843 27.8498 16.9253 28.0409 16.9393 28.2341C16.9532 28.4273 17.039 28.6066 17.1775 28.732C17.284 28.828 19.8306 31.0944 24.4992 31.0944C29.1687 31.0944 31.7153 28.828 31.8218 28.732C31.9601 28.6066 32.0456 28.4275 32.0596 28.2345C32.0735 28.0415 32.0147 27.8506 31.8961 27.704Z" fill="white"/>
</g>
<defs>
<clipPath id="clip0_1_1290">
<rect x="0.5" y="0.69043" width="48" height="48" rx="24" fill="white"/>
</clipPath>
</defs>
</svg>
