<svg width="41" height="41" viewBox="0 0 41 41" fill="none" xmlns="http://www.w3.org/2000/svg">
<g clip-path="url(#clip0_1_1004)">
<rect x="-0.5" y="-0.269531" width="42" height="42" rx="21" fill="url(#paint0_linear_1_1004)"/>
<rect x="1.5" y="1.73047" width="38" height="38" rx="19" fill="#090909"/>
<g clip-path="url(#clip1_1_1004)">
<g clip-path="url(#clip2_1_1004)">
<path d="M27.2499 14.7284C27.2498 14.7044 27.2486 14.6805 27.2463 14.6565C27.2452 14.6452 27.2431 14.6342 27.2415 14.6231C27.2396 14.61 27.2381 14.5969 27.2355 14.5839C27.233 14.5713 27.2295 14.559 27.2263 14.5465C27.2235 14.5353 27.221 14.524 27.2176 14.5128C27.2139 14.5006 27.2094 14.4888 27.2051 14.4769C27.2011 14.4657 27.1975 14.4545 27.1929 14.4435C27.1883 14.4325 27.1829 14.4219 27.1779 14.4112C27.1725 14.3997 27.1674 14.3881 27.1613 14.3769C27.1559 14.3668 27.1498 14.3572 27.1439 14.3474C27.1373 14.3362 27.1309 14.3248 27.1236 14.3139C27.1165 14.3033 27.1086 14.2933 27.1009 14.2831C27.0939 14.2737 27.0874 14.2641 27.0799 14.2549C27.0659 14.2379 27.0511 14.2217 27.0357 14.206C27.0338 14.2041 27.0322 14.202 27.0303 14.2001C27.0282 14.198 27.0258 14.1962 27.0237 14.1941C27.0082 14.179 26.9922 14.1643 26.9755 14.1505C26.9665 14.1431 26.957 14.1367 26.9477 14.1298C26.9374 14.122 26.9272 14.114 26.9165 14.1068C26.9058 14.0996 26.8947 14.0935 26.8838 14.0869C26.8737 14.0809 26.8638 14.0746 26.8535 14.069C26.8426 14.0632 26.8314 14.0583 26.8203 14.053C26.8092 14.0478 26.7982 14.0422 26.7868 14.0375C26.7763 14.0332 26.7657 14.0297 26.755 14.0259C26.7425 14.0214 26.7302 14.0166 26.7174 14.0127C26.7072 14.0096 26.6968 14.0074 26.6864 14.0048C26.6731 14.0013 26.6598 13.9976 26.6461 13.9949C26.6348 13.9927 26.6233 13.9914 26.6119 13.9897C26.5991 13.9878 26.5865 13.9854 26.5735 13.9841C26.5546 13.9823 26.5356 13.9817 26.5166 13.9813C26.511 13.9812 26.5056 13.9805 26.5 13.9805H16.75C16.5511 13.9805 16.3603 14.0595 16.2197 14.2001C16.079 14.3408 16 14.5316 16 14.7305C16 14.9294 16.079 15.1201 16.2197 15.2608C16.3603 15.4014 16.5511 15.4805 16.75 15.4805H24.6893L13.9697 26.2001C13.829 26.3408 13.75 26.5316 13.75 26.7305C13.75 26.9294 13.829 27.1202 13.9697 27.2608C14.1103 27.4015 14.3011 27.4805 14.5 27.4805C14.6989 27.4805 14.8897 27.4015 15.0303 27.2609L25.75 16.5412V24.4805C25.75 24.6794 25.829 24.8702 25.9697 25.0108C26.1103 25.1515 26.3011 25.2305 26.5 25.2305C26.6989 25.2305 26.8897 25.1515 27.0303 25.0108C27.171 24.8702 27.25 24.6794 27.25 24.4805V14.7305L27.2499 14.7284Z" fill="white"/>
</g>
</g>
</g>
<defs>
<linearGradient id="paint0_linear_1_1004" x1="-3.86296" y1="15.552" x2="44.863" y2="25.909" gradientUnits="userSpaceOnUse">
<stop stop-color="#39B6D8"/>
<stop offset="0.5" stop-color="#F7D344"/>
<stop offset="1" stop-color="#E38330"/>
</linearGradient>
<clipPath id="clip0_1_1004">
<rect x="0.5" y="0.730469" width="40" height="40" rx="20" fill="white"/>
</clipPath>
<clipPath id="clip1_1_1004">
<rect width="52" height="52" fill="white" transform="translate(-19.5 8.73047)"/>
</clipPath>
<clipPath id="clip2_1_1004">
<rect width="52" height="52" fill="white" transform="translate(-19.5 8.73047)"/>
</clipPath>
</defs>
</svg>
