<svg width="43" height="43" viewBox="0 0 43 43" fill="none" xmlns="http://www.w3.org/2000/svg">
<g clip-path="url(#clip0_1_586)">
<g clip-path="url(#clip1_1_586)">
<g clip-path="url(#clip2_1_586)">
<path d="M21.5 42.4017C32.8283 42.4017 42.0116 33.2183 42.0116 21.89C42.0116 10.5618 32.8283 1.37842 21.5 1.37842C10.1717 1.37842 0.988373 10.5618 0.988373 21.89C0.988373 33.2183 10.1717 42.4017 21.5 42.4017Z" fill="white"/>
<path d="M21.5 42.117C32.6709 42.117 41.7267 33.0612 41.7267 21.8903C41.7267 10.7194 32.6709 1.66357 21.5 1.66357C10.3291 1.66357 1.27328 10.7194 1.27328 21.8903C1.27328 33.0612 10.3291 42.117 21.5 42.117Z" stroke="#C7C7C7" stroke-opacity="0.5" stroke-width="0.569767"/>
<path d="M32.8327 17.8253L21.8443 11.9649C21.7383 11.9085 21.62 11.8789 21.5 11.8789C21.38 11.8789 21.2617 11.9085 21.1557 11.9649L10.1673 17.8253C10.0501 17.8878 9.9521 17.981 9.88375 18.0948C9.81541 18.2087 9.7793 18.339 9.7793 18.4718C9.7793 18.6047 9.81541 18.735 9.88375 18.8489C9.9521 18.9627 10.0501 19.0558 10.1673 19.1183L12.7093 20.4745V24.9083C12.7085 25.2681 12.841 25.6155 13.081 25.8835C14.2807 27.2196 16.9682 29.4602 21.5 29.4602C23.0026 29.4726 24.494 29.2005 25.8953 28.6581V31.6579C25.8953 31.8522 25.9725 32.0385 26.1099 32.1759C26.2473 32.3133 26.4336 32.3904 26.6279 32.3904C26.8222 32.3904 27.0085 32.3133 27.1459 32.1759C27.2833 32.0385 27.3605 31.8522 27.3605 31.6579V27.9503C28.3157 27.3988 29.179 26.7015 29.9189 25.8835C30.159 25.6155 30.2915 25.2681 30.2907 24.9083V20.4745L32.8327 19.1183C32.9499 19.0558 33.0479 18.9627 33.1162 18.8489C33.1846 18.735 33.2207 18.6047 33.2207 18.4718C33.2207 18.339 33.1846 18.2087 33.1162 18.0948C33.0479 17.981 32.9499 17.8878 32.8327 17.8253ZM21.5 27.9951C17.5377 27.9951 15.2073 26.0593 14.1744 24.9083V21.2556L21.1557 24.9788C21.2617 25.0353 21.38 25.0648 21.5 25.0648C21.62 25.0648 21.7383 25.0353 21.8443 24.9788L25.8953 22.8186V27.062C24.7416 27.6005 23.2874 27.9951 21.5 27.9951ZM28.8256 24.9047C28.3864 25.3919 27.8951 25.8295 27.3605 26.2095V22.0367L28.8256 21.2556V24.9047ZM26.9942 20.5724L26.9741 20.5606L21.8462 17.8253C21.675 17.738 21.4765 17.7213 21.2932 17.7789C21.11 17.8366 20.9566 17.9638 20.8664 18.1334C20.776 18.303 20.7559 18.5012 20.8104 18.6854C20.8649 18.8697 20.9895 19.0252 21.1575 19.1183L25.4375 21.4021L21.5 23.5018L12.0684 18.4718L21.5 13.4419L30.9317 18.4718L26.9942 20.5724Z" fill="black"/>
</g>
</g>
</g>
<defs>
<clipPath id="clip0_1_586">
<rect width="42" height="42" fill="white" transform="translate(0.5 0.890137)"/>
</clipPath>
<clipPath id="clip1_1_586">
<rect width="42" height="42" fill="white" transform="translate(0.5 0.890137)"/>
</clipPath>
<clipPath id="clip2_1_586">
<rect width="41.0233" height="42" fill="white" transform="translate(0.988373 0.890137)"/>
</clipPath>
</defs>
</svg>
