<svg width="43" height="43" viewBox="0 0 43 43" fill="none" xmlns="http://www.w3.org/2000/svg">
<g clip-path="url(#clip0_1_642)">
<g clip-path="url(#clip1_1_642)">
<g clip-path="url(#clip2_1_642)">
<path d="M21.5 42.3411C32.8282 42.3411 42.0116 33.1578 42.0116 21.8295C42.0116 10.5012 32.8282 1.31787 21.5 1.31787C10.1717 1.31787 0.988342 10.5012 0.988342 21.8295C0.988342 33.1578 10.1717 42.3411 21.5 42.3411Z" fill="white"/>
<path d="M21.5 42.0565C32.6709 42.0565 41.7267 33.0006 41.7267 21.8297C41.7267 10.6588 32.6709 1.60303 21.5 1.60303C10.3291 1.60303 1.27325 10.6588 1.27325 21.8297C1.27325 33.0006 10.3291 42.0565 21.5 42.0565Z" stroke="#C7C7C7" stroke-opacity="0.5" stroke-width="0.569767"/>
<path d="M32.8327 17.7648L21.8443 11.9043C21.7383 11.848 21.62 11.8184 21.5 11.8184C21.38 11.8184 21.2617 11.848 21.1557 11.9043L10.1673 17.7648C10.0501 17.8273 9.9521 17.9205 9.88375 18.0343C9.81541 18.1481 9.7793 18.2784 9.7793 18.4113C9.7793 18.5441 9.81541 18.6744 9.88375 18.7883C9.9521 18.9022 10.0501 18.9953 10.1673 19.0578L12.7093 20.4139V24.8477C12.7085 25.2076 12.841 25.555 13.081 25.8229C14.2807 27.159 16.9682 29.3997 21.5 29.3997C23.0026 29.4121 24.494 29.1399 25.8953 28.5976V31.5973C25.8953 31.7916 25.9725 31.978 26.1099 32.1154C26.2473 32.2527 26.4336 32.3299 26.6279 32.3299C26.8222 32.3299 27.0085 32.2527 27.1459 32.1154C27.2833 31.978 27.3605 31.7916 27.3605 31.5973V27.8897C28.3157 27.3382 29.179 26.6409 29.9189 25.8229C30.159 25.555 30.2915 25.2076 30.2907 24.8477V20.4139L32.8327 19.0578C32.9499 18.9953 33.0479 18.9022 33.1162 18.7883C33.1846 18.6744 33.2207 18.5441 33.2207 18.4113C33.2207 18.2784 33.1846 18.1481 33.1162 18.0343C33.0479 17.9205 32.9499 17.8273 32.8327 17.7648ZM21.5 27.9345C17.5377 27.9345 15.2073 25.9987 14.1744 24.8477V21.195L21.1557 24.9183C21.2617 24.9747 21.38 25.0042 21.5 25.0042C21.62 25.0042 21.7383 24.9747 21.8443 24.9183L25.8953 22.7581V27.0015C24.7416 27.5399 23.2874 27.9345 21.5 27.9345ZM28.8256 24.8441C28.3864 25.3313 27.8951 25.7689 27.3605 26.149V21.9761L28.8256 21.195V24.8441ZM26.9942 20.5119L26.9741 20.5001L21.8462 17.7648C21.675 17.6775 21.4765 17.6608 21.2932 17.7184C21.11 17.776 20.9566 17.9033 20.8664 18.0728C20.776 18.2424 20.7559 18.4407 20.8104 18.6249C20.8649 18.8091 20.9895 18.9646 21.1575 19.0578L25.4375 21.3415L21.5 23.4412L12.0684 18.4113L21.5 13.3813L30.9317 18.4113L26.9942 20.5119Z" fill="black"/>
</g>
</g>
</g>
<defs>
<clipPath id="clip0_1_642">
<rect width="42" height="42" fill="white" transform="translate(0.5 0.82959)"/>
</clipPath>
<clipPath id="clip1_1_642">
<rect width="42" height="42" fill="white" transform="translate(0.5 0.82959)"/>
</clipPath>
<clipPath id="clip2_1_642">
<rect width="41.0233" height="42" fill="white" transform="translate(0.988342 0.82959)"/>
</clipPath>
</defs>
</svg>
