<svg width="18" height="17" viewBox="0 0 18 17" fill="none" xmlns="http://www.w3.org/2000/svg">
<path d="M9.60499 13.8302C9.47166 13.9529 9.31699 14.0369 9.14099 14.0822C8.96499 14.1275 8.78899 14.1275 8.61299 14.0822C8.43699 14.0369 8.28233 13.9529 8.14899 13.8302C7.39699 13.1369 6.79433 12.5449 6.34099 12.0542C5.58899 11.2489 5.00499 10.4995 4.58899 9.80621C4.06633 8.93154 3.80499 8.13421 3.80499 7.41421C3.80499 6.72621 3.93833 6.07021 4.20499 5.44621C4.46099 4.83821 4.82233 4.29954 5.28899 3.83021C5.75566 3.36088 6.29299 2.99821 6.90099 2.74221C7.53033 2.47554 8.18899 2.34221 8.87699 2.34221C9.56499 2.34221 10.2237 2.47554 10.853 2.74221C11.461 2.99821 11.9983 3.36088 12.465 3.83021C12.9317 4.29954 13.293 4.83821 13.549 5.44621C13.8157 6.07021 13.949 6.72621 13.949 7.41421C13.949 8.12888 13.6877 8.92621 13.165 9.80621C12.749 10.4995 12.165 11.2515 11.413 12.0622C10.9543 12.5529 10.3517 13.1422 9.60499 13.8302ZM8.87699 9.19021C9.21833 9.19021 9.53166 9.10621 9.81699 8.93821C10.1023 8.77021 10.3303 8.54221 10.501 8.25421C10.6717 7.96621 10.757 7.65288 10.757 7.31421C10.757 6.97554 10.6717 6.66221 10.501 6.37421C10.3303 6.08621 10.1023 5.85821 9.81699 5.69021C9.53166 5.52221 9.21833 5.43821 8.87699 5.43821C8.53566 5.43821 8.22099 5.52221 7.93299 5.69021C7.64499 5.85821 7.41699 6.08621 7.24899 6.37421C7.08099 6.66221 6.99699 6.97554 6.99699 7.31421C6.99699 7.65288 7.08099 7.96621 7.24899 8.25421C7.41699 8.54221 7.64499 8.77021 7.93299 8.93821C8.22099 9.10621 8.53566 9.19021 8.87699 9.19021Z" fill="white"/>
</svg>
