<svg width="210" height="42" viewBox="0 0 210 42" fill="none" xmlns="http://www.w3.org/2000/svg">
<g clip-path="url(#clip0_1_92)">
<g clip-path="url(#clip1_1_92)">
<path d="M3.25 16.3733C6.11266 14.7237 8.75043 12.9917 11.8506 11.4413C17.5491 8.59165 23.7282 5.77317 30.2419 3.37196C33.8297 2.04933 28.5451 4.07441 32.5432 3.09181C33.6883 2.81041 34.8733 2.56006 36.1674 2.56006C37.8777 2.56006 35.3575 4.20147 35.0585 4.47437C28.2928 10.6503 27.2095 12.8789 21.1003 19.2182C18.2067 22.2209 29.6748 20.3322 31.9187 19.7898C39.168 18.0378 45.7031 15.4641 51.7705 12.8771C54.3293 11.786 57.8436 9.60894 61.1284 9.02182C62.4791 8.78039 61.8931 10.9867 61.8856 11.1755C61.7255 15.2165 59.8188 19.2657 57.991 23.1931C57.933 23.3176 56.6219 25.9133 57.4231 25.5195C64.5134 22.0344 70.5555 18.0337 77.6264 14.5255C79.5184 13.5868 84.7764 10.348 88.1202 10.4974C90.4245 10.6004 90.6748 14.1801 91.1223 14.9775C91.8747 16.3181 92.4696 18.1987 95.4767 18.7529C99.4167 19.4791 103.412 18.0509 106.187 16.8386C108.531 15.8144 115.131 11.5684 118.385 13.8076C123.298 17.1889 128.496 17.2358 134.45 14.1001C138.39 12.0252 142.109 9.64282 147.946 8.8623C154.359 8.00472 159.988 9.93748 164.985 11.6806C170.707 13.6766 178.868 18.1752 186.811 17.8357C189.255 17.7312 194.245 16.3849 196.25 17.3704" stroke="url(#paint0_linear_1_92)" stroke-width="3" stroke-linecap="square"/>
</g>
</g>
<defs>
<linearGradient id="paint0_linear_1_92" x1="15.4733" y1="9.58786" x2="189.815" y2="14.1225" gradientUnits="userSpaceOnUse">
<stop stop-color="#39B6D8"/>
<stop offset="0.5" stop-color="#F7D344"/>
<stop offset="1" stop-color="#E38330"/>
</linearGradient>
<clipPath id="clip0_1_92">
<rect width="208.92" height="41" fill="white" transform="translate(0.25 0.560059)"/>
</clipPath>
<clipPath id="clip1_1_92">
<rect width="198" height="25" fill="white" transform="translate(0.25 0.560059)"/>
</clipPath>
</defs>
</svg>
