<svg width="204" height="32" viewBox="0 0 204 32" fill="none" xmlns="http://www.w3.org/2000/svg">
<g clip-path="url(#clip0_1_498)">
<g clip-path="url(#clip1_1_498)">
<path d="M7.5 16.5804C11.3719 15.2893 14.9396 13.9338 19.1328 12.7205C26.8402 10.4904 35.1979 8.28463 44.0079 6.40542C48.8606 5.37032 41.713 6.95516 47.1206 6.18617C48.6693 5.96594 50.2721 5.77002 52.0225 5.77002C54.3357 5.77002 50.927 7.0546 50.5227 7.26817C41.3717 12.1015 39.9065 13.8456 31.6435 18.8068C27.7297 21.1567 43.2409 19.6786 46.2759 19.2542C56.0809 17.883 64.92 15.8688 73.1264 13.8441C76.5874 12.9903 81.3406 11.2865 85.7835 10.827C87.6105 10.6381 86.8179 12.3648 86.8078 12.5125C86.5911 15.675 84.0123 18.8439 81.5401 21.9175C81.4617 22.015 79.6883 24.0464 80.7719 23.7382C90.3619 21.0108 98.5342 17.8798 108.098 15.1342C110.657 14.3996 117.769 11.8649 122.291 11.9819C125.408 12.0624 125.747 14.8639 126.352 15.488C127.37 16.5372 128.174 18.0089 132.241 18.4426C137.57 19.011 142.975 17.8933 146.728 16.9445C149.898 16.1429 158.824 12.82 163.226 14.5724C169.872 17.2186 176.901 17.2553 184.955 14.8013C190.284 13.1774 195.314 11.313 203.209 10.7022C211.883 10.0311 219.496 11.5436 226.255 12.9078C233.994 14.4699 245.032 17.9905 255.776 17.7248C259.081 17.643 265.831 16.5894 268.543 17.3606" stroke="#404040" stroke-width="10" stroke-linecap="square"/>
</g>
</g>
<defs>
<clipPath id="clip0_1_498">
<rect width="203.14" height="30.75" fill="white" transform="translate(0.5 0.77002)"/>
</clipPath>
<clipPath id="clip1_1_498">
<rect width="275" height="28" fill="white" transform="translate(0.5 0.77002)"/>
</clipPath>
</defs>
</svg>
