<svg width="331" height="42" viewBox="0 0 331 42" fill="none" xmlns="http://www.w3.org/2000/svg">
<g clip-path="url(#clip0_1_991)">
<g clip-path="url(#clip1_1_991)">
<path d="M3.5 16.6433C6.36266 14.9937 9.00043 13.2617 12.1006 11.7113C17.7991 8.86167 23.9782 6.04319 30.4919 3.64198C34.0797 2.31935 28.7951 4.34443 32.7932 3.36183C33.9383 3.08043 35.1233 2.83008 36.4174 2.83008C38.1277 2.83008 35.6075 4.47149 35.3085 4.74439C28.5428 10.9203 27.4595 13.1489 21.3503 19.4882C18.4567 22.4909 29.9248 20.6022 32.1687 20.0598C39.418 18.3078 45.9531 15.7341 52.0205 13.1471C54.5793 12.056 58.0936 9.87896 61.3784 9.29184C62.7291 9.05041 62.1431 11.2567 62.1356 11.4455C61.9755 15.4865 60.0688 19.5357 58.241 23.4631C58.183 23.5876 56.8719 26.1833 57.6731 25.7895C64.7634 22.3044 70.8055 18.3037 77.8764 14.7955C79.7684 13.8568 85.0264 10.618 88.3702 10.7675C90.6745 10.8704 90.9248 14.4501 91.3723 15.2475C92.1247 16.5881 92.7196 18.4687 95.7267 19.0229C99.6667 19.7491 103.662 18.3209 106.437 17.1086C108.781 16.0844 115.381 11.8384 118.635 14.0776C123.548 17.4589 128.746 17.5058 134.7 14.3701C138.64 12.2952 142.359 9.91284 148.196 9.13232C154.609 8.27474 160.238 10.2075 165.235 11.9506C170.957 13.9466 179.118 18.4452 187.061 18.1057C189.505 18.0012 194.495 16.6549 196.5 17.6404" stroke="url(#paint0_linear_1_991)" stroke-width="3" stroke-linecap="square"/>
</g>
</g>
<defs>
<linearGradient id="paint0_linear_1_991" x1="15.7233" y1="9.85788" x2="190.065" y2="14.3925" gradientUnits="userSpaceOnUse">
<stop stop-color="#39B6D8"/>
<stop offset="0.5" stop-color="#F7D344"/>
<stop offset="1" stop-color="#E38330"/>
</linearGradient>
<clipPath id="clip0_1_991">
<rect width="330.16" height="41" fill="white" transform="translate(0.5 0.830078)"/>
</clipPath>
<clipPath id="clip1_1_991">
<rect width="198" height="25" fill="white" transform="translate(0.5 0.830078)"/>
</clipPath>
</defs>
</svg>
