<svg width="181" height="31" viewBox="0 0 181 31" fill="none" xmlns="http://www.w3.org/2000/svg">
<g clip-path="url(#clip0_1_889)">
<g clip-path="url(#clip1_1_889)">
<path d="M7.44 15.9803C11.3119 14.6892 14.8796 13.3337 19.0728 12.1204C26.7802 9.89029 35.1379 7.68453 43.9479 5.80532C48.8006 4.77022 41.653 6.35506 47.0606 5.58607C48.6093 5.36584 50.2121 5.16992 51.9625 5.16992C54.2757 5.16992 50.867 6.4545 50.4627 6.66807C41.3117 11.5014 39.8465 13.2455 31.5835 18.2067C27.6697 20.5566 43.1809 19.0785 46.2159 18.6541C56.0209 17.2829 64.86 15.2687 73.0664 13.244C76.5274 12.3902 81.2806 10.6864 85.7235 10.2269C87.5505 10.038 86.7579 11.7647 86.7478 11.9124C86.5311 15.0749 83.9523 18.2438 81.4801 21.3174C81.4017 21.4149 79.6283 23.4463 80.7119 23.1381C90.3019 20.4107 98.4742 17.2797 108.038 14.5341C110.597 13.7995 117.709 11.2648 122.231 11.3818C125.348 11.4623 125.687 14.2638 126.292 14.8879C127.31 15.9371 128.114 17.4088 132.181 17.8425C137.51 18.4109 142.915 17.2932 146.668 16.3444C149.838 15.5428 158.764 12.2199 163.166 13.9723C169.812 16.6185 176.841 16.6552 184.895 14.2012C190.224 12.5773 195.254 10.7129 203.149 10.1021C211.823 9.43096 219.436 10.9435 226.195 12.3077C233.934 13.8698 244.972 17.3904 255.716 17.1247C259.021 17.0429 265.771 15.9893 268.483 16.7605" stroke="#404040" stroke-width="10" stroke-linecap="square"/>
</g>
</g>
<defs>
<clipPath id="clip0_1_889">
<rect width="180.28" height="30.75" fill="white" transform="translate(0.440002 0.169922)"/>
</clipPath>
<clipPath id="clip1_1_889">
<rect width="275" height="28" fill="white" transform="translate(0.440002 0.169922)"/>
</clipPath>
</defs>
</svg>
