<svg width="160" height="33" viewBox="0 0 160 33" fill="none" xmlns="http://www.w3.org/2000/svg">
<g clip-path="url(#clip0_1_1159)">
<g clip-path="url(#clip1_1_1159)">
<g style="mix-blend-mode:lighten">
<path d="M2.5 13.1704C5.63028 11.8793 8.51464 10.5238 11.9046 9.31052C18.1358 7.08036 24.8926 4.8746 32.0152 2.99539C35.9384 1.96029 30.1598 3.54513 34.5317 2.77614C35.7838 2.55591 37.0796 2.35999 38.4947 2.35999C40.3648 2.35999 37.609 3.64457 37.2821 3.85814C29.884 8.69149 28.6994 10.4356 22.0191 15.3968C18.8549 17.7467 31.3951 16.2686 33.8488 15.8442C41.7758 14.473 48.9218 12.4588 55.5564 10.4341C58.3545 9.58026 62.1972 7.8765 65.7891 7.41702C67.2662 7.22807 66.6254 8.95476 66.6172 9.10245C66.4421 12.265 64.3572 15.4339 62.3585 18.5075C62.2951 18.605 60.8614 20.6364 61.7374 20.3282C69.4906 17.6008 76.0975 14.4698 83.8295 11.7242C85.8983 10.9896 91.6479 8.45492 95.3043 8.57185C97.824 8.65243 98.0977 11.4539 98.5871 12.078C99.4098 13.1272 100.06 14.5989 103.349 15.0326C107.657 15.601 112.026 14.4833 115.06 13.5345C117.623 12.7329 124.84 9.40997 128.398 11.1624C133.771 13.8086 139.454 13.8453 145.965 11.3913C150.273 9.76743 154.34 7.90302 160.723 7.29218C167.735 6.62103 173.89 8.13363 179.355 9.49779C185.612 11.0599 194.535 14.5805 203.221 14.3148C205.893 14.233 211.35 13.1794 213.543 13.9506" stroke="url(#paint0_linear_1_1159)" stroke-width="3" stroke-linecap="square"/>
</g>
</g>
</g>
<defs>
<linearGradient id="paint0_linear_1_1159" x1="11.4593" y1="13.7295" x2="225.189" y2="44.7995" gradientUnits="userSpaceOnUse">
<stop stop-color="#39B6D8"/>
<stop offset="0.526042" stop-color="#F1D24B"/>
<stop offset="1" stop-color="#E38330"/>
</linearGradient>
<clipPath id="clip0_1_1159">
<rect width="158.69" height="32.5" fill="white" transform="translate(0.5 0.359985)"/>
</clipPath>
<clipPath id="clip1_1_1159">
<rect width="215" height="22" fill="white" transform="translate(0.5 0.359985)"/>
</clipPath>
</defs>
</svg>
