<svg width="626" height="121" viewBox="0 0 626 121" fill="none" xmlns="http://www.w3.org/2000/svg">
<g clip-path="url(#clip0_1_167)">
<g clip-path="url(#clip1_1_167)">
<path d="M69.9656 57.5328C78.6081 61.9685 83.5 69.8542 83.5 80.2042C83.5 101.069 66.7043 115.69 42.7338 115.69C19.7417 115.69 2.94597 102.219 0.5 80.8613L25.9381 76.0971C27.4057 86.9399 33.276 93.1828 42.8969 93.1828C52.0285 93.1828 58.5511 87.9256 58.5511 79.8756C58.5511 72.647 53.1699 68.3756 43.7122 68.3756H29.0363V46.8542H42.5707C51.8654 46.8542 57.2466 42.747 57.2466 35.6828C57.2466 28.1256 51.5393 23.0328 42.7338 23.0328C33.9283 23.0328 27.4057 28.4542 26.4273 40.7756L1.80452 36.0113C4.25049 14.1613 20.3939 0.689941 42.5707 0.689941C65.889 0.689941 81.7063 15.1471 81.7063 35.3542C81.7063 45.3756 77.4666 53.0971 69.9656 57.5328Z" fill="#171717"/>
</g>
</g>
<defs>
<clipPath id="clip0_1_167">
<rect width="625" height="120" fill="white" transform="translate(0.5 0.689941)"/>
</clipPath>
<clipPath id="clip1_1_167">
<rect width="83" height="115" fill="white" transform="translate(0.5 0.689941)"/>
</clipPath>
</defs>
</svg>
