<svg width="121" height="42" viewBox="0 0 121 42" fill="none" xmlns="http://www.w3.org/2000/svg">
<g clip-path="url(#clip0_1_421)">
<g clip-path="url(#clip1_1_421)">
<path d="M3.55 15.9528C6.41266 14.3032 9.05043 12.5712 12.1506 11.0208C17.8491 8.17124 24.0282 5.35276 30.5419 2.95155C34.1297 1.62892 28.8451 3.654 32.8432 2.6714C33.9883 2.39 35.1733 2.13965 36.4674 2.13965C38.1777 2.13965 35.6575 3.78106 35.3585 4.05396C28.5928 10.2298 27.5095 12.4584 21.4003 18.7977C18.5067 21.8004 29.9748 19.9117 32.2187 19.3693C39.468 17.6173 46.0031 15.0436 52.0705 12.4566C54.6293 11.3655 58.1436 9.18853 61.4284 8.60141C62.7791 8.35998 62.1931 10.5662 62.1856 10.755C62.0255 14.796 60.1188 18.8452 58.291 22.7726C58.233 22.8971 56.9219 25.4928 57.7231 25.099C64.8134 21.6139 70.8555 17.6132 77.9264 14.105C79.8184 13.1663 85.0764 9.92761 88.4202 10.077C90.7245 10.1799 90.9748 13.7596 91.4223 14.557C92.1747 15.8976 92.7696 17.7782 95.7767 18.3324C99.7167 19.0586 103.712 17.6304 106.487 16.4181C108.831 15.3939 115.431 11.1479 118.685 13.3871C123.598 16.7684 128.796 16.8153 134.75 13.6796C138.69 11.6047 142.409 9.22241 148.246 8.44189C154.659 7.58431 160.288 9.51707 165.285 11.2601C171.007 13.2561 179.168 17.7547 187.111 17.4152C189.555 17.3107 194.545 15.9644 196.55 16.9499" stroke="url(#paint0_linear_1_421)" stroke-width="3" stroke-linecap="square"/>
</g>
</g>
<defs>
<linearGradient id="paint0_linear_1_421" x1="15.7733" y1="9.16745" x2="190.115" y2="13.702" gradientUnits="userSpaceOnUse">
<stop stop-color="#39B6D8"/>
<stop offset="0.5" stop-color="#F7D344"/>
<stop offset="1" stop-color="#E38330"/>
</linearGradient>
<clipPath id="clip0_1_421">
<rect width="119.92" height="41" fill="white" transform="translate(0.550003 0.139648)"/>
</clipPath>
<clipPath id="clip1_1_421">
<rect width="198" height="25" fill="white" transform="translate(0.550003 0.139648)"/>
</clipPath>
</defs>
</svg>
