<svg width="340" height="42" viewBox="0 0 340 42" fill="none" xmlns="http://www.w3.org/2000/svg">
<g clip-path="url(#clip0_1_161)">
<g clip-path="url(#clip1_1_161)">
<path d="M3.34 16.0932C6.20266 14.4436 8.84043 12.7116 11.9406 11.1612C17.6391 8.31162 23.8182 5.49314 30.3319 3.09193C33.9197 1.7693 28.6351 3.79438 32.6332 2.81178C33.7783 2.53038 34.9633 2.28003 36.2574 2.28003C37.9677 2.28003 35.4475 3.92144 35.1485 4.19434C28.3828 10.3702 27.2995 12.5988 21.1903 18.9381C18.2967 21.9408 29.7648 20.0521 32.0087 19.5097C39.258 17.7577 45.7931 15.184 51.8605 12.597C54.4193 11.5059 57.9336 9.32891 61.2184 8.74179C62.5691 8.50036 61.9831 10.7066 61.9756 10.8954C61.8155 14.9364 59.9088 18.9856 58.081 22.913C58.023 23.0375 56.7119 25.6332 57.5131 25.2394C64.6034 21.7543 70.6455 17.7536 77.7164 14.2454C79.6084 13.3067 84.8664 10.068 88.2102 10.2174C90.5145 10.3203 90.7648 13.9 91.2123 14.6974C91.9647 16.038 92.5596 17.9186 95.5667 18.4728C99.5067 19.199 103.502 17.7708 106.277 16.5585C108.621 15.5343 115.221 11.2883 118.475 13.5275C123.388 16.9088 128.586 16.9557 134.54 13.82C138.48 11.7451 142.199 9.36279 148.036 8.58227C154.449 7.72469 160.078 9.65745 165.075 11.4005C170.797 13.3965 178.958 17.8951 186.901 17.5556C189.345 17.4511 194.335 16.1048 196.34 17.0903" stroke="url(#paint0_linear_1_161)" stroke-width="3" stroke-linecap="square"/>
</g>
</g>
<defs>
<linearGradient id="paint0_linear_1_161" x1="15.5633" y1="9.30783" x2="189.905" y2="13.8424" gradientUnits="userSpaceOnUse">
<stop stop-color="#39B6D8"/>
<stop offset="0.5" stop-color="#F7D344"/>
<stop offset="1" stop-color="#E38330"/>
</linearGradient>
<clipPath id="clip0_1_161">
<rect width="339.13" height="41" fill="white" transform="translate(0.339996 0.280029)"/>
</clipPath>
<clipPath id="clip1_1_161">
<rect width="198" height="25" fill="white" transform="translate(0.339996 0.280029)"/>
</clipPath>
</defs>
</svg>
