<svg width="175" height="42" viewBox="0 0 175 42" fill="none" xmlns="http://www.w3.org/2000/svg">
<g clip-path="url(#clip0_1_666)">
<g clip-path="url(#clip1_1_666)">
<path d="M3.67001 16.5129C6.53267 14.8633 9.17044 13.1313 12.2706 11.5809C17.9691 8.7313 24.1482 5.91282 30.6619 3.51161C34.2497 2.18898 28.9651 4.21406 32.9632 3.23146C34.1083 2.95006 35.2933 2.69971 36.5874 2.69971C38.2977 2.69971 35.7775 4.34112 35.4785 4.61402C28.7128 10.7899 27.6295 13.0185 21.5203 19.3578C18.6267 22.3605 30.0948 20.4718 32.3387 19.9294C39.588 18.1774 46.1231 15.6037 52.1905 13.0167C54.7493 11.9256 58.2636 9.74859 61.5484 9.16147C62.8991 8.92004 62.3131 11.1263 62.3056 11.3151C62.1455 15.3561 60.2388 19.4053 58.411 23.3327C58.353 23.4572 57.0419 26.0529 57.8431 25.6591C64.9334 22.174 70.9755 18.1733 78.0464 14.6651C79.9384 13.7264 85.1964 10.4877 88.5402 10.6371C90.8445 10.74 91.0948 14.3197 91.5423 15.1171C92.2947 16.4577 92.8896 18.3383 95.8967 18.8925C99.8367 19.6187 103.832 18.1905 106.607 16.9782C108.951 15.954 115.551 11.708 118.805 13.9472C123.718 17.3285 128.916 17.3754 134.87 14.2397C138.81 12.1648 142.529 9.78247 148.366 9.00195C154.779 8.14437 160.408 10.0771 165.405 11.8202C171.127 13.8162 179.288 18.3148 187.231 17.9753C189.675 17.8708 194.665 16.5245 196.67 17.51" stroke="url(#paint0_linear_1_666)" stroke-width="3" stroke-linecap="square"/>
</g>
</g>
<defs>
<linearGradient id="paint0_linear_1_666" x1="15.8933" y1="9.7275" x2="190.235" y2="14.2621" gradientUnits="userSpaceOnUse">
<stop stop-color="#39B6D8"/>
<stop offset="0.5" stop-color="#F7D344"/>
<stop offset="1" stop-color="#E38330"/>
</linearGradient>
<clipPath id="clip0_1_666">
<rect width="173.63" height="41" fill="white" transform="translate(0.670013 0.699707)"/>
</clipPath>
<clipPath id="clip1_1_666">
<rect width="198" height="25" fill="white" transform="translate(0.670013 0.699707)"/>
</clipPath>
</defs>
</svg>
