<svg width="21" height="21" viewBox="0 0 21 21" fill="none" xmlns="http://www.w3.org/2000/svg">
<g clip-path="url(#clip0_1_774)">
<g clip-path="url(#clip1_1_774)">
<path d="M17.4 2.85986H3.6C3.26812 2.85986 3 3.12798 3 3.45986V17.2599C3 17.5918 3.26812 17.8599 3.6 17.8599H17.4C17.7319 17.8599 18 17.5918 18 17.2599V3.45986C18 3.12798 17.7319 2.85986 17.4 2.85986ZM7.44937 15.6418H5.22375V8.48298H7.44937V15.6418ZM6.3375 7.50423C6.08236 7.50423 5.83295 7.42858 5.62081 7.28683C5.40867 7.14508 5.24333 6.94361 5.1457 6.7079C5.04806 6.47218 5.02251 6.2128 5.07229 5.96257C5.12206 5.71233 5.24492 5.48248 5.42533 5.30207C5.60574 5.12166 5.8356 4.9988 6.08583 4.94902C6.33607 4.89925 6.59544 4.92479 6.83116 5.02243C7.06688 5.12007 7.26835 5.28541 7.4101 5.49755C7.55184 5.70969 7.6275 5.9591 7.6275 6.21423C7.62562 6.92673 7.04812 7.50423 6.3375 7.50423ZM15.7819 15.6418H13.5581V12.1599C13.5581 11.3293 13.5431 10.2624 12.4012 10.2624C11.2444 10.2624 11.0662 11.1661 11.0662 12.0999V15.6418H8.84437V8.48298H10.9781V9.46173H11.0081C11.3044 8.89923 12.03 8.30486 13.1137 8.30486C15.3675 8.30486 15.7819 9.78798 15.7819 11.7155V15.6418Z" fill="#060606"/>
</g>
</g>
<defs>
<clipPath id="clip0_1_774">
<rect width="20" height="20" fill="white" transform="translate(0.5 0.359863)"/>
</clipPath>
<clipPath id="clip1_1_774">
<rect width="20" height="20" fill="white" transform="translate(0.5 0.359863)"/>
</clipPath>
</defs>
</svg>
