<svg width="25" height="25" viewBox="0 0 25 25" fill="none" xmlns="http://www.w3.org/2000/svg">
<path fill-rule="evenodd" clip-rule="evenodd" d="M3.34961 12.084C3.34961 8.48884 3.34961 6.69127 4.2063 5.39653C4.58886 4.81837 5.084 4.32323 5.66216 3.94067C6.9569 3.08398 8.75447 3.08398 12.3496 3.08398C15.9447 3.08398 17.7423 3.08398 19.0371 3.94067C19.6152 4.32323 20.1104 4.81837 20.4929 5.39653C21.3496 6.69127 21.3496 8.48884 21.3496 12.084C21.3496 15.6792 21.3496 17.4767 20.4929 18.7715C20.1104 19.3496 19.6152 19.8448 19.0371 20.2273C17.7423 21.084 15.9447 21.084 12.3496 21.084C8.75447 21.084 6.9569 21.084 5.66216 20.2273C5.084 19.8448 4.58886 19.3496 4.2063 18.7715C3.34961 17.4767 3.34961 15.6792 3.34961 12.084ZM17.0082 12.0841C17.0082 14.6574 14.9222 16.7435 12.3488 16.7435C9.77551 16.7435 7.68943 14.6574 7.68943 12.0841C7.68943 9.5107 9.77551 7.42462 12.3488 7.42462C14.9222 7.42462 17.0082 9.5107 17.0082 12.0841ZM12.3488 15.1671C14.0515 15.1671 15.4318 13.7868 15.4318 12.0841C15.4318 10.3813 14.0515 9.00102 12.3488 9.00102C10.6461 9.00102 9.26583 10.3813 9.26583 12.0841C9.26583 13.7868 10.6461 15.1671 12.3488 15.1671ZM17.1923 8.28535C17.7969 8.28535 18.2871 7.79518 18.2871 7.19052C18.2871 6.58587 17.7969 6.0957 17.1923 6.0957C16.5876 6.0957 16.0974 6.58587 16.0974 7.19052C16.0974 7.79518 16.5876 8.28535 17.1923 8.28535Z" fill="white"/>
</svg>
