<svg width="25" height="25" viewBox="0 0 25 25" fill="none" xmlns="http://www.w3.org/2000/svg">
<path d="M12.7879 19.0642L8.72568 18.9883C7.41044 18.9618 6.09191 19.0146 4.80246 18.7405C2.84089 18.331 2.70193 16.3231 2.55652 14.6389C2.35615 12.2711 2.43372 9.86019 2.81183 7.51211C3.02528 6.19459 3.86532 5.40842 5.1644 5.32287C9.54975 5.0124 13.9643 5.04919 18.3399 5.19404C18.802 5.20732 19.2673 5.27989 19.723 5.36251C21.9723 5.76542 22.0271 8.04082 22.173 9.95628C22.3184 11.8916 22.257 13.8367 21.979 15.7588C21.7561 17.3502 21.3295 18.6847 19.5291 18.8135C17.2733 18.982 15.0693 19.1176 12.8072 19.0744C12.8073 19.0642 12.7943 19.0642 12.7879 19.0642ZM10.3997 15.0352C12.0996 14.0378 13.7671 13.057 15.4573 12.0663C13.7542 11.0689 12.0899 10.0881 10.3997 9.09733V15.0352Z" fill="white"/>
</svg>
