<svg width="25" height="25" viewBox="0 0 25 25" fill="none" xmlns="http://www.w3.org/2000/svg">
<path d="M3.34961 6.50404C3.34961 5.92683 3.55232 5.45064 3.95772 5.07547C4.36312 4.70029 4.89016 4.5127 5.5388 4.5127C6.17587 4.5127 6.6913 4.69739 7.08513 5.06681C7.49053 5.44777 7.69324 5.94415 7.69324 6.55599C7.69324 7.1101 7.49633 7.57185 7.1025 7.94127C6.69711 8.32222 6.16428 8.5127 5.50405 8.5127H5.48668C4.8496 8.5127 4.33417 8.32222 3.94034 7.94127C3.54651 7.56032 3.34961 7.08124 3.34961 6.50404ZM3.57548 21.6556V10.0885H7.43262V21.6556H3.57548ZM9.56969 21.6556H13.4268V15.1967C13.4268 14.7927 13.4732 14.481 13.5658 14.2617C13.728 13.8692 13.9741 13.5373 14.3042 13.266C14.6344 12.9947 15.0484 12.8591 15.5465 12.8591C16.8438 12.8591 17.4925 13.7306 17.4925 15.4738V21.6556H21.3496V15.0236C21.3496 13.315 20.9442 12.0192 20.1334 11.1361C19.3226 10.253 18.2512 9.81139 16.9191 9.81139C15.4249 9.81139 14.2608 10.4521 13.4268 11.7335V11.7682H13.4095L13.4268 11.7335V10.0885H9.56969C9.59285 10.4579 9.60444 11.6065 9.60444 13.5344C9.60444 15.4622 9.59285 18.1693 9.56969 21.6556Z" fill="white"/>
</svg>
