<svg width="75" height="17" viewBox="0 0 75 17" fill="none" xmlns="http://www.w3.org/2000/svg">
<g clip-path="url(#clip0_1_1096)">
<g clip-path="url(#clip1_1_1096)">
<path d="M20.2151 12.353V9.51638L20.138 7.8794L20.1991 7.86653L20.8584 9.32663L22.4085 12.1761L23.9587 9.32663L24.6212 7.86653L24.6791 7.8794L24.6019 9.51638V12.353H26.2549V5.36121H24.3864L22.4214 9.14653H22.3989L20.4306 5.36121H18.5621V12.353H20.2151ZM68.9098 10.5809C68.9098 11.7387 69.5337 12.3497 70.714 12.3497H71.7335V10.9186H70.624V7.86653H71.8268V6.46432H70.4921V5.11035H68.913V10.5809H68.9098ZM68.4499 6.46432H68.1701C67.2021 6.46432 66.7422 7.11719 66.5975 7.56744H66.5396V6.46432H64.8286V12.353H66.5396V9.00181C66.5396 8.65447 66.6714 8.41005 66.8387 8.25246C67.1249 7.97588 67.7359 7.89548 68.4499 7.89548V6.46432ZM51.5237 6.46432H51.2439C50.2758 6.46432 49.8159 7.11719 49.6712 7.56744H49.6133V6.46432H47.9024V12.353H49.6133V9.00181C49.6133 8.65447 49.7452 8.41005 49.9124 8.25246C50.1987 7.97588 50.8097 7.89548 51.5237 7.89548V6.46432ZM41.5056 9.49387C41.5056 7.57387 42.5251 6.32281 44.3518 6.32281C46.3651 6.32281 47.1755 7.7797 47.1755 9.42312V9.93126H43.2777V9.98915C43.2777 10.671 43.6443 11.1469 44.6188 11.1469C45.3359 11.1469 45.7283 10.8125 46.111 10.4169L46.9665 11.4814C46.423 12.1053 45.5321 12.488 44.4226 12.488C42.5572 12.4913 41.5056 11.4364 41.5056 9.49387ZM43.2744 8.83457V8.92784H45.4035V8.82492C45.4035 8.08523 45.069 7.58673 44.384 7.58673C43.699 7.58673 43.2744 8.08201 43.2744 8.83457ZM58.4093 9.49387C58.4093 7.53849 59.4738 6.32281 61.2555 6.32281C63.0372 6.32281 64.1018 7.53849 64.1018 9.49387C64.1018 11.4492 63.0372 12.4913 61.2555 12.4913C59.4706 12.4913 58.4093 11.4492 58.4093 9.49387ZM62.3168 9.93447V8.88281C62.3168 8.1206 61.9245 7.68 61.2523 7.68C60.5802 7.68 60.1878 8.1206 60.1878 8.88281V9.93447C60.1878 10.6967 60.5802 11.1373 61.2523 11.1373C61.9245 11.1373 62.3168 10.6967 62.3168 9.93447ZM39.8783 5.11035H38.341V5.81467C38.341 6.23276 38.2027 6.46111 37.7396 6.46111H37.3118V7.86332H38.1673V10.5777C38.1673 11.7355 38.7912 12.3465 39.9715 12.3465H40.991V10.9154H39.8815V7.86332H41.0843V6.46111H39.8815V5.11035H39.8783ZM35.6169 5.11035H34.0797V5.81467C34.0797 6.23276 33.9414 6.46111 33.4783 6.46111H33.0505V7.86332H33.906V10.5777C33.906 11.7355 34.5299 12.3465 35.7102 12.3465H36.7297V10.9154H35.6202V7.86332H36.823V6.46111H35.6202V5.11035H35.6169ZM55.4698 6.32281C54.6819 6.32281 54.0129 6.80844 53.8393 7.4806H53.7814V6.46111H52.0704V14.1218H53.7814V11.3335H53.8393C54.0129 11.9928 54.6851 12.4913 55.4698 12.4913C57.0071 12.4913 57.8079 11.5554 57.8079 9.49387C57.8047 7.43558 57.0071 6.32281 55.4698 6.32281ZM56.023 10.0277C56.023 10.7899 55.547 11.1051 54.9006 11.1051C54.2541 11.1051 53.7782 10.7707 53.7782 10.2143V8.60623C53.7782 8.04985 54.2541 7.71538 54.9006 7.71538C55.547 7.71538 56.023 8.21387 56.023 8.97608V10.0277ZM31.9699 12.353C31.3556 12.353 30.9183 11.9349 30.8121 11.2884H30.7414C30.5548 12.0764 29.8859 12.4913 28.9597 12.4913C27.744 12.4913 27.075 11.7741 27.075 10.7224C27.075 9.4392 28.0688 8.82492 29.6768 8.82492H30.6385V8.62874C30.6385 8.0402 30.349 7.66714 29.6318 7.66714C28.95 7.66714 28.5898 8.01447 28.3261 8.38432L27.3066 7.4806C27.7922 6.76342 28.4869 6.32281 29.7605 6.32281C31.4714 6.32281 32.3526 7.11075 32.3526 8.54513V10.9186H32.9187V12.3497H31.9699V12.353ZM30.6417 10.5134V9.79618H29.8087C29.1494 9.79618 28.8021 10.0406 28.8021 10.478V10.6517C28.8021 11.0923 29.0915 11.2981 29.5997 11.2981C30.1657 11.2981 30.6417 11.0665 30.6417 10.5134Z" fill="#F5F4F3"/>
<path d="M13.0658 2.95312L8.94604 4.1077L4.82302 2.95312L3.17639 3.41624V14.0486L4.82624 14.5117L8.94926 13.3571L13.0723 14.5117L14.7221 14.0486V3.41624L13.0658 2.95312ZM11.4192 10.8872L8.94604 10.1957L6.47287 10.8872V6.57765L8.94604 7.2691L11.4192 6.57765V10.8872Z" fill="#B7BABB"/>
<path d="M8.94604 5.03049V7.26888L4.82302 6.11431V14.5083L3.17639 14.0484V3.41602L8.94604 5.03049ZM11.4192 11.81L8.94604 11.1153V13.3537L13.0658 14.5083V6.11431L11.4192 6.57742V11.81Z" fill="white"/>
<path d="M13.0658 2.95312L14.7157 3.41624L8.94604 5.03071L3.17639 3.41624L4.82302 2.95312L8.94604 4.1077L13.0658 2.95312ZM8.94604 10.1925L11.4192 10.8872V11.8102L8.94604 11.1155L6.47287 11.8102V10.8872L8.94604 10.1925Z" fill="#999999"/>
</g>
</g>
<defs>
<clipPath id="clip0_1_1096">
<rect width="74" height="16" fill="white" transform="translate(0.5 0.730469)"/>
</clipPath>
<clipPath id="clip1_1_1096">
<rect width="74" height="16" fill="white" transform="translate(0.5 0.730469)"/>
</clipPath>
</defs>
</svg>
