<svg width="19" height="19" viewBox="0 0 19 19" fill="none" xmlns="http://www.w3.org/2000/svg">
<path d="M14.0197 15.6639H10.725C11.2785 15.1697 11.8004 14.6413 12.2877 14.0818C14.1162 11.9789 15.0855 9.76205 15.0855 7.67044C15.0855 6.11578 14.4679 4.6248 13.3686 3.52549C12.2692 2.42618 10.7783 1.80859 9.2236 1.80859C7.66894 1.80859 6.17796 2.42618 5.07865 3.52549C3.97934 4.6248 3.36176 6.11578 3.36176 7.67044C3.36176 9.76205 4.3283 11.9789 6.15946 14.0818C6.64679 14.6413 7.16872 15.1697 7.72217 15.6639H4.42754C4.28622 15.6639 4.15067 15.72 4.05073 15.82C3.9508 15.9198 3.89465 16.0554 3.89465 16.1968C3.89465 16.3381 3.9508 16.4737 4.05073 16.5735C4.15067 16.6735 4.28622 16.7296 4.42754 16.7296H14.0197C14.1609 16.7296 14.2965 16.6735 14.3965 16.5735C14.4964 16.4737 14.5526 16.3381 14.5526 16.1968C14.5526 16.0554 14.4964 15.9198 14.3965 15.82C14.2965 15.72 14.1609 15.6639 14.0197 15.6639ZM4.42754 7.67044C4.42754 6.39844 4.93284 5.17854 5.83227 4.27911C6.73172 3.37968 7.9516 2.87438 9.2236 2.87438C10.4956 2.87438 11.7155 3.37968 12.6149 4.27911C13.5144 5.17854 14.0197 6.39844 14.0197 7.67044C14.0197 11.4826 10.3247 14.6647 9.2236 15.5307C8.12251 14.6647 4.42754 11.4826 4.42754 7.67044ZM11.8881 7.67044C11.8881 7.14345 11.7318 6.6283 11.4391 6.19014C11.1462 5.75197 10.7301 5.41045 10.2432 5.20878C9.75638 5.00712 9.22064 4.95435 8.70379 5.05716C8.18693 5.15997 7.71217 5.41374 7.33953 5.78637C6.9669 6.159 6.71313 6.63377 6.61032 7.15062C6.50751 7.66748 6.56028 8.20322 6.76195 8.69009C6.96361 9.17695 7.30513 9.59309 7.7433 9.88587C8.18146 10.1786 8.69661 10.3349 9.2236 10.3349C9.93026 10.3349 10.6079 10.0542 11.1077 9.55451C11.6073 9.05482 11.8881 8.3771 11.8881 7.67044ZM7.62491 7.67044C7.62491 7.35424 7.71867 7.04515 7.89434 6.78226C8.07001 6.51935 8.31968 6.31445 8.61181 6.19344C8.90393 6.07244 9.22537 6.04078 9.53549 6.10247C9.8456 6.16416 10.1305 6.31642 10.354 6.54C10.5776 6.76358 10.7299 7.04843 10.7915 7.35854C10.8532 7.66866 10.8216 7.99011 10.7006 8.28223C10.5796 8.57435 10.3747 8.82403 10.1118 8.99969C9.84888 9.17536 9.53979 9.26912 9.2236 9.26912C8.7996 9.26912 8.39297 9.10069 8.09316 8.80087C7.79335 8.50107 7.62491 8.09443 7.62491 7.67044Z" fill="#999999"/>
</svg>
