<svg width="19" height="17" viewBox="0 0 19 17" fill="none" xmlns="http://www.w3.org/2000/svg">
<path d="M15.5 3.26953H3.5C3.36739 3.26953 3.24021 3.32221 3.14645 3.41598C3.05268 3.50974 3 3.63692 3 3.76953V12.2695C3 12.5347 3.10536 12.7891 3.29289 12.9766C3.48043 13.1641 3.73478 13.2695 4 13.2695H15C15.2652 13.2695 15.5196 13.1641 15.7071 12.9766C15.8946 12.7891 16 12.5347 16 12.2695V3.76953C16 3.63692 15.9473 3.50974 15.8536 3.41598C15.7598 3.32221 15.6326 3.26953 15.5 3.26953ZM14.2144 4.26953L9.5 8.5914L4.78562 4.26953H14.2144ZM15 12.2695H4V4.90641L9.16187 9.63828C9.25412 9.72296 9.37478 9.76994 9.5 9.76994C9.62522 9.76994 9.74588 9.72296 9.83813 9.63828L15 4.90641V12.2695Z" fill="#999999"/>
</svg>
