<svg width="15" height="15" viewBox="0 0 15 15" fill="none" xmlns="http://www.w3.org/2000/svg">
<path d="M7.92001 1.65234C6.79513 1.65234 5.69551 1.98591 4.76021 2.61086C3.8249 3.23581 3.09592 4.12407 2.66545 5.16333C2.23497 6.20258 2.12234 7.34615 2.3418 8.44942C2.56125 9.55268 3.10293 10.5661 3.89834 11.3615C4.69375 12.1569 5.70717 12.6986 6.81044 12.918C7.9137 13.1375 9.05727 13.0248 10.0965 12.5944C11.1358 12.1639 12.024 11.4349 12.649 10.4996C13.2739 9.56434 13.6075 8.46472 13.6075 7.33984C13.6059 5.83191 13.0062 4.3862 11.9399 3.31993C10.8737 2.25366 9.42794 1.65393 7.92001 1.65234ZM7.92001 12.1523C6.96819 12.1523 6.03774 11.8701 5.24633 11.3412C4.45492 10.8124 3.83809 10.0609 3.47384 9.1815C3.1096 8.30214 3.01429 7.3345 3.19998 6.40097C3.38567 5.46743 3.84402 4.60993 4.51706 3.93689C5.1901 3.26385 6.04761 2.8055 6.98114 2.61981C7.91467 2.43412 8.88231 2.52942 9.76168 2.89367C10.6411 3.25792 11.3926 3.87475 11.9214 4.66616C12.4503 5.45757 12.7325 6.38802 12.7325 7.33984C12.7311 8.61575 12.2236 9.83899 11.3214 10.7412C10.4192 11.6434 9.19592 12.1509 7.92001 12.1523Z" fill="#171717"/>
<path d="M11.2919 7.6492C11.3739 7.56715 11.42 7.45587 11.42 7.33984C11.42 7.22381 11.3739 7.11253 11.2919 7.03048C11.2098 6.94843 11.0985 6.90234 10.9825 6.90234H8.35751V4.27734C8.35751 4.16131 8.31142 4.05003 8.22937 3.96798C8.14732 3.88593 8.03604 3.83984 7.92001 3.83984C7.80398 3.83984 7.6927 3.88593 7.61065 3.96798C7.5286 4.05003 7.48251 4.16131 7.48251 4.27734V7.33984C7.48251 7.45587 7.5286 7.56715 7.61065 7.6492C7.6927 7.73125 7.80398 7.77734 7.92001 7.77734H10.9825C11.0985 7.77734 11.2098 7.73125 11.2919 7.6492Z" fill="url(#paint0_linear_1_265)"/>
<defs>
<linearGradient id="paint0_linear_1_265" x1="7.73188" y1="5.04297" x2="11.2911" y2="5.054" gradientUnits="userSpaceOnUse">
<stop stop-color="#39B6D8"/>
<stop offset="0.5" stop-color="#F7D344"/>
<stop offset="1" stop-color="#E38330"/>
</linearGradient>
</defs>
</svg>
