<svg width="15" height="15" viewBox="0 0 15 15" fill="none" xmlns="http://www.w3.org/2000/svg">
<path d="M11.5149 2.52734H2.76489C2.52326 2.52734 2.32739 2.72322 2.32739 2.96484V11.7148C2.32739 11.9564 2.52326 12.1523 2.76489 12.1523H11.5149C11.7565 12.1523 11.9524 11.9564 11.9524 11.7148V2.96484C11.9524 2.72322 11.7565 2.52734 11.5149 2.52734Z" stroke="#171717" stroke-linecap="round" stroke-linejoin="round"/>
<path d="M9.76581 1.43262V2.52637" stroke="#171717" stroke-linecap="round" stroke-linejoin="round"/>
<path d="M4.51614 1.43262V2.52637" stroke="#171717" stroke-linecap="round" stroke-linejoin="round"/>
<path d="M2.32739 5.15137H11.9524" stroke="#171717" stroke-linecap="round" stroke-linejoin="round"/>
<path fill-rule="evenodd" clip-rule="evenodd" d="M9.60823 7.33887C9.60823 7.14948 9.50123 6.97635 9.33184 6.89165C9.16244 6.80696 8.95974 6.82523 8.80823 6.93887L7.93323 7.59512C7.71231 7.7608 7.66754 8.0742 7.83323 8.29512C7.99891 8.51603 8.31231 8.5608 8.53323 8.39512L8.60823 8.33887V10.1826C8.60823 10.4587 8.83209 10.6826 9.10823 10.6826C9.38437 10.6826 9.60823 10.4587 9.60823 10.1826V7.33887ZM4.95209 6.83887C4.67595 6.83887 4.45209 7.06272 4.45209 7.33887C4.45209 7.61501 4.67595 7.83887 4.95209 7.83887H5.44303L5.21791 8.12027C5.09784 8.27035 5.07443 8.47598 5.15769 8.64921C5.24095 8.82244 5.41614 8.93262 5.60834 8.93262C5.67 8.93262 5.73071 8.94782 5.78509 8.97688C5.83947 9.00594 5.88585 9.04797 5.92011 9.09923C5.95438 9.15049 5.97547 9.20941 5.98153 9.27077C5.98759 9.33214 5.97842 9.39404 5.95484 9.45102C5.93126 9.50799 5.894 9.55827 5.84635 9.5974C5.7987 9.63654 5.74214 9.66332 5.68167 9.67538C5.6212 9.68743 5.55869 9.68439 5.49968 9.66653C5.44066 9.64866 5.38697 9.61652 5.34334 9.57294C5.14796 9.3778 4.83138 9.37799 4.63623 9.57337C4.44109 9.76876 4.44128 10.0853 4.63666 10.2805C4.79663 10.4402 4.99352 10.5581 5.2099 10.6236C5.42629 10.6891 5.65549 10.7002 5.87721 10.656C6.09893 10.6118 6.30633 10.5136 6.48104 10.3701C6.65575 10.2267 6.79238 10.0423 6.87884 9.83342C6.96529 9.62452 6.9989 9.39752 6.97669 9.17253C6.95448 8.94754 6.87713 8.7315 6.7515 8.54353C6.66422 8.41295 6.55551 8.29873 6.43041 8.20542L6.87378 7.65121C6.99385 7.50113 7.01725 7.2955 6.93399 7.12227C6.85073 6.94904 6.67555 6.83887 6.48334 6.83887H4.95209Z" fill="url(#paint0_linear_1_258)"/>
<defs>
<linearGradient id="paint0_linear_1_258" x1="4.77865" y1="8.01335" x2="9.43939" y2="8.03273" gradientUnits="userSpaceOnUse">
<stop stop-color="#39B6D8"/>
<stop offset="0.5" stop-color="#F7D344"/>
<stop offset="1" stop-color="#E38330"/>
</linearGradient>
</defs>
</svg>
