<svg width="43" height="43" viewBox="0 0 43 43" fill="none" xmlns="http://www.w3.org/2000/svg">
<g clip-path="url(#clip0_1_567)">
<g clip-path="url(#clip1_1_567)">
<g clip-path="url(#clip2_1_567)">
<path d="M21.5 42.4315C32.8283 42.4315 42.0116 33.2481 42.0116 21.9198C42.0116 10.5916 32.8283 1.4082 21.5 1.4082C10.1717 1.4082 0.988373 10.5916 0.988373 21.9198C0.988373 33.2481 10.1717 42.4315 21.5 42.4315Z" fill="white"/>
<path d="M21.5 42.1468C32.6709 42.1468 41.7267 33.091 41.7267 21.9201C41.7267 10.7492 32.6709 1.69336 21.5 1.69336C10.3291 1.69336 1.27329 10.7492 1.27329 21.9201C1.27329 33.091 10.3291 42.1468 21.5 42.1468Z" stroke="#C7C7C7" stroke-opacity="0.5" stroke-width="0.569767"/>
<path d="M27.3605 26.2262L15.6395 26.1934" stroke="black" stroke-width="1.46512" stroke-linecap="round" stroke-linejoin="round"/>
<path d="M21.5 21.4313L15.9326 17.2557C15.8416 17.1875 15.7678 17.0991 15.7169 16.9973C15.666 16.8956 15.6395 16.7834 15.6395 16.6697V13.3732C15.6395 13.1789 15.7167 12.9925 15.8541 12.8552C15.9915 12.7178 16.1778 12.6406 16.3721 12.6406H26.6279C26.8222 12.6406 27.0085 12.7178 27.1459 12.8552C27.2833 12.9925 27.3605 13.1789 27.3605 13.3732V16.6369C27.3605 16.7501 27.3342 16.8618 27.2838 16.9632C27.2333 17.0646 27.16 17.1529 27.0697 17.2213L21.5 21.4313Z" stroke="black" stroke-width="1.46512" stroke-linecap="round" stroke-linejoin="round"/>
<path d="M21.5 21.4316L15.9326 25.6072C15.8416 25.6755 15.7678 25.7639 15.7169 25.8657C15.666 25.9673 15.6395 26.0796 15.6395 26.1933V29.4898C15.6395 29.6841 15.7167 29.8704 15.8541 30.0077C15.9915 30.1452 16.1778 30.2223 16.3721 30.2223H26.6279C26.8222 30.2223 27.0085 30.1452 27.1459 30.0077C27.2833 29.8704 27.3605 29.6841 27.3605 29.4898V26.2261C27.3605 26.1129 27.3342 26.0011 27.2838 25.8998C27.2333 25.7984 27.16 25.7101 27.0697 25.6417L21.5 21.4316Z" stroke="black" stroke-width="1.46512" stroke-linecap="round" stroke-linejoin="round"/>
</g>
</g>
</g>
<defs>
<clipPath id="clip0_1_567">
<rect width="42" height="42" fill="white" transform="translate(0.5 0.919922)"/>
</clipPath>
<clipPath id="clip1_1_567">
<rect width="42" height="42" fill="white" transform="translate(0.5 0.919922)"/>
</clipPath>
<clipPath id="clip2_1_567">
<rect width="41.0233" height="42" fill="white" transform="translate(0.988373 0.919922)"/>
</clipPath>
</defs>
</svg>
