<svg width="130" height="19" viewBox="0 0 130 19" fill="none" xmlns="http://www.w3.org/2000/svg">
<path d="M6.5 9.61312C8.36611 8.88386 13.5521 6.36775 16.8502 6.48382C19.123 6.56382 19.3698 9.34482 19.8112 9.96426C20.5533 11.0058 21.1401 12.4667 24.106 12.8973C27.992 13.4615 31.9329 12.352 34.6696 11.4101C36.9818 10.6144 43.4909 7.31582 46.7004 9.05542C51.5468 11.6822 56.6732 11.7187 62.5458 9.28263C66.4319 7.67066 70.1001 5.81989 75.857 5.21351C82.1823 4.54728 87.7341 6.04881 92.6628 7.40299C98.3065 8.95364 106.356 12.4485 114.19 12.1847C116.601 12.1036 121.523 11.0577 123.5 11.8233" stroke="#E5E5E5" stroke-width="10" stroke-linecap="square"/>
</svg>
