<svg xmlns="http://www.w3.org/2000/svg" width="24" height="24" viewBox="0 0 24 24" fill="none" stroke="none">
  <!-- Grey flower/cloud shape background -->
  <path d="M12 2.5c-1.5 0-2.7 1.2-3 2.7-1.4-1-3.3-0.8-4.5 0.4s-1.4 3.1-0.4 4.5c-1.5 0.3-2.7 1.5-2.7 3s1.2 2.7 2.7 3c-1 1.4-0.8 3.3 0.4 4.5s3.1 1.4 4.5 0.4c0.3 1.5 1.5 2.7 3 2.7s2.7-1.2 3-2.7c1.4 1 3.3 0.8 4.5-0.4s1.4-3.1 0.4-4.5c1.5-0.3 2.7-1.5 2.7-3s-1.2-2.7-2.7-3c1-1.4 0.8-3.3-0.4-4.5s-3.1-1.4-4.5-0.4c-0.3-1.5-1.5-2.7-3-2.7z" fill="#808080"/>
  
  <!-- White checkmark -->
  <path d="M8.5 12.5l2 2 5-5" stroke="white" stroke-width="2" stroke-linecap="round" stroke-linejoin="round" fill="none"/>
</svg>