<?xml version="1.0" standalone="no"?>
<!DOCTYPE svg PUBLIC "-//W3C//DTD SVG 1.1//EN" "http://www.w3.org/Graphics/SVG/1.1/DTD/svg11.dtd" >
<svg xmlns="http://www.w3.org/2000/svg" xmlns:xlink="http://www.w3.org/1999/xlink" version="1.1">
<metadata>
Created by FontForge 20190801 at Thu Nov 10 08:35:32 2016
 By Unknown
Copyright (c) 2016 by Bigelow &#38; Holmes Inc.. All rights reserved.
</metadata>
<defs>
<font id="Go-Bold" horiz-adv-x="1139" >
  <font-face 
    font-family="Go"
    font-weight="600"
    font-stretch="normal"
    units-per-em="2048"
    panose-1="2 11 7 3 5 0 0 0 0 4"
    ascent="1638"
    descent="-410"
    x-height="1098"
    cap-height="1480"
    bbox="-452 -466 2190 2193"
    underline-thickness="100"
    underline-position="-250"
    unicode-range="U+0005-FB02"
  />
<missing-glyph horiz-adv-x="1536" 
d="M256 0v1280h1024v-1280h-1024zM320 64h896v1152h-896v-1152z" />
    <glyph glyph-name=".notdef" horiz-adv-x="1536" 
d="M256 0v1280h1024v-1280h-1024zM320 64h896v1152h-896v-1152z" />
    <glyph glyph-name=".null" horiz-adv-x="0" 
 />
    <glyph glyph-name="nonmarkingreturn" unicode="&#xd;" horiz-adv-x="569" 
 />
    <glyph glyph-name="NULL" horiz-adv-x="0" 
 />
    <glyph glyph-name="NULL" horiz-adv-x="0" 
 />
    <glyph glyph-name="uni0005" horiz-adv-x="0" 
 />
    <glyph glyph-name="space" unicode=" " horiz-adv-x="569" 
 />
    <glyph glyph-name="exclam" unicode="!" horiz-adv-x="682" 
d="M203 0v257h316v-257h-316zM262 432l-49 752v296h296v-296l-49 -752h-198z" />
    <glyph glyph-name="quotedbl" unicode="&#x22;" horiz-adv-x="971" 
d="M163 952l-49 627h296l-62 -627h-185zM610 952l-49 627h296l-61 -627h-186z" />
    <glyph glyph-name="numbersign" unicode="#" 
d="M125 0l106 426h-206l29 148h214l84 333h-232l30 148h239l106 425h153l-107 -425h213l107 425h152l-106 -425h207l-30 -148h-214l-83 -333h231l-29 -148h-239l-107 -426h-152l106 426h-213l-106 -426h-153zM421 574h213l83 333h-213z" />
    <glyph glyph-name="dollar" unicode="$" 
d="M480 -160v164q-69 -1 -152 15t-182 45l-47 14v218q183 -101 381 -111v484l-82 37q-88 48 -144 94.5t-87.5 93t-43.5 98t-12 120.5q0 77 23 140.5t67 110.5t106.5 76.5t172.5 39.5v162h160v-162q154 -8 294 -63v-201q-192 91 -294 91v-458l55 -30q318 -180 318 -410
q0 -74 -26.5 -143t-73 -123.5t-109 -91.5t-164.5 -47v-163h-160zM609 197q169 36 169 179q0 118 -169 208v-387zM510 932v366q-164 -29 -164 -165q0 -131 164 -201z" />
    <glyph glyph-name="percent" unicode="%" horiz-adv-x="1821" 
d="M228 -37l1164 1554h200l-1163 -1554h-201zM431 740q-161 0 -254 99.5t-93 270.5q0 173 93.5 271.5t257.5 98.5t258 -98.5t94 -270.5q0 -174 -94 -272.5t-262 -98.5zM433 888q132 0 132 223q0 221 -130 221q-129 0 -129 -222t127 -222zM1381 0q-162 0 -254.5 100
t-92.5 275q0 169 94.5 267t256.5 98q164 0 258 -98.5t94 -270.5q0 -175 -94 -273t-262 -98zM1383 148q132 0 132 223q0 221 -130 221q-129 0 -129 -222t127 -222z" />
    <glyph glyph-name="ampersand" unicode="&#x26;" horiz-adv-x="1479" 
d="M1394 0h-348l-66 79q-174 -116 -385 -116q-240 0 -395 134t-155 340q0 306 370 458q-107 186 -107 304q0 135 118 227t291 92q166 0 274.5 -88.5t108.5 -225.5q0 -213 -327 -365q128 -236 300 -444q81 146 81 283v25h249q0 -205 -216 -457q98 -128 207 -246zM515 742
q-183 -82 -183 -251q0 -141 91.5 -239t224.5 -98q115 0 214 70q-165 210 -311 457zM680 977q173 92 173 221q0 134 -132 134t-132 -129q0 -87 91 -226z" />
    <glyph glyph-name="quotesingle" unicode="'" horiz-adv-x="487" 
d="M145 952l-62 627h321l-74 -627h-185z" />
    <glyph glyph-name="parenleft" unicode="(" horiz-adv-x="682" 
d="M621 1591v-191q-266 -268 -266 -759q0 -489 266 -758v-191q-243 131 -390 391.5t-147 558.5q0 299 144.5 555t392.5 394z" />
    <glyph glyph-name="parenright" unicode=")" horiz-adv-x="682" 
d="M61 -308v191q265 269 265 756q0 493 -265 761v191q243 -131 390 -390.5t147 -559.5q0 -298 -145 -554.5t-392 -394.5z" />
    <glyph glyph-name="asterisk" unicode="*" horiz-adv-x="1143" 
d="M653 830l314 193l89 -265l-365 -47q2 15 2 25q0 52 -40 94zM684 688l274 -243l-227 -166l-148 335q68 15 101 74zM559 615l-148 -335l-227 164l273 244q33 -59 102 -73zM449 711l-362 46l86 266l315 -192q-40 -44 -40 -95q1 -10 1 -25zM431 1202h279l-76 -358
q-33 16 -64 16q-32 0 -62 -16z" />
    <glyph glyph-name="plus" unicode="+" horiz-adv-x="1196" 
d="M500 99v396h-396v195h396v396h195v-396h396v-195h-396v-396h-195z" />
    <glyph glyph-name="comma" unicode="," horiz-adv-x="569" 
d="M247 0h-123v321h321v-249q0 -422 -321 -422v111q123 0 123 207v32z" />
    <glyph glyph-name="hyphen" unicode="-" horiz-adv-x="1196" 
d="M1092 690v-195h-988v195h988z" />
    <glyph glyph-name="period" unicode="." horiz-adv-x="569" 
d="M124 0v321h321v-321h-321z" />
    <glyph glyph-name="slash" unicode="/" horiz-adv-x="569" 
d="M0 -123l369 1529h200l-369 -1529h-200z" />
    <glyph glyph-name="zero" unicode="0" 
d="M570 -37q-223 0 -356.5 214t-133.5 564q0 352 134 564t356 212q221 0 355.5 -211.5t134.5 -564.5q0 -355 -134 -566.5t-356 -211.5zM570 148q210 0 210 593q0 80 -4 149l-400 -433q42 -309 194 -309zM570 1332q-210 0 -210 -591q0 -80 3 -149l400 433q-42 307 -193 307z
" />
    <glyph glyph-name="one" unicode="1" 
d="M182 0v173h296v1092l-296 -74v178l592 148v-1344h296v-173h-888z" />
    <glyph glyph-name="two" unicode="2" 
d="M77 0v234q81 143 199 264l102 105l118 120q124 127 161.5 196.5t37.5 175.5q0 231 -220 231q-143 0 -360 -110v217q226 84 409 84q227 0 356.5 -111.5t129.5 -307.5q0 -128 -62.5 -230t-224.5 -241l-99 -83q-192 -163 -212 -310h593v-234h-928z" />
    <glyph glyph-name="three" unicode="3" 
d="M137 11v222q222 -85 328 -85q248 0 248 241q0 167 -86.5 234t-301.5 67h-51v177q224 0 311 56t87 200q0 210 -215 210q-159 0 -300 -84v202q163 66 361 66q217 0 336.5 -93t119.5 -262q0 -260 -327 -368q374 -86 374 -400q0 -194 -147 -312.5t-388 -118.5q-165 0 -349 48
z" />
    <glyph glyph-name="four" unicode="4" 
d="M31 395v222l630 863h271v-863h136v-222h-136v-395h-259v395h-642zM269 617h410v580z" />
    <glyph glyph-name="five" unicode="5" 
d="M144 6v214q75 -36 146.5 -54t150.5 -18q60 0 108 22t82 59.5t52 86.5t18 104q0 82 -24.5 139.5t-74.5 94t-127 53.5t-183 17h-122v756h816v-234h-605v-341h31q126 0 236 -24t191.5 -78.5t129 -143t47.5 -217.5q0 -117 -46 -206.5t-122.5 -150t-175 -91.5t-203.5 -31
q-66 0 -146.5 10t-178.5 33z" />
    <glyph glyph-name="six" unicode="6" 
d="M989 1471v-216q-192 78 -286 78q-161 0 -251 -132t-90 -369l1 -24q123 145 290 145q188 0 298 -124t110 -335q0 -255 -122.5 -393t-351.5 -138q-252 0 -393.5 193.5t-141.5 538.5q0 377 171.5 599.5t462.5 222.5q127 0 303 -46zM789 460q0 311 -192 311q-100 0 -160 -84
t-60 -223q0 -146 58.5 -231t158.5 -85q195 0 195 312z" />
    <glyph glyph-name="seven" unicode="7" 
d="M176 0q20 160 100.5 334t298.5 527l234 379h-696v240h938v-240q-524 -738 -546 -1240h-329z" />
    <glyph glyph-name="eight" unicode="8" 
d="M361 797q-115 95 -154 163.5t-39 178.5q0 176 116 277t319 101q187 0 297.5 -91t110.5 -245q0 -212 -225 -368q167 -108 229.5 -195t62.5 -212q0 -196 -142.5 -319.5t-369.5 -123.5q-221 0 -350.5 108t-129.5 293q0 132 60.5 227t214.5 206zM632 897q123 94 123 247
q0 188 -163 188q-168 0 -168 -163q0 -111 155 -229q18 -14 53 -43zM509 699q-142 -133 -142 -306q0 -248 229 -248q94 0 154 56.5t60 144.5q0 81 -33 127t-160 143z" />
    <glyph glyph-name="nine" unicode="9" 
d="M151 9v217q193 -78 286 -78q162 0 251.5 131.5t89.5 368.5v24q-124 -145 -291 -145q-188 0 -298 124t-110 336q0 255 123 392.5t351 137.5q252 0 393.5 -193.5t141.5 -537.5q0 -377 -171.5 -600t-461.5 -223q-128 0 -304 46zM351 1021q0 -312 192 -312q100 0 160.5 84.5
t60.5 223.5q0 145 -59 230.5t-159 85.5q-195 0 -195 -312z" />
    <glyph glyph-name="colon" unicode=":" horiz-adv-x="682" 
d="M214 802v321h321v-321h-321zM214 0v321h321v-321h-321z" />
    <glyph glyph-name="semicolon" unicode=";" horiz-adv-x="682" 
d="M214 802v321h321v-321h-321zM337 0h-123v321h321v-249q0 -422 -321 -422v111q123 0 123 207v32z" />
    <glyph glyph-name="less" unicode="&#x3c;" horiz-adv-x="1196" 
d="M1091 99l-987 493l987 494v-218l-549 -275v-2l549 -274v-218z" />
    <glyph glyph-name="equal" unicode="=" horiz-adv-x="1196" 
d="M104 269v212h987v-212h-987zM104 703v195h987v-195h-987z" />
    <glyph glyph-name="greater" unicode="&#x3e;" horiz-adv-x="1196" 
d="M105 317l549 274v2l-549 275v218l987 -494l-987 -493v218z" />
    <glyph glyph-name="question" unicode="?" horiz-adv-x="1251" 
d="M352 0v247h316v-247h-316zM658 432h-296v18q0 121 43 200.5t157 164.5l100 74q126 102 126 242q0 189 -263 189q-216 0 -385 -83v226q195 54 415 54q564 0 564 -347q0 -105 -49 -169t-196 -152l-83 -50q-81 -48 -107 -106.5t-26 -189.5v-71z" />
    <glyph glyph-name="at" unicode="@" horiz-adv-x="1997" 
d="M1192 45q-175 -82 -349 -82q-285 0 -468.5 173.5t-183.5 441.5q0 372 282 655.5t652 283.5q281 0 469 -178.5t188 -446.5q0 -252 -152.5 -424t-377.5 -172q-163 0 -163 109q0 46 56 230h-21q-79 -150 -190.5 -244.5t-210.5 -94.5q-179 0 -179 231q0 236 161.5 440.5
t349.5 204.5q23 0 65 -6q59 -8 131 -8h134l-111 -558q-10 -52 -10 -97q0 -68 76 -68q119 0 216 138.5t97 309.5q0 214 -152.5 359.5t-376.5 145.5q-316 0 -560 -244.5t-244 -562.5q0 -214 146.5 -351.5t373.5 -137.5q155 0 309 72zM1142 824l38 186q-80 37 -142 37
q-129 0 -222 -140t-93 -334q0 -123 71 -123q54 0 157.5 111.5t190.5 262.5z" />
    <glyph glyph-name="A" unicode="A" horiz-adv-x="1479" 
d="M12 0l574 1480h308l572 -1480h-315l-151 395h-612l-151 -395h-225zM464 592h460l-230 590z" />
    <glyph glyph-name="B" unicode="B" horiz-adv-x="1479" 
d="M173 0v1480h716q456 0 456 -329q0 -267 -355 -378q416 -100 416 -407q0 -177 -121.5 -271.5t-349.5 -94.5h-762zM463 864h286q130 0 206.5 64.5t76.5 173.5q0 101 -61.5 138t-232.5 37h-275v-413zM463 210h279q194 0 267.5 41.5t73.5 150.5q0 114 -98.5 189t-248.5 75
h-273v-456z" />
    <glyph glyph-name="C" unicode="C" horiz-adv-x="1479" 
d="M1406 286v-227q-215 -96 -535 -96q-381 0 -586 201.5t-205 575.5q0 382 207 579.5t606 197.5q259 0 500 -57v-241q-273 95 -473 95q-513 0 -513 -570q0 -568 542 -568q235 0 457 110z" />
    <glyph glyph-name="D" unicode="D" horiz-adv-x="1479" 
d="M173 0v1480h515q344 0 527.5 -182.5t183.5 -526.5q0 -366 -194 -568.5t-544 -202.5h-488zM481 210h109q243 0 362.5 134.5t119.5 408.5q0 245 -120 384.5t-331 139.5h-140v-1067z" />
    <glyph glyph-name="E" unicode="E" horiz-adv-x="1366" 
d="M173 0v1480h1086v-203h-778v-413h667v-198h-667v-456h825v-210h-1133z" />
    <glyph glyph-name="F" unicode="F" horiz-adv-x="1251" 
d="M173 0v1480h1032v-203h-724v-450h613v-204h-613v-623h-308z" />
    <glyph glyph-name="G" unicode="G" horiz-adv-x="1593" 
d="M1445 719v-684q-281 -72 -513 -72q-249 0 -396.5 47t-255.5 161q-200 212 -200 571q0 344 187 553q108 121 256 171.5t390 50.5q290 0 531 -57v-241q-304 95 -527 95q-250 0 -380 -146.5t-130 -428.5q0 -274 139.5 -421t399.5 -147q71 0 191 14v331h-250v203h558z" />
    <glyph glyph-name="H" unicode="H" horiz-adv-x="1479" 
d="M173 0v1480h308v-601h517v601h308v-1480h-308v675h-517v-675h-308z" />
    <glyph glyph-name="I" unicode="I" horiz-adv-x="928" 
d="M100 0v210h210v1060h-210v210h728v-210h-210v-1060h210v-210h-728z" />
    <glyph glyph-name="J" unicode="J" 
d="M0 -252v221q186 -56 355 -56q151 0 208.5 58.5t57.5 212.5v1086h-260v210h568v-1263q0 -269 -134 -391t-429 -122q-174 0 -366 44z" />
    <glyph glyph-name="K" unicode="K" horiz-adv-x="1479" 
d="M173 0v1480h296v-718l616 718h255l-562 -664l686 -816h-385l-610 728v-728h-296z" />
    <glyph glyph-name="L" unicode="L" horiz-adv-x="1251" 
d="M173 0v1480h308v-1270h752v-210h-1060z" />
    <glyph glyph-name="M" unicode="M" horiz-adv-x="1706" 
d="M173 0v1480h408l292 -1041l303 1041h358v-1480h-284v1117l-297 -1018h-248l-290 1033v-1132h-242z" />
    <glyph glyph-name="N" unicode="N" horiz-adv-x="1479" 
d="M173 0v1480h271l615 -1011v1011h247v-1480h-275l-611 1011v-1011h-247z" />
    <glyph glyph-name="O" unicode="O" horiz-adv-x="1593" 
d="M786 -37q-328 0 -517 208.5t-189 568.5q0 365 190.5 571t526.5 206q335 0 525.5 -206t190.5 -568q0 -370 -191 -575t-536 -205zM791 167q190 0 292.5 149.5t102.5 427.5q0 269 -102.5 419.5t-286.5 150.5q-185 0 -287.5 -150.5t-102.5 -423.5q0 -269 102 -421t282 -152z
" />
    <glyph glyph-name="P" unicode="P" horiz-adv-x="1366" 
d="M173 0v1480h602q189 0 282 -23.5t158 -93.5q91 -97 91 -276q0 -507 -617 -507h-214v-580h-302zM475 783h146q370 0 370 274q0 122 -73 171t-238 49h-205v-494z" />
    <glyph glyph-name="Q" unicode="Q" horiz-adv-x="1593" 
d="M1152 34q289 -100 590 -132l-200 -198q-398 105 -648 264q-82 -5 -122 -5q-316 0 -504 211t-188 566q0 365 190.5 571t526.5 206q335 0 525.5 -206t190.5 -569q0 -484 -361 -708zM407 749q0 -279 101.5 -430.5t288.5 -151.5q185 0 287 150.5t102 422.5t-102.5 423
t-286.5 151t-287 -150t-103 -415z" />
    <glyph glyph-name="R" unicode="R" horiz-adv-x="1479" 
d="M173 0v1480h645q451 0 451 -367q0 -293 -287 -422l484 -691h-346l-416 605h-241v-605h-290zM463 808h162q335 0 335 271q0 198 -299 198h-198v-469z" />
    <glyph glyph-name="S" unicode="S" horiz-adv-x="1366" 
d="M102 13v252q284 -99 523 -99q340 0 340 197q0 128 -129 183l-137 52l-163 62q-261 99 -349 189t-88 256q0 412 604 412q254 0 483 -51v-234q-238 82 -461 82q-181 0 -251 -38t-70 -136q0 -62 34 -97t131 -71l114 -44l170 -63q247 -92 341.5 -190t94.5 -264
q0 -232 -172.5 -340.5t-543.5 -108.5q-139 0 -313 27z" />
    <glyph glyph-name="T" unicode="T" horiz-adv-x="1251" 
d="M472 0v1267h-432v213h1172v-213h-432v-1267h-308z" />
    <glyph glyph-name="U" unicode="U" horiz-adv-x="1479" 
d="M160 1480h308v-907q0 -214 70.5 -310t227.5 -96q284 0 284 383v930h268v-909q0 -205 -39 -312.5t-142 -186.5q-141 -109 -378 -109q-252 0 -407 116q-107 80 -149.5 189.5t-42.5 305.5v906z" />
    <glyph glyph-name="V" unicode="V" horiz-adv-x="1366" 
d="M539 0l-514 1480h329l388 -1105l372 1105h228l-495 -1480h-308z" />
    <glyph glyph-name="W" unicode="W" horiz-adv-x="1933" 
d="M405 0l-380 1480h291l281 -1083l280 1083h257l255 -1086l301 1086h219l-411 -1480h-295l-240 1015l-264 -1015h-294z" />
    <glyph glyph-name="X" unicode="X" horiz-adv-x="1366" 
d="M49 0l474 729l-453 751h359l301 -498l326 498h249l-454 -698l470 -782h-358l-321 529l-344 -529h-249z" />
    <glyph glyph-name="Y" unicode="Y" horiz-adv-x="1366" 
d="M519 0v620l-491 860h341l354 -625l372 625h244l-512 -858v-622h-308z" />
    <glyph glyph-name="Z" unicode="Z" horiz-adv-x="1251" 
d="M94 0v210l706 1067h-663v203h1021v-203l-706 -1067h706v-210h-1064z" />
    <glyph glyph-name="bracketleft" unicode="[" horiz-adv-x="682" 
d="M159 -296v1875h463v-173h-216v-1529h216v-173h-463z" />
    <glyph glyph-name="backslash" unicode="\" horiz-adv-x="569" 
d="M369 -123l-369 1603h200l369 -1603h-200z" />
    <glyph glyph-name="bracketright" unicode="]" horiz-adv-x="682" 
d="M523 -296h-463v173h216v1529h-216v173h463v-1875z" />
    <glyph glyph-name="asciicircum" unicode="^" horiz-adv-x="1196" 
d="M104 703l494 777l494 -777h-207l-286 452h-2l-286 -452h-207z" />
    <glyph glyph-name="underscore" unicode="_" 
d="M0 -173v173h1139v-173h-1139z" />
    <glyph glyph-name="grave" unicode="`" horiz-adv-x="682" 
d="M597 1283h-201l-321 321h281z" />
    <glyph glyph-name="a" unicode="a" 
d="M1076 169l7 -166q-94 -28 -165 -28q-183 0 -235 143h-13q-107 -143 -276 -143q-146 0 -235.5 88.5t-89.5 232.5q0 374 522 374h79v100q0 171 -172 171q-155 0 -332 -98v204q181 76 380 76q408 0 408 -343v-486q0 -129 82 -129q16 0 40 4zM670 277v223h-70
q-247 0 -247 -178q0 -63 41.5 -104.5t105.5 -41.5q102 0 170 101z" />
    <glyph glyph-name="b" unicode="b" horiz-adv-x="1251" 
d="M444 0h-296v1579h296v-663q157 207 345 207q172 0 277.5 -149.5t105.5 -394.5q0 -284 -136.5 -444t-379.5 -160q-81 0 -212 25zM444 176q112 -19 167 -19q246 0 246 381q0 353 -179 353q-120 0 -234 -175v-540z" />
    <glyph glyph-name="c" unicode="c" 
d="M1056 229v-205q-212 -49 -375 -49q-290 0 -448.5 150.5t-158.5 424.5q0 573 629 573q174 0 344 -43v-214q-209 59 -323 59q-335 0 -335 -374q0 -178 96.5 -279t266.5 -101q120 0 304 58z" />
    <glyph glyph-name="d" unicode="d" horiz-adv-x="1251" 
d="M807 182q-156 -207 -344 -207q-172 0 -277.5 149.5t-105.5 394.5q0 284 136.5 444t379.5 160q81 0 211 -25v481h296v-1579h-296v182zM807 922q-111 19 -166 19q-246 0 -246 -381q0 -353 179 -353q120 0 233 175v540z" />
    <glyph glyph-name="e" unicode="e" 
d="M1031 245v-208q-183 -62 -367 -62q-275 0 -432.5 157.5t-157.5 431.5q0 254 137.5 406.5t365.5 152.5q236 0 345 -151.5t109 -481.5h-645q31 -314 329 -314q141 0 316 69zM383 657h357q0 281 -159 281q-168 0 -198 -281z" />
    <glyph glyph-name="f" unicode="f" horiz-adv-x="682" 
d="M166 0v913h-114v185h114v79q0 427 390 427q84 0 180 -26v-192q-82 33 -147 33q-127 0 -127 -231v-90h185v-185h-185v-913h-296z" />
    <glyph glyph-name="g" unicode="g" horiz-adv-x="1251" 
d="M807 922q-111 19 -166 19q-246 0 -246 -370q0 -340 179 -340q120 0 233 176v515zM807 207q-156 -207 -344 -207q-170 0 -276.5 148t-106.5 384q0 274 138 432.5t378 158.5q81 0 211 -25h296v-838q0 -251 -30 -362t-119 -189q-148 -129 -416 -129q-193 0 -414 79v218
q217 -87 374 -87q163 0 236 70t73 227v120z" />
    <glyph glyph-name="h" unicode="h" horiz-adv-x="1251" 
d="M148 0v1579h296v-663q169 207 373 207q299 0 299 -347v-776h-296v703q0 107 -25.5 147t-93.5 40q-120 0 -257 -174v-716h-296z" />
    <glyph glyph-name="i" unicode="i" horiz-adv-x="592" 
d="M148 0v1098h296v-1098h-296zM138 1298v281h316v-281h-316z" />
    <glyph glyph-name="j" unicode="j" horiz-adv-x="589" 
d="M-144 -379v198q105 -53 156 -53q78 0 107 50t29 184v1098h296v-1079q0 -438 -390 -438q-87 0 -198 40zM138 1298v281h316v-281h-316z" />
    <glyph glyph-name="k" unicode="k" 
d="M148 0v1579h296v-993h19l345 512h245l-320 -477l397 -621h-316l-351 549h-19v-549h-296z" />
    <glyph glyph-name="l" unicode="l" horiz-adv-x="611" 
d="M591 182v-182q-67 -25 -143 -25q-313 0 -313 360v1244h296v-1205q0 -124 21 -162.5t87 -38.5q27 0 52 9z" />
    <glyph glyph-name="m" unicode="m" horiz-adv-x="1821" 
d="M148 0v1098h296v-182q134 207 337 207q219 0 284 -210q122 210 337 210q283 0 283 -347v-776h-296v703q0 110 -20.5 148.5t-80.5 38.5q-127 0 -223 -174v-716h-296v703q0 110 -21 148.5t-80 38.5q-127 0 -224 -174v-716h-296z" />
    <glyph glyph-name="n" unicode="n" horiz-adv-x="1251" 
d="M148 0v1098h296v-182q169 207 373 207q299 0 299 -347v-776h-296v703q0 107 -25.5 147t-93.5 40q-120 0 -257 -174v-716h-296z" />
    <glyph glyph-name="o" unicode="o" horiz-adv-x="1251" 
d="M619 -25q-246 0 -395.5 157.5t-149.5 416.5q0 262 150 418t401 156t401.5 -156t150.5 -416q0 -265 -150.5 -420.5t-407.5 -155.5zM623 160q112 0 176 104.5t64 286.5q0 177 -64.5 282t-173.5 105t-173 -105t-64 -284q0 -177 64 -283t171 -106z" />
    <glyph glyph-name="p" unicode="p" horiz-adv-x="1251" 
d="M444 -395h-296v1493h296v-182q157 207 345 207q172 0 277.5 -149.5t105.5 -394.5q0 -284 -136.5 -444t-379.5 -160q-81 0 -212 25v-395zM444 176q112 -19 167 -19q246 0 246 381q0 353 -179 353q-120 0 -234 -175v-540z" />
    <glyph glyph-name="q" unicode="q" horiz-adv-x="1251" 
d="M807 182q-156 -207 -344 -207q-172 0 -277.5 149.5t-105.5 394.5q0 284 136.5 444t379.5 160q81 0 211 -25h296v-1493h-296v577zM807 922q-111 19 -166 19q-246 0 -246 -381q0 -353 179 -353q120 0 233 175v540z" />
    <glyph glyph-name="r" unicode="r" horiz-adv-x="797" 
d="M173 0v1098h296v-182q83 207 246 207q23 0 50 -6v-264q-56 23 -94 23q-119 0 -202 -154v-722h-296z" />
    <glyph glyph-name="s" unicode="s" 
d="M123 36v216q230 -92 387 -92q221 0 221 120q0 73 -175 144l-100 40q-205 83 -266.5 144t-61.5 183q0 332 463 332q158 0 358 -39v-203q-220 57 -322 57q-207 0 -207 -112q0 -68 161 -129l86 -33q220 -83 294.5 -153.5t74.5 -194.5q0 -156 -137.5 -248.5t-369.5 -92.5
q-204 0 -406 61z" />
    <glyph glyph-name="t" unicode="t" horiz-adv-x="682" 
d="M665 186v-185q-114 -26 -190 -26q-313 0 -313 360v578h-120v185h120v215l296 34v-249h210v-185h-210v-539q0 -124 21 -162.5t87 -38.5q40 0 99 13z" />
    <glyph glyph-name="u" unicode="u" horiz-adv-x="1251" 
d="M808 0v182q-169 -207 -374 -207q-298 0 -298 347v776h296v-703q0 -107 25 -147t94 -40q119 0 257 174v716h296v-1098h-296z" />
    <glyph glyph-name="v" unicode="v" 
d="M419 0l-394 1098h312l277 -773l279 773h220l-398 -1098h-296z" />
    <glyph glyph-name="w" unicode="w" horiz-adv-x="1593" 
d="M328 0l-266 1098h267l185 -769l193 769h256l170 -773l200 773h199l-286 -1098h-283l-164 753l-187 -753h-284z" />
    <glyph glyph-name="x" unicode="x" 
d="M48 0l358 551l-342 547h337l217 -348l207 348h240l-325 -540l350 -558h-337l-227 363l-233 -363h-245z" />
    <glyph glyph-name="y" unicode="y" 
d="M419 0l-394 1098h312l254 -710l302 710h220l-640 -1493h-302z" />
    <glyph glyph-name="z" unicode="z" horiz-adv-x="1024" 
d="M111 0v197l471 716h-443v185h774v-185l-471 -716h483v-197h-814z" />
    <glyph glyph-name="braceleft" unicode="{" horiz-adv-x="797" 
d="M99 740h62q138 0 138 131q0 69 -19 142l-23 92q-22 88 -22 171q0 303 438 303v-173q-190 0 -190 -128q0 -29 10 -90l15 -86q11 -68 11 -141q0 -204 -197 -319q197 -116 197 -320q0 -73 -11 -142l-15 -85q-10 -61 -10 -90q0 -128 190 -128v-173q-438 0 -438 303
q0 83 22 171l23 92q19 73 19 143q0 130 -138 130h-62v197z" />
    <glyph glyph-name="bar" unicode="|" horiz-adv-x="573" 
d="M177 -296v1875h220v-1875h-220z" />
    <glyph glyph-name="braceright" unicode="}" horiz-adv-x="797" 
d="M697 543h-62q-138 0 -138 -131q0 -69 19 -142l23 -92q22 -88 22 -171q0 -303 -438 -303v173q190 0 190 128q0 29 -10 90l-14 86q-12 68 -12 141q0 204 197 320q-197 115 -197 319q0 73 12 142l14 85q10 62 10 90q0 128 -190 128v173q438 0 438 -303q0 -83 -22 -171
l-23 -92q-19 -73 -19 -143q0 -130 138 -130h62v-197z" />
    <glyph glyph-name="asciitilde" unicode="~" horiz-adv-x="1196" 
d="M193 444h-113q0 347 293 347q118 0 225 -78l81 -59q91 -67 181 -67q144 0 144 144l-1 9h113q0 -346 -293 -346q-118 0 -225 77l-81 59q-91 67 -181 67q-143 0 -143 -144v-9z" />
    <glyph glyph-name="nonbreakingspace" unicode="&#xa0;" horiz-adv-x="569" 
 />
    <glyph glyph-name="exclamdown" unicode="&#xa1;" horiz-adv-x="682" 
d="M479 1098v-256h-296v256h296zM430 679l49 -765v-296h-296v296l49 765h198z" />
    <glyph glyph-name="cent" unicode="&#xa2;" 
d="M643 0v176q-232 14 -363.5 167t-131.5 410q0 258 127 405t368 169v153h148v-155q119 -8 232 -40v-216q-126 58 -232 65v-760q117 8 232 55v-201q-114 -39 -232 -48v-180h-148zM643 391v740q-211 -66 -211 -364t211 -376z" />
    <glyph glyph-name="sterling" unicode="&#xa3;" 
d="M102 0v234q197 46 197 282v181h-163v185h163v170q0 465 449 465q121 0 267 -23v-203q-119 41 -231 41q-189 0 -189 -214v-236h195v-185h-195q0 -197 -41 -285t-175 -178h636v-234h-913z" />
    <glyph glyph-name="currency" unicode="&#xa4;" 
d="M815 1109l199 198l122 -122l-199 -198q76 -119 76 -247t-76 -246l198 -199l-122 -122l-198 198v0q-120 -75 -246 -75q-127 0 -247 75v0l-198 -198l-122 122l198 199q-75 118 -75 246q0 129 75 247l-198 198l122 122l198 -198q120 75 247 75q126 0 246 -75zM571 962
q-94 0 -159.5 -65t-65.5 -158q0 -91 65.5 -156t157.5 -65q91 0 156.5 65t65.5 157q0 91 -65 156.5t-155 65.5z" />
    <glyph glyph-name="yen" unicode="&#xa5;" 
d="M422 0v302h-247v148h247v148h-247v148h247l-422 734h343l286 -499l286 499h224l-421 -734h247v-148h-247v-148h247v-148h-247v-302h-296z" />
    <glyph glyph-name="brokenbar" unicode="&#xa6;" horiz-adv-x="573" 
d="M177 -296v740h220v-740h-220zM177 839v740h220v-740h-220z" />
    <glyph glyph-name="section" unicode="&#xa7;" 
d="M150 -278v219q227 -89 376 -89q225 0 225 140q0 85 -164 164l-138 66q-164 79 -233 163.5t-69 206.5q0 155 135 304q-141 101 -141 257q0 164 122 264.5t322 100.5q167 0 351 -41v-205q-178 60 -326 60q-222 0 -222 -136q0 -84 143 -149l121 -55q185 -84 258 -169.5
t73 -217.5q0 -150 -130 -307q145 -104 145 -276q0 -356 -499 -356q-147 0 -349 56zM729 375q52 79 52 146q0 65 -37 106t-144 94l-194 97q-52 -73 -52 -140q0 -118 188 -210z" />
    <glyph glyph-name="dieresis" unicode="&#xa8;" horiz-adv-x="682" 
d="M20 1283v222h222v-222h-222zM439 1283v222h223v-222h-223z" />
    <glyph glyph-name="copyright" unicode="&#xa9;" horiz-adv-x="1509" 
d="M743 0q-299 0 -515 218.5t-216 521.5q0 307 217 523.5t523 216.5t523 -216.5t217 -521.5q0 -311 -218 -526.5t-531 -215.5zM744 123q261 0 443 180t182 438q0 254 -181.5 435t-435.5 181q-255 0 -436 -181t-181 -436q0 -252 180 -434.5t429 -182.5zM1055 360
q-142 -42 -265 -42q-197 0 -317 117.5t-120 308.5t116 304t312 113q128 0 274 -35v-127q-138 56 -255 56q-120 0 -195.5 -87t-75.5 -226q0 -137 82.5 -221.5t216.5 -84.5q133 0 227 50v-126z" />
    <glyph glyph-name="ordfeminine" unicode="&#xaa;" horiz-adv-x="758" 
d="M430 900q-76 -77 -173 -77q-91 0 -149.5 56t-58.5 143q0 230 344 230h48v47q0 94 -118 94q-112 0 -215 -60v141q120 43 248 43q294 0 294 -207v-290q0 -59 40 -59q11 0 24 3v-126q-63 -15 -111 -15q-119 0 -160 77h-13zM441 1019v113h-46q-137 0 -137 -93q0 -77 75 -77
q55 0 108 57z" />
    <glyph glyph-name="guillemotleft" unicode="&#xab;" 
d="M1077 888l-263 -339l263 -339l-139 -105l-417 444l417 444zM620 885l-262 -336l262 -339l-139 -105l-416 444l416 444z" />
    <glyph glyph-name="logicalnot" unicode="&#xac;" horiz-adv-x="1196" 
d="M104 716v172h987v-592h-173v420h-814z" />
    <glyph glyph-name="sfthyphen" unicode="&#xad;" horiz-adv-x="682" 
d="M74 543v185h534v-185h-534z" />
    <glyph glyph-name="registered" unicode="&#xae;" horiz-adv-x="1509" 
d="M745 0q-299 0 -515 218.5t-216 521.5q0 307 217 523.5t523 216.5t523 -216.5t217 -521.5q0 -311 -218 -526.5t-531 -215.5zM746 123q261 0 443 180t182 438q0 254 -181.5 435t-435.5 181q-255 0 -436 -181t-181 -436q0 -252 180 -434.5t429 -182.5zM477 342v802h349
q241 0 241 -199q0 -159 -152 -229l226 -374h-187l-189 327h-131v-327h-157zM634 780h88q182 0 182 147q0 107 -163 107h-107v-254z" />
    <glyph glyph-name="macron" unicode="&#xaf;" 
d="M78 1443v161h983v-161h-983z" />
    <glyph glyph-name="degree" unicode="&#xb0;" horiz-adv-x="819" 
d="M407 1012q-120 0 -206.5 87.5t-86.5 208.5q0 122 87 209t209 87t209 -87t87 -209q0 -124 -87 -210t-212 -86zM408 1160q63 0 106.5 43t43.5 105q0 61 -43.5 104.5t-104.5 43.5t-104.5 -43.5t-43.5 -104.5t43.5 -104.5t102.5 -43.5z" />
    <glyph glyph-name="plusminus" unicode="&#xb1;" horiz-adv-x="1196" 
d="M104 0v173h987v-173h-987zM511 296v358h-407v173h407v357h173v-357h407v-173h-407v-358h-173z" />
    <glyph glyph-name="twosuperior" unicode="&#xb2;" horiz-adv-x="682" 
d="M38 607v169q57 64 101 104l75 69q136 124 176 181.5t40 130.5q0 122 -152 122q-100 0 -234 -62v150q149 46 292 46q149 0 239.5 -67.5t90.5 -178.5q0 -77 -38.5 -134.5t-153.5 -152.5l-67 -55q-119 -97 -137 -153h398v-169h-630z" />
    <glyph glyph-name="threesuperior" unicode="&#xb3;" horiz-adv-x="682" 
d="M37 614v150q135 -52 235 -52q162 0 162 128q0 168 -255 168h-60v127h45q243 0 243 146q0 109 -138 109q-108 0 -220 -51v135q145 43 267 43q320 0 320 -215q0 -160 -205 -222q232 -53 232 -242q0 -120 -97 -186.5t-270 -66.5q-126 0 -259 29z" />
    <glyph glyph-name="acute" unicode="&#xb4;" horiz-adv-x="682" 
d="M85 1283l241 321h281l-321 -321h-201z" />
    <glyph glyph-name="micro" unicode="&#xb5;" horiz-adv-x="1251" 
d="M148 -395v1493h296v-678q0 -204 137 -204q116 0 233 191v691h296v-770q0 -192 62 -328h-320q-22 76 -38 207q-80 -226 -252 -226q-70 0 -118 31v-407h-296z" />
    <glyph glyph-name="paragraph" unicode="&#xb6;" 
d="M473 -296v1036q-395 53 -395 409q0 178 96 254.5t317 76.5h451v-1776h-161v1641h-148v-1641h-160z" />
    <glyph glyph-name="periodcentered" unicode="&#xb7;" horiz-adv-x="568" 
d="M123 778v320h321v-320h-321z" />
    <glyph glyph-name="cedilla" unicode="&#xb8;" horiz-adv-x="682" 
d="M268 0h136l-76 -113q232 -25 232 -156q0 -69 -72 -116t-177 -47q-82 0 -188 30v91q71 -15 118 -15q121 0 121 60q0 84 -195 84h-20z" />
    <glyph glyph-name="onesuperior" unicode="&#xb9;" horiz-adv-x="682" 
d="M246 607v721l-197 -49v134l419 104v-910h-222z" />
    <glyph glyph-name="ordmasculine" unicode="&#xba;" horiz-adv-x="748" 
d="M377 823q-155 0 -246 93.5t-91 253.5q0 162 91 254.5t250 92.5t250.5 -92.5t91.5 -253.5q0 -163 -91.5 -255.5t-254.5 -92.5zM380 951q121 0 121 221q0 218 -120 218q-119 0 -119 -219q0 -220 118 -220z" />
    <glyph glyph-name="guillemotright" unicode="&#xbb;" 
d="M62 210l262 339l-262 339l139 105l416 -444l-416 -444zM518 213l263 336l-263 339l139 105l417 -444l-417 -444z" />
    <glyph glyph-name="onequarter" unicode="&#xbc;" horiz-adv-x="1708" 
d="M259 615v713l-222 -55v133l444 111v-902h-222zM167 -37l1107 1554h152l-1108 -1554h-151zM1285 0v226h-420v166l413 496h202v-496h92v-166h-92v-226h-195zM1032 392h254v304z" />
    <glyph glyph-name="onehalf" unicode="&#xbd;" horiz-adv-x="1708" 
d="M259 615v713l-222 -55v133l444 111v-902h-222zM130 -37l1107 1554h152l-1108 -1554h-151zM1011 0v169q57 64 100 104l76 69q136 124 176 181.5t40 130.5q0 122 -153 122q-100 0 -233 -62v150q149 46 292 46q148 0 239 -67.5t91 -178.5q0 -77 -38.5 -134.5t-154.5 -152.5
l-67 -55q-118 -97 -136 -153h397v-169h-629z" />
    <glyph glyph-name="threequarters" unicode="&#xbe;" horiz-adv-x="1708" 
d="M99 614v150q135 -52 235 -52q162 0 162 128q0 168 -255 168h-60v127h45q243 0 243 146q0 109 -138 109q-108 0 -220 -51v135q145 43 267 43q320 0 320 -215q0 -160 -205 -222q232 -53 232 -242q0 -120 -97 -186.5t-270 -66.5q-126 0 -259 29zM259 -37l1108 1554h151
l-1107 -1554h-152zM1323 0v226h-420v166l412 496h202v-496h93v-166h-93v-226h-194zM1069 392h255v304z" />
    <glyph glyph-name="questiondown" unicode="&#xbf;" horiz-adv-x="1251" 
d="M899 1098v-247h-316v247h316zM593 666h296v-18q0 -97 -43 -176.5t-157 -164.5l-100 -74q-126 -102 -126 -242q0 -189 263 -189q216 0 385 83v-226q-195 -54 -415 -54q-564 0 -564 347q0 105 49 169t196 152l83 50q81 48 107 106.5t26 189.5v47z" />
    <glyph glyph-name="Agrave" unicode="&#xc0;" horiz-adv-x="1479" 
d="M12 0l574 1480h308l572 -1480h-315l-151 395h-612l-151 -395h-225zM464 592h460l-230 590zM931 1604h-201l-321 321h281z" />
    <glyph glyph-name="Aacute" unicode="&#xc1;" horiz-adv-x="1479" 
d="M12 0l574 1480h308l572 -1480h-315l-151 395h-612l-151 -395h-225zM464 592h460l-230 590zM549 1604l241 321h281l-321 -321h-201z" />
    <glyph glyph-name="Acircumflex" unicode="&#xc2;" horiz-adv-x="1479" 
d="M12 0l574 1480h308l572 -1480h-315l-151 395h-612l-151 -395h-225zM464 592h460l-230 590zM362 1604l241 321h273l241 -321h-179l-197 197h-3l-197 -197h-179z" />
    <glyph glyph-name="Atilde" unicode="&#xc3;" horiz-adv-x="1479" 
d="M12 0l574 1480h308l572 -1480h-315l-151 395h-612l-151 -395h-225zM464 592h460l-230 590zM536 1604h-148q0 321 202 321q64 0 126 -43l38 -26l31 -22q64 -45 91 -45q67 0 67 136h148q0 -321 -201 -321q-64 0 -126 43l-39 26q-23 16 -31 22q-61 45 -90 45q-68 0 -68 -136
z" />
    <glyph glyph-name="Adieresis" unicode="&#xc4;" horiz-adv-x="1479" 
d="M12 0l574 1480h308l572 -1480h-315l-151 395h-612l-151 -395h-225zM464 592h460l-230 590zM419 1604v222h222v-222h-222zM838 1604v222h223v-222h-223z" />
    <glyph glyph-name="Aring" unicode="&#xc5;" horiz-adv-x="1479" 
d="M12 0l574 1480h308l572 -1480h-315l-151 395h-612l-151 -395h-225zM464 592h460l-230 590zM736 1481q-96 0 -163.5 69t-67.5 165q0 98 68 166.5t166 68.5q97 0 165.5 -68.5t68.5 -165.5q0 -99 -68.5 -167t-168.5 -68zM737 1592q53 0 89 36t36 88q0 51 -36 87t-87 36
t-87 -36t-36 -87t35.5 -87.5t85.5 -36.5z" />
    <glyph glyph-name="AE" unicode="&#xc6;" horiz-adv-x="2048" 
d="M12 0l896 1480h1031v-203h-679v-413h568v-204h-568v-450h726v-210h-1022v382h-476l-231 -382h-245zM604 574h360v595z" />
    <glyph glyph-name="Ccedilla" unicode="&#xc7;" horiz-adv-x="1479" 
d="M1406 286v-227q-211 -94 -524 -96l-51 -76q232 -25 232 -156q0 -69 -72 -116t-177 -47q-82 0 -188 30v91q71 -15 118 -15q121 0 121 60q0 84 -195 84h-20l100 151q-294 27 -465 195q-205 202 -205 576q0 382 207 579.5t606 197.5q259 0 500 -57v-241q-273 95 -473 95
q-513 0 -513 -570q0 -568 542 -568q235 0 457 110z" />
    <glyph glyph-name="Egrave" unicode="&#xc8;" horiz-adv-x="1366" 
d="M173 0v1480h1086v-203h-778v-413h667v-198h-667v-456h825v-210h-1133zM895 1604h-201l-321 321h281z" />
    <glyph glyph-name="Eacute" unicode="&#xc9;" horiz-adv-x="1366" 
d="M173 0v1480h1086v-203h-778v-413h667v-198h-667v-456h825v-210h-1133zM555 1604l241 321h281l-321 -321h-201z" />
    <glyph glyph-name="Ecircumflex" unicode="&#xca;" horiz-adv-x="1366" 
d="M173 0v1480h1086v-203h-778v-413h667v-198h-667v-456h825v-210h-1133zM352 1604l241 321h273l241 -321h-179l-197 197h-3l-197 -197h-179z" />
    <glyph glyph-name="Edieresis" unicode="&#xcb;" horiz-adv-x="1366" 
d="M173 0v1480h1086v-203h-778v-413h667v-198h-667v-456h825v-210h-1133zM385 1604v222h222v-222h-222zM824 1604v222h223v-222h-223z" />
    <glyph glyph-name="Igrave" unicode="&#xcc;" horiz-adv-x="928" 
d="M655 1604h-201l-321 321h281zM100 0v210h210v1060h-210v210h728v-210h-210v-1060h210v-210h-728z" />
    <glyph glyph-name="Iacute" unicode="&#xcd;" horiz-adv-x="928" 
d="M273 1604l241 321h281l-321 -321h-201zM100 0v210h210v1060h-210v210h728v-210h-210v-1060h210v-210h-728z" />
    <glyph glyph-name="Icircumflex" unicode="&#xce;" horiz-adv-x="928" 
d="M86 1604l241 321h273l241 -321h-179l-197 197h-3l-197 -197h-179zM100 0v210h210v1060h-210v210h728v-210h-210v-1060h210v-210h-728z" />
    <glyph glyph-name="Idieresis" unicode="&#xcf;" horiz-adv-x="928" 
d="M128 1604v222h222v-222h-222zM567 1604v222h223v-222h-223zM100 0v210h210v1060h-210v210h728v-210h-210v-1060h210v-210h-728z" />
    <glyph glyph-name="Eth" unicode="&#xd0;" horiz-adv-x="1479" 
d="M173 0v657h-173v185h173v638h515q344 0 527.5 -182.5t183.5 -526.5q0 -366 -194 -568.5t-544 -202.5h-488zM481 210h109q243 0 362.5 134.5t119.5 408.5q0 245 -120 384.5t-331 139.5h-140v-435h210v-185h-210v-447z" />
    <glyph glyph-name="Ntilde" unicode="&#xd1;" horiz-adv-x="1479" 
d="M173 0v1480h271l615 -1011v1011h247v-1480h-275l-611 1011v-1011h-247zM554 1604h-148q0 321 202 321q64 0 126 -43l38 -26l31 -22q64 -45 91 -45q67 0 67 136h148q0 -321 -201 -321q-64 0 -126 43l-39 26q-23 16 -31 22q-61 45 -90 45q-68 0 -68 -136z" />
    <glyph glyph-name="Ograve" unicode="&#xd2;" horiz-adv-x="1593" 
d="M786 -37q-328 0 -517 208.5t-189 568.5q0 365 190.5 571t526.5 206q335 0 525.5 -206t190.5 -568q0 -370 -191 -575t-536 -205zM791 167q190 0 292.5 149.5t102.5 427.5q0 269 -102.5 419.5t-286.5 150.5q-185 0 -287.5 -150.5t-102.5 -423.5q0 -269 102 -421t282 -152z
M998 1604h-201l-321 321h281z" />
    <glyph glyph-name="Oacute" unicode="&#xd3;" horiz-adv-x="1593" 
d="M786 -37q-328 0 -517 208.5t-189 568.5q0 365 190.5 571t526.5 206q335 0 525.5 -206t190.5 -568q0 -370 -191 -575t-536 -205zM791 167q190 0 292.5 149.5t102.5 427.5q0 269 -102.5 419.5t-286.5 150.5q-185 0 -287.5 -150.5t-102.5 -423.5q0 -269 102 -421t282 -152z
M595 1604l241 321h281l-321 -321h-201z" />
    <glyph glyph-name="Ocircumflex" unicode="&#xd4;" horiz-adv-x="1593" 
d="M786 -37q-328 0 -517 208.5t-189 568.5q0 365 190.5 571t526.5 206q335 0 525.5 -206t190.5 -568q0 -370 -191 -575t-536 -205zM791 167q190 0 292.5 149.5t102.5 427.5q0 269 -102.5 419.5t-286.5 150.5q-185 0 -287.5 -150.5t-102.5 -423.5q0 -269 102 -421t282 -152z
M419 1604l241 321h273l241 -321h-179l-197 197h-3l-197 -197h-179z" />
    <glyph glyph-name="Otilde" unicode="&#xd5;" horiz-adv-x="1593" 
d="M786 -37q-328 0 -517 208.5t-189 568.5q0 365 190.5 571t526.5 206q335 0 525.5 -206t190.5 -568q0 -370 -191 -575t-536 -205zM791 167q190 0 292.5 149.5t102.5 427.5q0 269 -102.5 419.5t-286.5 150.5q-185 0 -287.5 -150.5t-102.5 -423.5q0 -269 102 -421t282 -152z
M593 1604h-148q0 321 202 321q64 0 126 -43l38 -26l31 -22q64 -45 91 -45q67 0 67 136h148q0 -321 -201 -321q-64 0 -126 43l-39 26q-23 16 -31 22q-61 45 -90 45q-68 0 -68 -136z" />
    <glyph glyph-name="Odieresis" unicode="&#xd6;" horiz-adv-x="1593" 
d="M786 -37q-328 0 -517 208.5t-189 568.5q0 365 190.5 571t526.5 206q335 0 525.5 -206t190.5 -568q0 -370 -191 -575t-536 -205zM791 167q190 0 292.5 149.5t102.5 427.5q0 269 -102.5 419.5t-286.5 150.5q-185 0 -287.5 -150.5t-102.5 -423.5q0 -269 102 -421t282 -152z
M466 1604v222h222v-222h-222zM905 1604v222h223v-222h-223z" />
    <glyph glyph-name="multiply" unicode="&#xd7;" horiz-adv-x="1196" 
d="M99 216l376 376l-376 377l122 122l376 -376l377 376l122 -122l-377 -377l377 -376l-122 -122l-377 376l-376 -376z" />
    <glyph glyph-name="Oslash" unicode="&#xd8;" horiz-adv-x="1593" 
d="M1062 1190q-97 124 -266 124q-184 0 -286.5 -150.5t-102.5 -422.5q0 -165 48 -309zM531 290q98 -123 265 -123q185 0 287.5 150t102.5 421q0 165 -48 311zM80 -37l178 223q-178 226 -178 554q0 366 190.5 571.5t529.5 205.5q263 0 428 -119l95 119h190l-178 -223
q178 -223 178 -554q0 -366 -191 -571.5t-529 -205.5q-262 0 -428 120l-95 -120h-190z" />
    <glyph glyph-name="Ugrave" unicode="&#xd9;" horiz-adv-x="1479" 
d="M160 1480h308v-907q0 -214 70.5 -310t227.5 -96q284 0 284 383v930h268v-909q0 -205 -39 -312.5t-142 -186.5q-141 -109 -378 -109q-252 0 -407 116q-107 80 -149.5 189.5t-42.5 305.5v906zM950 1604h-201l-321 321h281z" />
    <glyph glyph-name="Uacute" unicode="&#xda;" horiz-adv-x="1479" 
d="M160 1480h308v-907q0 -214 70.5 -310t227.5 -96q284 0 284 383v930h268v-909q0 -205 -39 -312.5t-142 -186.5q-141 -109 -378 -109q-252 0 -407 116q-107 80 -149.5 189.5t-42.5 305.5v906zM568 1604l241 321h281l-321 -321h-201z" />
    <glyph glyph-name="Ucircumflex" unicode="&#xdb;" horiz-adv-x="1479" 
d="M160 1480h308v-907q0 -214 70.5 -310t227.5 -96q284 0 284 383v930h268v-909q0 -205 -39 -312.5t-142 -186.5q-141 -109 -378 -109q-252 0 -407 116q-107 80 -149.5 189.5t-42.5 305.5v906zM382 1604l241 321h273l241 -321h-179l-197 197h-3l-197 -197h-179z" />
    <glyph glyph-name="Udieresis" unicode="&#xdc;" horiz-adv-x="1479" 
d="M160 1480h308v-907q0 -214 70.5 -310t227.5 -96q284 0 284 383v930h268v-909q0 -205 -39 -312.5t-142 -186.5q-141 -109 -378 -109q-252 0 -407 116q-107 80 -149.5 189.5t-42.5 305.5v906zM429 1604v222h222v-222h-222zM868 1604v222h223v-222h-223z" />
    <glyph glyph-name="Yacute" unicode="&#xdd;" horiz-adv-x="1366" 
d="M519 0v620l-491 860h341l354 -625l372 625h244l-512 -858v-622h-308zM541 1604l241 321h281l-321 -321h-201z" />
    <glyph glyph-name="Thorn" unicode="&#xde;" horiz-adv-x="1366" 
d="M173 0v1480h302v-283h292q208 0 301 -24t158 -93q91 -98 91 -277q0 -507 -636 -507h-206v-296h-302zM475 500h138q389 0 389 273q0 123 -73 171.5t-257 48.5h-197v-493z" />
    <glyph glyph-name="germandbls" unicode="&#xdf;" horiz-adv-x="1251" 
d="M148 0v1131q0 473 446 473q195 0 308.5 -70.5t113.5 -190.5q0 -97 -65 -188l-61 -86q-70 -98 -70 -140q0 -44 99 -163l85 -101q173 -207 173 -357q0 -152 -105.5 -242.5t-282.5 -90.5q-96 0 -221 32v193q122 -40 192 -40q140 0 140 126q0 60 -85 161l-98 116l-78 91
q-61 77 -61 176q0 71 39 142l47 81l49 87q43 74 43 144q0 138 -156 138t-156 -213v-1209h-296z" />
    <glyph glyph-name="agrave" unicode="&#xe0;" 
d="M1076 169l7 -166q-94 -28 -165 -28q-183 0 -235 143h-13q-107 -143 -276 -143q-146 0 -235.5 88.5t-89.5 232.5q0 374 522 374h79v100q0 171 -172 171q-155 0 -332 -98v204q181 76 380 76q408 0 408 -343v-486q0 -129 82 -129q16 0 40 4zM670 277v223h-70
q-247 0 -247 -178q0 -63 41.5 -104.5t105.5 -41.5q102 0 170 101zM755 1283h-201l-321 321h281z" />
    <glyph glyph-name="aacute" unicode="&#xe1;" 
d="M1076 169l7 -166q-94 -28 -165 -28q-183 0 -235 143h-13q-107 -143 -276 -143q-146 0 -235.5 88.5t-89.5 232.5q0 374 522 374h79v100q0 171 -172 171q-155 0 -332 -98v204q181 76 380 76q408 0 408 -343v-486q0 -129 82 -129q16 0 40 4zM670 277v223h-70
q-247 0 -247 -178q0 -63 41.5 -104.5t105.5 -41.5q102 0 170 101zM372 1283l241 321h281l-321 -321h-201z" />
    <glyph glyph-name="acircumflex" unicode="&#xe2;" 
d="M1076 169l7 -166q-94 -28 -165 -28q-183 0 -235 143h-13q-107 -143 -276 -143q-146 0 -235.5 88.5t-89.5 232.5q0 374 522 374h79v100q0 171 -172 171q-155 0 -332 -98v204q181 76 380 76q408 0 408 -343v-486q0 -129 82 -129q16 0 40 4zM670 277v223h-70
q-247 0 -247 -178q0 -63 41.5 -104.5t105.5 -41.5q102 0 170 101zM186 1283l241 321h273l241 -321h-179l-197 197h-3l-197 -197h-179z" />
    <glyph glyph-name="atilde" unicode="&#xe3;" 
d="M1076 169l7 -166q-94 -28 -165 -28q-183 0 -235 143h-13q-107 -143 -276 -143q-146 0 -235.5 88.5t-89.5 232.5q0 374 522 374h79v100q0 171 -172 171q-155 0 -332 -98v204q181 76 380 76q408 0 408 -343v-486q0 -129 82 -129q16 0 40 4zM670 277v223h-70
q-247 0 -247 -178q0 -63 41.5 -104.5t105.5 -41.5q102 0 170 101zM360 1283h-148q0 321 202 321q64 0 126 -43l38 -26l31 -22q64 -45 91 -45q67 0 67 136h148q0 -321 -201 -321q-64 0 -126 43l-39 26q-23 16 -31 22q-61 45 -90 45q-68 0 -68 -136z" />
    <glyph glyph-name="adieresis" unicode="&#xe4;" 
d="M1076 169l7 -166q-94 -28 -165 -28q-183 0 -235 143h-13q-107 -143 -276 -143q-146 0 -235.5 88.5t-89.5 232.5q0 374 522 374h79v100q0 171 -172 171q-155 0 -332 -98v204q181 76 380 76q408 0 408 -343v-486q0 -129 82 -129q16 0 40 4zM670 277v223h-70
q-247 0 -247 -178q0 -63 41.5 -104.5t105.5 -41.5q102 0 170 101zM243 1283v222h222v-222h-222zM662 1283v222h223v-222h-223z" />
    <glyph glyph-name="aring" unicode="&#xe5;" 
d="M1076 169l7 -166q-94 -28 -165 -28q-183 0 -235 143h-13q-107 -143 -276 -143q-146 0 -235.5 88.5t-89.5 232.5q0 374 522 374h79v100q0 171 -172 171q-155 0 -332 -98v204q181 76 380 76q408 0 408 -343v-486q0 -129 82 -129q16 0 40 4zM670 277v223h-70
q-247 0 -247 -178q0 -63 41.5 -104.5t105.5 -41.5q102 0 170 101zM549 1283q-96 0 -163.5 69t-67.5 165q0 98 68 166.5t166 68.5q97 0 165.5 -68.5t68.5 -165.5q0 -99 -68.5 -167t-168.5 -68zM550 1394q53 0 89 36t36 88q0 51 -36 87t-87 36t-87 -36t-36 -87t35.5 -87.5
t85.5 -36.5z" />
    <glyph glyph-name="ae" unicode="&#xe6;" horiz-adv-x="1821" 
d="M804 192q-156 -217 -397 -217q-152 0 -245 87t-93 229q0 181 148.5 278t426.5 97h84v104q0 171 -202 171q-178 0 -359 -98v204q208 76 401 76q176 0 341 -121q154 121 338 121q239 0 352 -154t113 -479h-697q32 -314 353 -314q153 0 344 69v-208q-214 -62 -428 -62
q-308 0 -480 217zM728 277v223h-75q-300 0 -300 -179q0 -63 44.5 -104t111.5 -41q107 0 219 101zM1012 657h409q0 284 -189 284q-191 0 -220 -284z" />
    <glyph glyph-name="ccedilla" unicode="&#xe7;" 
d="M1056 229v-205q-206 -47 -366 -49l-59 -88q232 -25 232 -156q0 -69 -72 -116t-177 -47q-82 0 -188 30v91q71 -15 118 -15q121 0 121 60q0 84 -195 84h-20l109 164q-203 26 -327 143q-158 151 -158 425q0 573 629 573q174 0 344 -43v-214q-209 59 -323 59
q-335 0 -335 -374q0 -178 96.5 -279t266.5 -101q120 0 304 58z" />
    <glyph glyph-name="egrave" unicode="&#xe8;" 
d="M1031 245v-208q-183 -62 -367 -62q-275 0 -432.5 157.5t-157.5 431.5q0 254 137.5 406.5t365.5 152.5q236 0 345 -151.5t109 -481.5h-645q31 -314 329 -314q141 0 316 69zM383 657h357q0 281 -159 281q-168 0 -198 -281zM778 1283h-201l-321 321h281z" />
    <glyph glyph-name="eacute" unicode="&#xe9;" 
d="M1031 245v-208q-183 -62 -367 -62q-275 0 -432.5 157.5t-157.5 431.5q0 254 137.5 406.5t365.5 152.5q236 0 345 -151.5t109 -481.5h-645q31 -314 329 -314q141 0 316 69zM383 657h357q0 281 -159 281q-168 0 -198 -281zM385 1283l241 321h281l-321 -321h-201z" />
    <glyph glyph-name="ecircumflex" unicode="&#xea;" 
d="M1031 245v-208q-183 -62 -367 -62q-275 0 -432.5 157.5t-157.5 431.5q0 254 137.5 406.5t365.5 152.5q236 0 345 -151.5t109 -481.5h-645q31 -314 329 -314q141 0 316 69zM383 657h357q0 281 -159 281q-168 0 -198 -281zM209 1283l241 321h273l241 -321h-179l-197 197h-3
l-197 -197h-179z" />
    <glyph glyph-name="edieresis" unicode="&#xeb;" 
d="M1031 245v-208q-183 -62 -367 -62q-275 0 -432.5 157.5t-157.5 431.5q0 254 137.5 406.5t365.5 152.5q236 0 345 -151.5t109 -481.5h-645q31 -314 329 -314q141 0 316 69zM383 657h357q0 281 -159 281q-168 0 -198 -281zM265 1283v222h222v-222h-222zM684 1283v222h223
v-222h-223z" />
    <glyph glyph-name="igrave" unicode="&#xec;" horiz-adv-x="592" 
d="M148 0v1098h296v-1098h-296zM522 1283h-201l-321 321h281z" />
    <glyph glyph-name="iacute" unicode="&#xed;" horiz-adv-x="592" 
d="M148 0v1098h296v-1098h-296zM70 1283l241 321h281l-321 -321h-201z" />
    <glyph glyph-name="icircumflex" unicode="&#xee;" horiz-adv-x="592" 
d="M148 0v1098h296v-1098h-296zM-82 1283l241 321h273l241 -321h-179l-197 197h-3l-197 -197h-179z" />
    <glyph glyph-name="idieresis" unicode="&#xef;" horiz-adv-x="592" 
d="M148 0v1098h296v-1098h-296zM-25 1283v222h222v-222h-222zM394 1283v222h223v-222h-223z" />
    <glyph glyph-name="eth" unicode="&#xf0;" horiz-adv-x="1251" 
d="M273 1065l-107 131l187 158q-133 39 -246 39l-33 1v185q243 0 456 -75l217 188l110 -133l-160 -138q225 -125 352.5 -345t127.5 -483q0 -277 -153.5 -447.5t-401.5 -170.5q-245 0 -396.5 152.5t-151.5 398.5q0 237 145.5 392t367.5 155q59 0 138 -18q-64 142 -206 214z
M629 160q116 0 184 104t68 282q0 343 -246 343q-116 0 -184.5 -99t-68.5 -267q0 -165 67.5 -264t179.5 -99z" />
    <glyph glyph-name="ntilde" unicode="&#xf1;" horiz-adv-x="1251" 
d="M148 0v1098h296v-182q169 207 373 207q299 0 299 -347v-776h-296v703q0 107 -25.5 147t-93.5 40q-120 0 -257 -174v-716h-296zM432 1283h-148q0 321 202 321q64 0 126 -43l38 -26l31 -22q64 -45 91 -45q67 0 67 136h148q0 -321 -201 -321q-64 0 -126 43l-39 26
q-23 16 -31 22q-61 45 -90 45q-68 0 -68 -136z" />
    <glyph glyph-name="ograve" unicode="&#xf2;" horiz-adv-x="1251" 
d="M619 -25q-246 0 -395.5 157.5t-149.5 416.5q0 262 150 418t401 156t401.5 -156t150.5 -416q0 -265 -150.5 -420.5t-407.5 -155.5zM623 160q112 0 176 104.5t64 286.5q0 177 -64.5 282t-173.5 105t-173 -105t-64 -284q0 -177 64 -283t171 -106zM826 1283h-201l-321 321
h281z" />
    <glyph glyph-name="oacute" unicode="&#xf3;" horiz-adv-x="1251" 
d="M619 -25q-246 0 -395.5 157.5t-149.5 416.5q0 262 150 418t401 156t401.5 -156t150.5 -416q0 -265 -150.5 -420.5t-407.5 -155.5zM623 160q112 0 176 104.5t64 286.5q0 177 -64.5 282t-173.5 105t-173 -105t-64 -284q0 -177 64 -283t171 -106zM424 1283l241 321h281
l-321 -321h-201z" />
    <glyph glyph-name="ocircumflex" unicode="&#xf4;" horiz-adv-x="1251" 
d="M619 -25q-246 0 -395.5 157.5t-149.5 416.5q0 262 150 418t401 156t401.5 -156t150.5 -416q0 -265 -150.5 -420.5t-407.5 -155.5zM623 160q112 0 176 104.5t64 286.5q0 177 -64.5 282t-173.5 105t-173 -105t-64 -284q0 -177 64 -283t171 -106zM248 1283l241 321h273
l241 -321h-179l-197 197h-3l-197 -197h-179z" />
    <glyph glyph-name="otilde" unicode="&#xf5;" horiz-adv-x="1251" 
d="M619 -25q-246 0 -395.5 157.5t-149.5 416.5q0 262 150 418t401 156t401.5 -156t150.5 -416q0 -265 -150.5 -420.5t-407.5 -155.5zM623 160q112 0 176 104.5t64 286.5q0 177 -64.5 282t-173.5 105t-173 -105t-64 -284q0 -177 64 -283t171 -106zM422 1283h-148
q0 321 202 321q64 0 126 -43l38 -26l31 -22q64 -45 91 -45q67 0 67 136h148q0 -321 -201 -321q-64 0 -126 43l-39 26q-23 16 -31 22q-61 45 -90 45q-68 0 -68 -136z" />
    <glyph glyph-name="odieresis" unicode="&#xf6;" horiz-adv-x="1251" 
d="M619 -25q-246 0 -395.5 157.5t-149.5 416.5q0 262 150 418t401 156t401.5 -156t150.5 -416q0 -265 -150.5 -420.5t-407.5 -155.5zM623 160q112 0 176 104.5t64 286.5q0 177 -64.5 282t-173.5 105t-173 -105t-64 -284q0 -177 64 -283t171 -106zM305 1283v222h222v-222
h-222zM724 1283v222h223v-222h-223z" />
    <glyph glyph-name="divide" unicode="&#xf7;" horiz-adv-x="1196" 
d="M474 901v246h247v-246h-247zM474 37v247h247v-247h-247zM104 506v173h987v-173h-987z" />
    <glyph glyph-name="oslash" unicode="&#xf8;" horiz-adv-x="1251" 
d="M619 -25q-177 0 -304 81l-66 -81h-175l137 170q-137 155 -137 404q0 262 150 418t401 156q182 0 311 -82l66 82h175l-138 -170q138 -154 138 -402q0 -265 -150.5 -420.5t-407.5 -155.5zM623 160q124 0 195 104.5t71 286.5q1 101 -25 184l-406 -501q66 -74 165 -74z
M625 938q-121 0 -192 -105t-71 -284q-1 -102 26 -187l406 502q-69 74 -169 74z" />
    <glyph glyph-name="ugrave" unicode="&#xf9;" horiz-adv-x="1251" 
d="M808 0v182q-169 -207 -374 -207q-298 0 -298 347v776h296v-703q0 -107 25 -147t94 -40q119 0 257 174v716h296v-1098h-296zM811 1283h-201l-321 321h281z" />
    <glyph glyph-name="uacute" unicode="&#xfa;" horiz-adv-x="1251" 
d="M808 0v182q-169 -207 -374 -207q-298 0 -298 347v776h296v-703q0 -107 25 -147t94 -40q119 0 257 174v716h296v-1098h-296zM429 1283l241 321h281l-321 -321h-201z" />
    <glyph glyph-name="ucircumflex" unicode="&#xfb;" horiz-adv-x="1251" 
d="M808 0v182q-169 -207 -374 -207q-298 0 -298 347v776h296v-703q0 -107 25 -147t94 -40q119 0 257 174v716h296v-1098h-296zM242 1283l241 321h273l241 -321h-179l-197 197h-3l-197 -197h-179z" />
    <glyph glyph-name="udieresis" unicode="&#xfc;" horiz-adv-x="1251" 
d="M808 0v182q-169 -207 -374 -207q-298 0 -298 347v776h296v-703q0 -107 25 -147t94 -40q119 0 257 174v716h296v-1098h-296zM279 1283v222h222v-222h-222zM738 1283v222h223v-222h-223z" />
    <glyph glyph-name="yacute" unicode="&#xfd;" 
d="M419 0l-394 1098h312l254 -710l302 710h220l-640 -1493h-302zM400 1283l241 321h281l-321 -321h-201z" />
    <glyph glyph-name="thorn" unicode="&#xfe;" horiz-adv-x="1251" 
d="M444 -395h-296v1974h296v-663q157 207 345 207q172 0 277.5 -149.5t105.5 -394.5q0 -284 -136.5 -444t-379.5 -160q-81 0 -212 25v-395zM444 176q112 -19 167 -19q246 0 246 381q0 353 -179 353q-120 0 -234 -175v-540z" />
    <glyph glyph-name="ydieresis" unicode="&#xff;" 
d="M419 0l-394 1098h312l254 -710l302 710h220l-640 -1493h-302zM260 1283v222h222v-222h-222zM699 1283v222h223v-222h-223z" />
    <glyph glyph-name="Amacron" unicode="&#x100;" horiz-adv-x="1479" 
d="M12 0l574 1480h308l572 -1480h-315l-151 395h-612l-151 -395h-225zM464 592h460l-230 590zM364 1634v173h740v-173h-740z" />
    <glyph glyph-name="amacron" unicode="&#x101;" 
d="M1076 169l7 -166q-94 -28 -165 -28q-183 0 -235 143h-13q-107 -143 -276 -143q-146 0 -235.5 88.5t-89.5 232.5q0 374 522 374h79v100q0 171 -172 171q-155 0 -332 -98v204q181 76 380 76q408 0 408 -343v-486q0 -129 82 -129q16 0 40 4zM670 277v223h-70
q-247 0 -247 -178q0 -63 41.5 -104.5t105.5 -41.5q102 0 170 101zM165 1303v173h740v-173h-740z" />
    <glyph glyph-name="Abreve" unicode="&#x102;" horiz-adv-x="1479" 
d="M12 0l574 1480h308l572 -1480h-315l-151 395h-612l-151 -395h-225zM464 592h460l-230 590zM380 1925h148q41 -142 206 -142q163 0 205 142h148q-16 -147 -112 -234t-241 -87t-241 86.5t-113 234.5z" />
    <glyph glyph-name="abreve" unicode="&#x103;" 
d="M1076 169l7 -166q-94 -28 -165 -28q-183 0 -235 143h-13q-107 -143 -276 -143q-146 0 -235.5 88.5t-89.5 232.5q0 374 522 374h79v100q0 171 -172 171q-155 0 -332 -98v204q181 76 380 76q408 0 408 -343v-486q0 -129 82 -129q16 0 40 4zM670 277v223h-70
q-247 0 -247 -178q0 -63 41.5 -104.5t105.5 -41.5q102 0 170 101zM198 1604h148q41 -142 206 -142q163 0 205 142h148q-16 -147 -112 -234t-241 -87t-241 86.5t-113 234.5z" />
    <glyph glyph-name="Aogonek" unicode="&#x104;" horiz-adv-x="1479" 
d="M12 0l574 1480h308l572 -1480h-157q-186 -86 -186 -180q0 -95 162 -95q85 0 135 15v-81q-87 -29 -199 -29q-295 0 -295 159q0 118 225 211l-151 395h-612l-151 -395h-225zM464 592h460l-230 590z" />
    <glyph glyph-name="aogonek" unicode="&#x105;" 
d="M782 0h6q-75 34 -105 118h-13q-107 -143 -276 -143q-146 0 -235.5 88.5t-89.5 232.5q0 374 522 374h79v100q0 171 -172 171q-155 0 -332 -98v204q181 76 380 76q408 0 408 -343v-486q0 -129 82 -129q16 0 40 4l7 -166q-94 -28 -165 -28q-14 0 -27 1q-137 -75 -137 -156
q0 -95 162 -95q85 0 135 15v-81q-87 -29 -199 -29q-295 0 -295 159q0 118 225 211zM670 277v223h-70q-247 0 -247 -178q0 -63 41.5 -104.5t105.5 -41.5q102 0 170 101z" />
    <glyph glyph-name="Cacute" unicode="&#x106;" horiz-adv-x="1479" 
d="M1406 286v-227q-215 -96 -535 -96q-381 0 -586 201.5t-205 575.5q0 382 207 579.5t606 197.5q259 0 500 -57v-241q-273 95 -473 95q-513 0 -513 -570q0 -568 542 -568q235 0 457 110zM703 1604l241 321h281l-321 -321h-201z" />
    <glyph glyph-name="cacute" unicode="&#x107;" 
d="M1056 229v-205q-212 -49 -375 -49q-290 0 -448.5 150.5t-158.5 424.5q0 573 629 573q174 0 344 -43v-214q-209 59 -323 59q-335 0 -335 -374q0 -178 96.5 -279t266.5 -101q120 0 304 58zM495 1283l241 321h281l-321 -321h-201z" />
    <glyph glyph-name="Ccircumflex" unicode="&#x108;" horiz-adv-x="1479" 
d="M1406 286v-227q-215 -96 -535 -96q-381 0 -586 201.5t-205 575.5q0 382 207 579.5t606 197.5q259 0 500 -57v-241q-273 95 -473 95q-513 0 -513 -570q0 -568 542 -568q235 0 457 110zM503 1604l241 321h273l241 -321h-179l-197 197h-3l-197 -197h-179z" />
    <glyph glyph-name="ccircumflex" unicode="&#x109;" 
d="M1056 229v-205q-212 -49 -375 -49q-290 0 -448.5 150.5t-158.5 424.5q0 573 629 573q174 0 344 -43v-214q-209 59 -323 59q-335 0 -335 -374q0 -178 96.5 -279t266.5 -101q120 0 304 58zM295 1283l241 321h273l241 -321h-179l-197 197h-3l-197 -197h-179z" />
    <glyph glyph-name="Cdot" unicode="&#x10a;" horiz-adv-x="1479" 
d="M1406 286v-227q-215 -96 -535 -96q-381 0 -586 201.5t-205 575.5q0 382 207 579.5t606 197.5q259 0 500 -57v-241q-273 95 -473 95q-513 0 -513 -570q0 -568 542 -568q235 0 457 110zM734 1634v296h296v-296h-296z" />
    <glyph glyph-name="cdot" unicode="&#x10b;" 
d="M1056 229v-205q-212 -49 -375 -49q-290 0 -448.5 150.5t-158.5 424.5q0 573 629 573q174 0 344 -43v-214q-209 59 -323 59q-335 0 -335 -374q0 -178 96.5 -279t266.5 -101q120 0 304 58zM526 1283v296h296v-296h-296z" />
    <glyph glyph-name="Ccaron" unicode="&#x10c;" horiz-adv-x="1479" 
d="M1406 286v-227q-215 -96 -535 -96q-381 0 -586 201.5t-205 575.5q0 382 207 579.5t606 197.5q259 0 500 -57v-241q-273 95 -473 95q-513 0 -513 -570q0 -568 542 -568q235 0 457 110zM1246 1974l-241 -321h-273l-241 321h179l197 -198h3l197 198h179z" />
    <glyph glyph-name="ccaron" unicode="&#x10d;" 
d="M1056 229v-205q-212 -49 -375 -49q-290 0 -448.5 150.5t-158.5 424.5q0 573 629 573q174 0 344 -43v-214q-209 59 -323 59q-335 0 -335 -374q0 -178 96.5 -279t266.5 -101q120 0 304 58zM1050 1604l-241 -321h-273l-241 321h179l197 -198h3l197 198h179z" />
    <glyph glyph-name="Dcaron" unicode="&#x10e;" horiz-adv-x="1479" 
d="M173 0v1480h515q344 0 527.5 -182.5t183.5 -526.5q0 -366 -194 -568.5t-544 -202.5h-488zM481 210h109q243 0 362.5 134.5t119.5 408.5q0 245 -120 384.5t-331 139.5h-140v-1067zM1045 1974l-241 -321h-273l-241 321h179l197 -198h3l197 198h179z" />
    <glyph glyph-name="dcaron" unicode="&#x10f;" horiz-adv-x="1472" 
d="M807 182q-156 -207 -344 -207q-172 0 -277.5 149.5t-105.5 394.5q0 284 136.5 444t379.5 160q81 0 211 -25v481h296v-1579h-296v182zM807 922q-111 19 -166 19q-246 0 -246 -381q0 -353 179 -353q120 0 233 175v540zM1328 1283h-114v296h259v-229q0 -342 -259 -363v102
q114 0 114 165v29z" />
    <glyph glyph-name="Dmacron" unicode="&#x110;" horiz-adv-x="1479" 
d="M173 0v669h-173v173h173v638h515q344 0 527.5 -182.5t183.5 -526.5q0 -366 -194 -568.5t-544 -202.5h-488zM481 210h109q243 0 362.5 134.5t119.5 408.5q0 245 -120 384.5t-331 139.5h-140v-435h210v-173h-210v-459z" />
    <glyph glyph-name="dmacron" unicode="&#x111;" horiz-adv-x="1251" 
d="M1103 0h-296v182q-156 -207 -344 -207q-172 0 -277.5 149.5t-105.5 394.5q0 284 136.5 444t379.5 160q81 0 211 -25v136h-259v172h259v173h296v-173h148v-172h-148v-1234zM807 922q-111 19 -166 19q-246 0 -246 -381q0 -353 179 -353q120 0 233 175v540z" />
    <glyph glyph-name="Emacron" unicode="&#x112;" horiz-adv-x="1366" 
d="M173 0v1480h1086v-203h-778v-413h667v-198h-667v-456h825v-210h-1133zM370 1644v173h740v-173h-740z" />
    <glyph glyph-name="emacron" unicode="&#x113;" 
d="M1031 245v-208q-183 -62 -367 -62q-275 0 -432.5 157.5t-157.5 431.5q0 254 137.5 406.5t365.5 152.5q236 0 345 -151.5t109 -481.5h-645q31 -314 329 -314q141 0 316 69zM383 657h357q0 281 -159 281q-168 0 -198 -281zM216 1303v173h740v-173h-740z" />
    <glyph glyph-name="Ebreve" unicode="&#x114;" horiz-adv-x="1366" 
d="M173 0v1480h1086v-203h-778v-413h667v-198h-667v-456h825v-210h-1133zM383 1925h148q41 -142 206 -142q163 0 205 142h148q-16 -147 -112 -234t-241 -87t-241 86.5t-113 234.5z" />
    <glyph glyph-name="ebreve" unicode="&#x115;" 
d="M1031 245v-208q-183 -62 -367 -62q-275 0 -432.5 157.5t-157.5 431.5q0 254 137.5 406.5t365.5 152.5q236 0 345 -151.5t109 -481.5h-645q31 -314 329 -314q141 0 316 69zM383 657h357q0 281 -159 281q-168 0 -198 -281zM233 1604h148q41 -142 206 -142q163 0 205 142
h148q-16 -147 -112 -234t-241 -87t-241 86.5t-113 234.5z" />
    <glyph glyph-name="Edot" unicode="&#x116;" horiz-adv-x="1366" 
d="M173 0v1480h1086v-203h-778v-413h667v-198h-667v-456h825v-210h-1133zM580 1604v296h296v-296h-296z" />
    <glyph glyph-name="edot" unicode="&#x117;" 
d="M1031 245v-208q-183 -62 -367 -62q-275 0 -432.5 157.5t-157.5 431.5q0 254 137.5 406.5t365.5 152.5q236 0 345 -151.5t109 -481.5h-645q31 -314 329 -314q141 0 316 69zM383 657h357q0 281 -159 281q-168 0 -198 -281zM438 1283v296h296v-296h-296z" />
    <glyph glyph-name="Eogonek" unicode="&#x118;" horiz-adv-x="1366" 
d="M173 0v1480h1086v-203h-778v-413h667v-198h-667v-456h825v-210h-161q-186 -86 -186 -180q0 -95 162 -95q85 0 135 15v-81q-87 -29 -199 -29q-295 0 -295 159q0 118 225 211h-814z" />
    <glyph glyph-name="eogonek" unicode="&#x119;" 
d="M1031 245v-208q-97 -33 -194 -48q-162 -81 -162 -169q0 -95 162 -95q85 0 135 15v-81q-87 -29 -199 -29q-295 0 -295 159q0 103 169 186q-263 5 -416 157q-157 158 -157 432q0 254 137.5 406.5t365.5 152.5q236 0 345 -151.5t109 -481.5h-645q31 -314 329 -314
q141 0 316 69zM383 657h357q0 281 -159 281q-168 0 -198 -281z" />
    <glyph glyph-name="Ecaron" unicode="&#x11a;" horiz-adv-x="1366" 
d="M173 0v1480h1086v-203h-778v-413h667v-198h-667v-456h825v-210h-1133zM1095 1925l-241 -321h-273l-241 321h179l197 -198h3l197 198h179z" />
    <glyph glyph-name="ecaron" unicode="&#x11b;" 
d="M1031 245v-208q-183 -62 -367 -62q-275 0 -432.5 157.5t-157.5 431.5q0 254 137.5 406.5t365.5 152.5q236 0 345 -151.5t109 -481.5h-645q31 -314 329 -314q141 0 316 69zM383 657h357q0 281 -159 281q-168 0 -198 -281zM964 1604l-241 -321h-273l-241 321h179l197 -198
h3l197 198h179z" />
    <glyph glyph-name="Gcircumflex" unicode="&#x11c;" horiz-adv-x="1593" 
d="M1445 719v-684q-281 -72 -513 -72q-249 0 -396.5 47t-255.5 161q-200 212 -200 571q0 344 187 553q108 121 256 171.5t390 50.5q290 0 531 -57v-241q-304 95 -527 95q-250 0 -380 -146.5t-130 -428.5q0 -274 139.5 -421t399.5 -147q71 0 191 14v331h-250v203h558z
M497 1604l241 321h273l241 -321h-179l-197 197h-3l-197 -197h-179z" />
    <glyph glyph-name="gcircumflex" unicode="&#x11d;" horiz-adv-x="1251" 
d="M807 922q-111 19 -166 19q-246 0 -246 -370q0 -340 179 -340q120 0 233 176v515zM807 207q-156 -207 -344 -207q-170 0 -276.5 148t-106.5 384q0 274 138 432.5t378 158.5q81 0 211 -25h296v-838q0 -251 -30 -362t-119 -189q-148 -129 -416 -129q-193 0 -414 79v218
q217 -87 374 -87q163 0 236 70t73 227v120zM250 1283l241 321h273l241 -321h-179l-197 197h-3l-197 -197h-179z" />
    <glyph glyph-name="Gbreve" unicode="&#x11e;" horiz-adv-x="1593" 
d="M1445 719v-684q-281 -72 -513 -72q-249 0 -396.5 47t-255.5 161q-200 212 -200 571q0 344 187 553q108 121 256 171.5t390 50.5q290 0 531 -57v-241q-304 95 -527 95q-250 0 -380 -146.5t-130 -428.5q0 -274 139.5 -421t399.5 -147q71 0 191 14v331h-250v203h558z
M520 1925h148q41 -142 206 -142q163 0 205 142h148q-16 -147 -112 -234t-241 -87t-241 86.5t-113 234.5z" />
    <glyph glyph-name="gbreve" unicode="&#x11f;" horiz-adv-x="1251" 
d="M807 922q-111 19 -166 19q-246 0 -246 -370q0 -340 179 -340q120 0 233 176v515zM807 207q-156 -207 -344 -207q-170 0 -276.5 148t-106.5 384q0 274 138 432.5t378 158.5q81 0 211 -25h296v-838q0 -251 -30 -362t-119 -189q-148 -129 -416 -129q-193 0 -414 79v218
q217 -87 374 -87q163 0 236 70t73 227v120zM266 1604h148q41 -142 206 -142q163 0 205 142h148q-16 -147 -112 -234t-241 -87t-241 86.5t-113 234.5z" />
    <glyph glyph-name="Gdot" unicode="&#x120;" horiz-adv-x="1593" 
d="M1445 719v-684q-281 -72 -513 -72q-249 0 -396.5 47t-255.5 161q-200 212 -200 571q0 344 187 553q108 121 256 171.5t390 50.5q290 0 531 -57v-241q-304 95 -527 95q-250 0 -380 -146.5t-130 -428.5q0 -274 139.5 -421t399.5 -147q71 0 191 14v331h-250v203h558z
M750 1634v296h296v-296h-296z" />
    <glyph glyph-name="gdot" unicode="&#x121;" horiz-adv-x="1251" 
d="M807 922q-111 19 -166 19q-246 0 -246 -370q0 -340 179 -340q120 0 233 176v515zM807 207q-156 -207 -344 -207q-170 0 -276.5 148t-106.5 384q0 274 138 432.5t378 158.5q81 0 211 -25h296v-838q0 -251 -30 -362t-119 -189q-148 -129 -416 -129q-193 0 -414 79v218
q217 -87 374 -87q163 0 236 70t73 227v120zM511 1283v296h296v-296h-296z" />
    <glyph glyph-name="Gcedilla" unicode="&#x122;" horiz-adv-x="1593" 
d="M1445 719v-684q-281 -72 -513 -72q-249 0 -396.5 47t-255.5 161q-200 212 -200 571q0 344 187 553q108 121 256 171.5t390 50.5q290 0 531 -57v-241q-304 95 -527 95q-250 0 -380 -146.5t-130 -428.5q0 -274 139.5 -421t399.5 -147q71 0 191 14v331h-250v203h558z
M701 -97q363 0 363 -171q0 -68 -70.5 -116t-170.5 -48q-82 0 -196 13v98q66 -6 111 -6q128 0 128 65q0 58 -165 66v99z" />
    <glyph glyph-name="gcedilla" unicode="&#x123;" horiz-adv-x="1251" 
d="M807 922q-111 19 -166 19q-246 0 -246 -370q0 -340 179 -340q120 0 233 176v515zM807 207q-156 -207 -344 -207q-170 0 -276.5 148t-106.5 384q0 274 138 432.5t378 158.5q81 0 211 -25h296v-838q0 -251 -30 -362t-119 -189q-148 -129 -416 -129q-193 0 -414 79v218
q217 -87 374 -87q163 0 236 70t73 227v120zM693 1579h114v-296h-296v230q0 363 296 363v-103q-114 0 -114 -164v-30z" />
    <glyph glyph-name="Hcircumflex" unicode="&#x124;" horiz-adv-x="1479" 
d="M173 0v1480h308v-601h517v601h308v-1480h-308v675h-517v-675h-308zM362 1604l241 321h273l241 -321h-179l-197 197h-3l-197 -197h-179z" />
    <glyph glyph-name="hcircumflex" unicode="&#x125;" horiz-adv-x="1251" 
d="M148 0v1579h296v-663q169 207 373 207q299 0 299 -347v-776h-296v703q0 107 -25.5 147t-93.5 40q-120 0 -257 -174v-716h-296zM241 1678l241 321h273l241 -321h-179l-197 197h-3l-197 -197h-179z" />
    <glyph glyph-name="Hbar" unicode="&#x126;" horiz-adv-x="1479" 
d="M481 879h517v219h-517v-219zM173 0v1098h-148v148h148v234h308v-234h517v234h308v-234h148v-148h-148v-1098h-308v675h-517v-675h-308z" />
    <glyph glyph-name="hbar" unicode="&#x127;" horiz-adv-x="1251" 
d="M148 0v1258h-123v148h123v173h296v-173h296v-148h-296v-342q169 207 373 207q299 0 299 -347v-776h-296v703q0 107 -25.5 147t-93.5 40q-120 0 -257 -174v-716h-296z" />
    <glyph glyph-name="Itilde" unicode="&#x128;" horiz-adv-x="928" 
d="M260 1604h-148q0 321 202 321q64 0 126 -43l38 -26l31 -22q64 -45 91 -45q67 0 67 136h148q0 -321 -201 -321q-64 0 -126 43l-39 26q-23 16 -31 22q-61 45 -90 45q-68 0 -68 -136zM100 0v210h210v1060h-210v210h728v-210h-210v-1060h210v-210h-728z" />
    <glyph glyph-name="itilde" unicode="&#x129;" horiz-adv-x="592" 
d="M148 0v1098h296v-1098h-296zM92 1283h-148q0 321 202 321q64 0 126 -43l38 -26l31 -22q64 -45 91 -45q67 0 67 136h148q0 -321 -201 -321q-64 0 -126 43l-39 26q-23 16 -31 22q-61 45 -90 45q-68 0 -68 -136z" />
    <glyph glyph-name="Imacron" unicode="&#x12a;" horiz-adv-x="928" 
d="M94 1644v173h740v-173h-740zM100 0v210h210v1060h-210v210h728v-210h-210v-1060h210v-210h-728z" />
    <glyph glyph-name="imacron" unicode="&#x12b;" horiz-adv-x="592" 
d="M148 0v1098h296v-1098h-296zM-74 1303v173h740v-173h-740z" />
    <glyph glyph-name="Ibreve" unicode="&#x12c;" horiz-adv-x="928" 
d="M110 1925h148q41 -142 206 -142q163 0 205 142h148q-16 -147 -112 -234t-241 -87t-241 86.5t-113 234.5zM100 0v210h210v1060h-210v210h728v-210h-210v-1060h210v-210h-728z" />
    <glyph glyph-name="ibreve" unicode="&#x12d;" horiz-adv-x="592" 
d="M148 0v1098h296v-1098h-296zM-58 1604h148q41 -142 206 -142q163 0 205 142h148q-16 -147 -112 -234t-241 -87t-241 86.5t-113 234.5z" />
    <glyph glyph-name="Iogonek" unicode="&#x12e;" horiz-adv-x="928" 
d="M100 0v210h210v1060h-210v210h728v-210h-210v-1060h210v-210h-227q-186 -86 -186 -180q0 -95 162 -95q85 0 135 15v-81q-87 -29 -199 -29q-295 0 -295 159q0 118 225 211h-343z" />
    <glyph glyph-name="iogonek" unicode="&#x12f;" horiz-adv-x="592" 
d="M444 0q-186 -86 -186 -180q0 -95 162 -95q85 0 135 15v-81q-87 -29 -199 -29q-295 0 -295 159q0 118 225 211h-138v1098h296v-1098zM138 1293v286h316v-286h-316z" />
    <glyph glyph-name="Idotaccent" unicode="&#x130;" horiz-adv-x="928" 
d="M310 1644v290h308v-290h-308zM100 0v210h210v1060h-210v210h728v-210h-210v-1060h210v-210h-728z" />
    <glyph glyph-name="dotlessi" unicode="&#x131;" horiz-adv-x="592" 
d="M148 0v1098h296v-1098h-296z" />
    <glyph glyph-name="IJ" unicode="&#x132;" horiz-adv-x="1787" 
d="M877 -265v216q137 -38 205 -38q82 0 134 58.5t52 212.5v1086h-210v210h519v-1263q0 -269 -129 -391t-354 -122q-74 0 -217 31zM100 0v210h210v1060h-210v210h728v-210h-210v-1060h210v-210h-728z" />
    <glyph glyph-name="ij" unicode="&#x133;" horiz-adv-x="1149" 
d="M148 0v1098h296v-1098h-296zM148 1298v281h296v-281h-296zM425 -379v198q106 -53 157 -53q77 0 106 50t29 184v1098h297v-1079q0 -438 -390 -438q-87 0 -199 40zM717 1298v281h297v-281h-297z" />
    <glyph glyph-name="Jcircumflex" unicode="&#x134;" 
d="M283 1604l241 321h273l241 -321h-179l-197 197h-3l-197 -197h-179zM0 -252v221q186 -56 355 -56q151 0 208.5 58.5t57.5 212.5v1086h-260v210h568v-1263q0 -269 -134 -391t-429 -122q-174 0 -366 44z" />
    <glyph glyph-name="jcircumflex" unicode="&#x135;" horiz-adv-x="579" 
d="M-144 -379v198q105 -53 156 -53q78 0 107 50t29 184v1098h296v-1079q0 -438 -390 -438q-87 0 -198 40zM-91 1283l241 321h274l240 -321h-179l-197 197h-2l-198 -197h-179z" />
    <glyph glyph-name="Kcedilla" unicode="&#x136;" horiz-adv-x="1479" 
d="M173 0v1480h296v-718l616 718h255l-562 -664l686 -816h-385l-610 728v-728h-296zM592 -97q363 0 363 -171q0 -68 -70.5 -116t-170.5 -48q-82 0 -196 13v98q66 -6 111 -6q128 0 128 65q0 58 -165 66v99z" />
    <glyph glyph-name="kcedilla" unicode="&#x137;" 
d="M148 0v1579h296v-993h19l345 512h245l-320 -477l397 -621h-316l-351 549h-19v-549h-296zM518 -97q363 0 363 -171q0 -68 -70.5 -116t-170.5 -48q-82 0 -196 13v98q66 -6 111 -6q128 0 128 65q0 58 -165 66v99z" />
    <glyph glyph-name="kra" unicode="&#x138;" 
d="M148 0v1098h296v-512h19l345 512h245l-320 -477l397 -621h-316l-351 549h-19v-549h-296z" />
    <glyph glyph-name="Lacute" unicode="&#x139;" horiz-adv-x="1251" 
d="M173 0v1480h308v-1270h752v-210h-1060zM280 1616l241 321h281l-321 -321h-201z" />
    <glyph glyph-name="lacute" unicode="&#x13a;" horiz-adv-x="611" 
d="M591 182v-182q-67 -25 -143 -25q-313 0 -313 360v1244h296v-1205q0 -124 21 -162.5t87 -38.5q27 0 52 9zM98 1678l241 321h271l-321 -321h-191z" />
    <glyph glyph-name="Lcedilla" unicode="&#x13b;" horiz-adv-x="1251" 
d="M173 0v1480h308v-1270h752v-210h-1060zM592 -97q363 0 363 -171q0 -68 -70.5 -116t-170.5 -48q-82 0 -196 13v98q66 -6 111 -6q128 0 128 65q0 58 -165 66v99z" />
    <glyph glyph-name="lcedilla" unicode="&#x13c;" horiz-adv-x="611" 
d="M212 -97q363 0 363 -171q0 -68 -70.5 -116t-170.5 -48q-82 0 -196 13v98q66 -6 111 -6q128 0 128 65q0 58 -165 66v99zM591 182v-182q-67 -25 -143 -25q-313 0 -313 360v1244h296v-1205q0 -124 21 -162.5t87 -38.5q27 0 52 9z" />
    <glyph glyph-name="Lcaron" unicode="&#x13d;" horiz-adv-x="1251" 
d="M173 0v1480h308v-1270h752v-210h-1060zM916 1184h-114v296h259v-229q0 -342 -259 -363v102q114 0 114 165v29z" />
    <glyph glyph-name="lcaron" unicode="&#x13e;" horiz-adv-x="833" 
d="M688 1283h-114v296h259v-229q0 -342 -259 -363v102q114 0 114 165v29zM591 182v-182q-67 -25 -143 -25q-313 0 -313 360v1244h296v-1205q0 -124 21 -162.5t87 -38.5q27 0 52 9z" />
    <glyph glyph-name="Ldot" unicode="&#x13f;" horiz-adv-x="1251" 
d="M173 0v1480h308v-1270h752v-210h-1060zM790 654v296h296v-296h-296z" />
    <glyph glyph-name="ldot" unicode="&#x140;" horiz-adv-x="981" 
d="M627 654v296h297v-296h-297zM591 182v-182q-67 -25 -143 -25q-313 0 -313 360v1244h296v-1205q0 -124 21 -162.5t87 -38.5q27 0 52 9z" />
    <glyph glyph-name="Lslash" unicode="&#x141;" horiz-adv-x="1251" 
d="M173 0v596l-173 -90v193l173 91v690h308v-524l247 133v-197l-247 -132v-550h752v-210h-1060z" />
    <glyph glyph-name="lslash" unicode="&#x142;" horiz-adv-x="645" 
d="M594 182v-182q-67 -25 -143 -25q-287 0 -311 301q-2 26 -2 59v295v0l-135 -72v195l134 76l1 -4v754h296v-593l186 100v-195l-186 -100v-417q0 -124 21 -162.5t87 -38.5q27 0 52 9z" />
    <glyph glyph-name="Nacute" unicode="&#x143;" horiz-adv-x="1479" 
d="M173 0v1480h271l615 -1011v1011h247v-1480h-275l-611 1011v-1011h-247zM598 1616l241 321h281l-321 -321h-201z" />
    <glyph glyph-name="nacute" unicode="&#x144;" horiz-adv-x="1251" 
d="M148 0v1098h296v-182q169 207 373 207q299 0 299 -347v-776h-296v703q0 107 -25.5 147t-93.5 40q-120 0 -257 -174v-716h-296zM444 1283l241 321h281l-321 -321h-201z" />
    <glyph glyph-name="Ncedilla" unicode="&#x145;" horiz-adv-x="1479" 
d="M173 0v1480h271l615 -1011v1011h247v-1480h-275l-611 1011v-1011h-247zM592 -97q363 0 363 -171q0 -68 -70.5 -116t-170.5 -48q-82 0 -196 13v98q66 -6 111 -6q128 0 128 65q0 58 -165 66v99z" />
    <glyph glyph-name="ncedilla" unicode="&#x146;" horiz-adv-x="1251" 
d="M148 0v1098h296v-182q169 207 373 207q299 0 299 -347v-776h-296v703q0 107 -25.5 147t-93.5 40q-120 0 -257 -174v-716h-296zM518 -97q363 0 363 -171q0 -68 -70.5 -116t-170.5 -48q-82 0 -196 13v98q66 -6 111 -6q128 0 128 65q0 58 -165 66v99z" />
    <glyph glyph-name="Ncaron" unicode="&#x147;" horiz-adv-x="1479" 
d="M173 0v1480h271l615 -1011v1011h247v-1480h-275l-611 1011v-1011h-247zM1117 1925l-241 -321h-273l-241 321h179l197 -198h3l197 198h179z" />
    <glyph glyph-name="ncaron" unicode="&#x148;" horiz-adv-x="1251" 
d="M148 0v1098h296v-182q169 207 373 207q299 0 299 -347v-776h-296v703q0 107 -25.5 147t-93.5 40q-120 0 -257 -174v-716h-296zM983 1604l-241 -321h-273l-241 321h179l197 -198h3l197 198h179z" />
    <glyph glyph-name="napostrophe" unicode="&#x149;" horiz-adv-x="1451" 
d="M347 0v1098h296v-182q169 207 373 207q299 0 299 -347v-776h-296v703q0 107 -25.5 147t-93.5 40q-120 0 -257 -174v-716h-296zM128 1283h-114v296h259v-229q0 -342 -259 -363v102q114 0 114 165v29z" />
    <glyph glyph-name="Eng" unicode="&#x14a;" horiz-adv-x="1479" 
d="M173 0v1480h271l615 -1011v1011h247v-1480v-46q0 -374 -364 -374q-93 0 -183 24v199q67 -25 142 -25q155 0 155 179l-636 1054v-1011h-247z" />
    <glyph glyph-name="eng" unicode="&#x14b;" horiz-adv-x="1251" 
d="M148 0v1098h296v-182q169 207 373 207q299 0 299 -347v-830q0 -366 -357 -366q-77 0 -182 23v196q65 -21 119 -21q71 0 97.5 41.5t26.5 153.5v730q0 107 -25.5 147t-93.5 40q-120 0 -257 -174v-716h-296z" />
    <glyph glyph-name="Omacron" unicode="&#x14c;" horiz-adv-x="1593" 
d="M786 -37q-328 0 -517 208.5t-189 568.5q0 365 190.5 571t526.5 206q335 0 525.5 -206t190.5 -568q0 -370 -191 -575t-536 -205zM791 167q190 0 292.5 149.5t102.5 427.5q0 269 -102.5 419.5t-286.5 150.5q-185 0 -287.5 -150.5t-102.5 -423.5q0 -269 102 -421t282 -152z
M426 1644v173h740v-173h-740z" />
    <glyph glyph-name="omacron" unicode="&#x14d;" horiz-adv-x="1251" 
d="M619 -25q-246 0 -395.5 157.5t-149.5 416.5q0 262 150 418t401 156t401.5 -156t150.5 -416q0 -265 -150.5 -420.5t-407.5 -155.5zM623 160q112 0 176 104.5t64 286.5q0 177 -64.5 282t-173.5 105t-173 -105t-64 -284q0 -177 64 -283t171 -106zM255 1303v173h740v-173
h-740z" />
    <glyph glyph-name="Obreve" unicode="&#x14e;" horiz-adv-x="1593" 
d="M786 -37q-328 0 -517 208.5t-189 568.5q0 365 190.5 571t526.5 206q335 0 525.5 -206t190.5 -568q0 -370 -191 -575t-536 -205zM791 167q190 0 292.5 149.5t102.5 427.5q0 269 -102.5 419.5t-286.5 150.5q-185 0 -287.5 -150.5t-102.5 -423.5q0 -269 102 -421t282 -152z
M443 1925h148q41 -142 206 -142q163 0 205 142h148q-16 -147 -112 -234t-241 -87t-241 86.5t-113 234.5z" />
    <glyph glyph-name="obreve" unicode="&#x14f;" horiz-adv-x="1251" 
d="M619 -25q-246 0 -395.5 157.5t-149.5 416.5q0 262 150 418t401 156t401.5 -156t150.5 -416q0 -265 -150.5 -420.5t-407.5 -155.5zM623 160q112 0 176 104.5t64 286.5q0 177 -64.5 282t-173.5 105t-173 -105t-64 -284q0 -177 64 -283t171 -106zM272 1604h148
q41 -142 206 -142q163 0 205 142h148q-16 -147 -112 -234t-241 -87t-241 86.5t-113 234.5z" />
    <glyph glyph-name="Odblacute" unicode="&#x150;" horiz-adv-x="1593" 
d="M786 -37q-328 0 -517 208.5t-189 568.5q0 365 190.5 571t526.5 206q335 0 525.5 -206t190.5 -568q0 -370 -191 -575t-536 -205zM791 167q190 0 292.5 149.5t102.5 427.5q0 269 -102.5 419.5t-286.5 150.5q-185 0 -287.5 -150.5t-102.5 -423.5q0 -269 102 -421t282 -152z
M482 1604l241 321h228l-321 -321h-148zM859 1604l240 321h229l-321 -321h-148z" />
    <glyph glyph-name="odblacute" unicode="&#x151;" horiz-adv-x="1251" 
d="M619 -25q-246 0 -395.5 157.5t-149.5 416.5q0 262 150 418t401 156t401.5 -156t150.5 -416q0 -265 -150.5 -420.5t-407.5 -155.5zM623 160q112 0 176 104.5t64 286.5q0 177 -64.5 282t-173.5 105t-173 -105t-64 -284q0 -177 64 -283t171 -106zM310 1283l241 321h228
l-321 -321h-148zM687 1283l240 321h229l-321 -321h-148z" />
    <glyph glyph-name="OE" unicode="&#x152;" horiz-adv-x="2048" 
d="M1987 0h-918q-122 -37 -277 -37q-332 0 -522 207t-190 570t189.5 570t521.5 207q154 0 278 -37h872v-203h-615v-413h504v-198h-504v-456h661v-210zM1018 242v997q-103 75 -229 75q-179 0 -280.5 -152.5t-101.5 -421.5q0 -268 101.5 -420.5t280.5 -152.5q126 0 229 75z
" />
    <glyph glyph-name="oe" unicode="&#x153;" horiz-adv-x="1933" 
d="M1177 657h357q0 281 -159 281q-168 0 -198 -281zM1015 980q137 143 356 143q236 0 345 -151.5t109 -481.5h-645q31 -314 329 -314q141 0 316 69v-208q-183 -62 -366 -62q-266 0 -433 154q-155 -154 -400 -154q-252 0 -402 156.5t-150 417.5t150 417.5t401 156.5
q246 0 390 -143zM623 160q112 0 176 104.5t64 286.5q0 177 -64.5 282t-172.5 105q-109 0 -173 -105t-64 -284q0 -177 63.5 -283t170.5 -106z" />
    <glyph glyph-name="Racute" unicode="&#x154;" horiz-adv-x="1479" 
d="M173 0v1480h645q451 0 451 -367q0 -293 -287 -422l484 -691h-346l-416 605h-241v-605h-290zM463 808h162q335 0 335 271q0 198 -299 198h-198v-469zM512 1616l241 321h281l-321 -321h-201z" />
    <glyph glyph-name="racute" unicode="&#x155;" horiz-adv-x="797" 
d="M173 0v1098h296v-182q83 207 246 207q23 0 50 -6v-264q-56 23 -94 23q-119 0 -202 -154v-722h-296zM222 1283l241 321h281l-321 -321h-201z" />
    <glyph glyph-name="Rcedilla" unicode="&#x156;" horiz-adv-x="1479" 
d="M173 0v1480h645q451 0 451 -367q0 -293 -287 -422l484 -691h-346l-416 605h-241v-605h-290zM463 808h162q335 0 335 271q0 198 -299 198h-198v-469zM611 -97q363 0 363 -171q0 -68 -70.5 -116t-170.5 -48q-82 0 -196 13v98q66 -6 111 -6q128 0 128 65q0 58 -165 66v99z
" />
    <glyph glyph-name="rcedilla" unicode="&#x157;" horiz-adv-x="797" 
d="M173 0v1098h296v-182q83 207 246 207q23 0 50 -6v-264q-56 23 -94 23q-119 0 -202 -154v-722h-296zM272 -97q363 0 363 -171q0 -68 -70.5 -116t-170.5 -48q-82 0 -196 13v98q66 -6 111 -6q128 0 128 65q0 58 -165 66v99z" />
    <glyph glyph-name="Rcaron" unicode="&#x158;" horiz-adv-x="1479" 
d="M173 0v1480h645q451 0 451 -367q0 -293 -287 -422l484 -691h-346l-416 605h-241v-605h-290zM463 808h162q335 0 335 271q0 198 -299 198h-198v-469zM1064 1925l-241 -321h-273l-241 321h179l197 -198h3l197 198h179z" />
    <glyph glyph-name="rcaron" unicode="&#x159;" horiz-adv-x="797" 
d="M173 0v1098h296v-182q83 207 246 207q23 0 50 -6v-264q-56 23 -94 23q-119 0 -202 -154v-722h-296zM776 1604l-241 -321h-273l-241 321h179l197 -198h3l197 198h179z" />
    <glyph glyph-name="Sacute" unicode="&#x15a;" horiz-adv-x="1366" 
d="M102 13v252q284 -99 523 -99q340 0 340 197q0 128 -129 183l-137 52l-163 62q-261 99 -349 189t-88 256q0 412 604 412q254 0 483 -51v-234q-238 82 -461 82q-181 0 -251 -38t-70 -136q0 -62 34 -97t131 -71l114 -44l170 -63q247 -92 341.5 -190t94.5 -264
q0 -232 -172.5 -340.5t-543.5 -108.5q-139 0 -313 27zM497 1616l241 321h281l-321 -321h-201z" />
    <glyph glyph-name="sacute" unicode="&#x15b;" 
d="M123 36v216q230 -92 387 -92q221 0 221 120q0 73 -175 144l-100 40q-205 83 -266.5 144t-61.5 183q0 332 463 332q158 0 358 -39v-203q-220 57 -322 57q-207 0 -207 -112q0 -68 161 -129l86 -33q220 -83 294.5 -153.5t74.5 -194.5q0 -156 -137.5 -248.5t-369.5 -92.5
q-204 0 -406 61zM410 1283l241 321h281l-321 -321h-201z" />
    <glyph glyph-name="Scircumflex" unicode="&#x15c;" horiz-adv-x="1366" 
d="M102 13v252q284 -99 523 -99q340 0 340 197q0 128 -129 183l-137 52l-163 62q-261 99 -349 189t-88 256q0 412 604 412q254 0 483 -51v-234q-238 82 -461 82q-181 0 -251 -38t-70 -136q0 -62 34 -97t131 -71l114 -44l170 -63q247 -92 341.5 -190t94.5 -264
q0 -232 -172.5 -340.5t-543.5 -108.5q-139 0 -313 27zM334 1604l241 321h273l241 -321h-179l-197 197h-3l-197 -197h-179z" />
    <glyph glyph-name="scircumflex" unicode="&#x15d;" 
d="M123 36v216q230 -92 387 -92q221 0 221 120q0 73 -175 144l-100 40q-205 83 -266.5 144t-61.5 183q0 332 463 332q158 0 358 -39v-203q-220 57 -322 57q-207 0 -207 -112q0 -68 161 -129l86 -33q220 -83 294.5 -153.5t74.5 -194.5q0 -156 -137.5 -248.5t-369.5 -92.5
q-204 0 -406 61zM206 1283l241 321h273l241 -321h-179l-197 197h-3l-197 -197h-179z" />
    <glyph glyph-name="Scedilla" unicode="&#x15e;" horiz-adv-x="1366" 
d="M102 13v252q284 -99 523 -99q340 0 340 197q0 128 -129 183l-137 52l-163 62q-261 99 -349 189t-88 256q0 412 604 412q254 0 483 -51v-234q-238 82 -461 82q-181 0 -251 -38t-70 -136q0 -62 34 -97t131 -71l114 -44l170 -63q247 -92 341.5 -190t94.5 -264
q0 -232 -173 -341q-131 -82 -378 -101l-54 -82q232 -25 232 -156q0 -69 -72 -116t-177 -47q-82 0 -188 30v91q71 -15 118 -15q121 0 121 60q0 84 -195 84h-20l96 144h-26q-139 0 -313 27z" />
    <glyph glyph-name="scedilla" unicode="&#x15f;" 
d="M123 36v216q230 -92 387 -92q221 0 221 120q0 73 -175 144l-100 40q-205 83 -266.5 144t-61.5 183q0 332 463 332q158 0 358 -39v-203q-220 57 -322 57q-207 0 -207 -112q0 -68 161 -129l86 -33q220 -83 294.5 -153.5t74.5 -194.5q0 -156 -138 -249q-105 -70 -266 -87
l-62 -93q232 -25 232 -156q0 -69 -72 -116t-177 -47q-82 0 -188 30v91q71 -15 118 -15q121 0 121 60q0 84 -195 84h-20l104 158q-186 5 -370 60z" />
    <glyph glyph-name="Scaron" unicode="&#x160;" horiz-adv-x="1366" 
d="M102 13v252q284 -99 523 -99q340 0 340 197q0 128 -129 183l-137 52l-163 62q-261 99 -349 189t-88 256q0 412 604 412q254 0 483 -51v-234q-238 82 -461 82q-181 0 -251 -38t-70 -136q0 -62 34 -97t131 -71l114 -44l170 -63q247 -92 341.5 -190t94.5 -264
q0 -232 -172.5 -340.5t-543.5 -108.5q-139 0 -313 27zM1066 1925l-241 -321h-273l-241 321h179l197 -198h3l197 198h179z" />
    <glyph glyph-name="scaron" unicode="&#x161;" 
d="M123 36v216q230 -92 387 -92q221 0 221 120q0 73 -175 144l-100 40q-205 83 -266.5 144t-61.5 183q0 332 463 332q158 0 358 -39v-203q-220 57 -322 57q-207 0 -207 -112q0 -68 161 -129l86 -33q220 -83 294.5 -153.5t74.5 -194.5q0 -156 -137.5 -248.5t-369.5 -92.5
q-204 0 -406 61zM954 1604l-241 -321h-273l-241 321h179l197 -198h3l197 198h179z" />
    <glyph glyph-name="Tcedilla" unicode="&#x162;" horiz-adv-x="1251" 
d="M472 0v1277h-432v203h1172v-203h-432v-1277h-79l-76 -113q232 -25 232 -156q0 -69 -72 -116t-177 -47q-82 0 -188 30v91q71 -15 118 -15q121 0 121 60q0 84 -195 84h-20l121 182h-93z" />
    <glyph glyph-name="tcedilla" unicode="&#x163;" horiz-adv-x="682" 
d="M665 186v-185q-111 -25 -185 -26l-59 -88q232 -25 232 -156q0 -69 -72 -116t-177 -47q-82 0 -188 30v91q71 -15 118 -15q121 0 121 60q0 84 -195 84h-20l115 174q-193 60 -193 343v578h-120v185h120v215l296 34v-249h210v-185h-210v-539q0 -124 21 -162.5t87 -38.5
q40 0 99 13z" />
    <glyph glyph-name="Tcaron" unicode="&#x164;" horiz-adv-x="1251" 
d="M472 0v1277h-432v203h1172v-203h-432v-1277h-308zM1004 1925l-241 -321h-273l-241 321h179l197 -198h3l197 198h179z" />
    <glyph glyph-name="tcaron" unicode="&#x165;" horiz-adv-x="981" 
d="M665 186v-185q-114 -26 -190 -26q-313 0 -313 360v578h-120v185h120v215l296 34v-249h220v-185h-220v-539q0 -124 21 -162.5t87 -38.5q40 0 99 13zM795 1431h-114v296h259v-229q0 -342 -259 -363v102q114 0 114 165v29z" />
    <glyph glyph-name="Tbar" unicode="&#x166;" horiz-adv-x="1251" 
d="M472 0v703h-309v173h309v401h-432v203h1172v-203h-432v-401h309v-173h-309v-703h-308z" />
    <glyph glyph-name="tbar" unicode="&#x167;" horiz-adv-x="682" 
d="M64 555v148h98v210h-120v185h120v215l296 34v-249h210v-185h-210v-210h198v-148h-198v-181q0 -124 21 -162.5t87 -38.5q40 0 99 13v-185q-114 -26 -190 -26q-313 0 -313 360v220h-98z" />
    <glyph glyph-name="Utilde" unicode="&#x168;" horiz-adv-x="1479" 
d="M160 1480h308v-907q0 -214 70.5 -310t227.5 -96q284 0 284 383v930h268v-909q0 -205 -39 -312.5t-142 -186.5q-141 -109 -378 -109q-252 0 -407 116q-107 80 -149.5 189.5t-42.5 305.5v906zM556 1604h-148q0 321 202 321q64 0 126 -43l38 -26l31 -22q64 -45 91 -45
q67 0 67 136h148q0 -321 -201 -321q-64 0 -126 43l-39 26q-23 16 -31 22q-61 45 -90 45q-68 0 -68 -136z" />
    <glyph glyph-name="utilde" unicode="&#x169;" horiz-adv-x="1251" 
d="M808 0v182q-169 -207 -374 -207q-298 0 -298 347v776h296v-703q0 -107 25 -147t94 -40q119 0 257 174v716h296v-1098h-296zM416 1283h-148q0 321 202 321q64 0 126 -43l38 -26l31 -22q64 -45 91 -45q67 0 67 136h148q0 -321 -201 -321q-64 0 -126 43l-39 26
q-23 16 -31 22q-61 45 -90 45q-68 0 -68 -136z" />
    <glyph glyph-name="Umacron" unicode="&#x16a;" horiz-adv-x="1479" 
d="M160 1480h308v-907q0 -214 70.5 -310t227.5 -96q284 0 284 383v930h268v-909q0 -205 -39 -312.5t-142 -186.5q-141 -109 -378 -109q-252 0 -407 116q-107 80 -149.5 189.5t-42.5 305.5v906zM389 1624v173h740v-173h-740z" />
    <glyph glyph-name="umacron" unicode="&#x16b;" horiz-adv-x="1251" 
d="M808 0v182q-169 -207 -374 -207q-298 0 -298 347v776h296v-703q0 -107 25 -147t94 -40q119 0 257 174v716h296v-1098h-296zM250 1303v173h740v-173h-740z" />
    <glyph glyph-name="Ubreve" unicode="&#x16c;" horiz-adv-x="1479" 
d="M160 1480h308v-907q0 -214 70.5 -310t227.5 -96q284 0 284 383v930h268v-909q0 -205 -39 -312.5t-142 -186.5q-141 -109 -378 -109q-252 0 -407 116q-107 80 -149.5 189.5t-42.5 305.5v906zM406 1925h148q41 -142 206 -142q163 0 205 142h148q-16 -147 -112 -234
t-241 -87t-241 86.5t-113 234.5z" />
    <glyph glyph-name="ubreve" unicode="&#x16d;" horiz-adv-x="1251" 
d="M808 0v182q-169 -207 -374 -207q-298 0 -298 347v776h296v-703q0 -107 25 -147t94 -40q119 0 257 174v716h296v-1098h-296zM266 1604h148q41 -142 206 -142q163 0 205 142h148q-16 -147 -112 -234t-241 -87t-241 86.5t-113 234.5z" />
    <glyph glyph-name="Uring" unicode="&#x16e;" horiz-adv-x="1479" 
d="M160 1480h308v-907q0 -214 70.5 -310t227.5 -96q284 0 284 383v930h268v-909q0 -205 -39 -312.5t-142 -186.5q-141 -109 -378 -109q-252 0 -407 116q-107 80 -149.5 189.5t-42.5 305.5v906zM756 1604q-96 0 -163.5 69t-67.5 165q0 98 68 166.5t166 68.5q97 0 165.5 -68.5
t68.5 -165.5q0 -99 -68.5 -167t-168.5 -68zM757 1715q53 0 89 36t36 88q0 51 -36 87t-87 36t-87 -36t-36 -87t35.5 -87.5t85.5 -36.5z" />
    <glyph glyph-name="uring" unicode="&#x16f;" horiz-adv-x="1251" 
d="M808 0v182q-169 -207 -374 -207q-298 0 -298 347v776h296v-703q0 -107 25 -147t94 -40q119 0 257 174v716h296v-1098h-296zM616 1283q-96 0 -163.5 69t-67.5 165q0 98 68 166.5t166 68.5q97 0 165.5 -68.5t68.5 -165.5q0 -99 -68.5 -167t-168.5 -68zM617 1394q53 0 89 36
t36 88q0 51 -36 87t-87 36t-87 -36t-36 -87t35.5 -87.5t85.5 -36.5z" />
    <glyph glyph-name="Udblacute" unicode="&#x170;" horiz-adv-x="1479" 
d="M160 1480h308v-907q0 -214 70.5 -310t227.5 -96q284 0 284 383v930h268v-909q0 -205 -39 -312.5t-142 -186.5q-141 -109 -378 -109q-252 0 -407 116q-107 80 -149.5 189.5t-42.5 305.5v906zM444 1604l241 321h228l-321 -321h-148zM821 1604l240 321h229l-321 -321h-148z
" />
    <glyph glyph-name="udblacute" unicode="&#x171;" horiz-adv-x="1251" 
d="M808 0v182q-169 -207 -374 -207q-298 0 -298 347v776h296v-703q0 -107 25 -147t94 -40q119 0 257 174v716h296v-1098h-296zM284 1283l241 321h228l-321 -321h-148zM661 1283l240 321h229l-321 -321h-148z" />
    <glyph glyph-name="Uogonek" unicode="&#x172;" horiz-adv-x="1479" 
d="M160 1480h308v-907q0 -214 70.5 -310t227.5 -96q284 0 284 383v930h268v-909q0 -205 -39 -312.5t-142 -186.5q-68 -52 -157 -79q-170 -83 -170 -173q0 -95 162 -95q85 0 135 15v-81q-87 -29 -199 -29q-295 0 -295 159q0 95 146 174q-252 0 -407 116q-107 80 -149.5 189.5
t-42.5 305.5v906z" />
    <glyph glyph-name="uogonek" unicode="&#x173;" horiz-adv-x="1251" 
d="M808 0v182q-169 -207 -374 -207q-298 0 -298 347v776h296v-703q0 -107 25 -147t94 -40q119 0 257 174v716h296v-1098h-138q-186 -86 -186 -180q0 -95 162 -95q85 0 135 15v-81q-87 -29 -199 -29q-295 0 -295 159q0 118 225 211z" />
    <glyph glyph-name="Wcircumflex" unicode="&#x174;" horiz-adv-x="1933" 
d="M405 0l-380 1480h291l281 -1083l280 1083h257l255 -1086l301 1086h219l-411 -1480h-295l-240 1015l-264 -1015h-294zM628 1604l241 321h273l241 -321h-179l-197 197h-3l-197 -197h-179z" />
    <glyph glyph-name="wcircumflex" unicode="&#x175;" horiz-adv-x="1593" 
d="M328 0l-266 1098h267l185 -769l193 769h256l170 -773l200 773h199l-286 -1098h-283l-164 753l-187 -753h-284zM458 1283l241 321h273l241 -321h-179l-197 197h-3l-197 -197h-179z" />
    <glyph glyph-name="Ycircumflex" unicode="&#x176;" horiz-adv-x="1366" 
d="M519 0v620l-491 860h341l354 -625l372 625h244l-512 -858v-622h-308zM354 1604l241 321h273l241 -321h-179l-197 197h-3l-197 -197h-179z" />
    <glyph glyph-name="ycircumflex" unicode="&#x177;" 
d="M419 0l-394 1098h312l254 -710l302 710h220l-640 -1493h-302zM238 1283l241 321h273l241 -321h-179l-197 197h-3l-197 -197h-179z" />
    <glyph glyph-name="Ydieresis" unicode="&#x178;" horiz-adv-x="1366" 
d="M519 0v620l-491 860h341l354 -625l372 625h244l-512 -858v-622h-308zM411 1604v222h222v-222h-222zM830 1604v222h223v-222h-223z" />
    <glyph glyph-name="Zacute" unicode="&#x179;" horiz-adv-x="1251" 
d="M94 0v210l706 1067h-663v203h1021v-203l-706 -1067h706v-210h-1064zM435 1604l241 321h281l-321 -321h-201z" />
    <glyph glyph-name="zacute" unicode="&#x17a;" horiz-adv-x="1024" 
d="M111 0v197l471 716h-443v185h774v-185l-471 -716h483v-197h-814zM327 1283l241 321h281l-321 -321h-201z" />
    <glyph glyph-name="Zdot" unicode="&#x17b;" horiz-adv-x="1251" 
d="M94 0v210l706 1067h-663v203h1021v-203l-706 -1067h706v-210h-1064zM499 1634v296h296v-296h-296z" />
    <glyph glyph-name="zdot" unicode="&#x17c;" horiz-adv-x="1024" 
d="M111 0v197l471 716h-443v185h774v-185l-471 -716h483v-197h-814zM378 1283v296h296v-296h-296z" />
    <glyph glyph-name="Zcaron" unicode="&#x17d;" horiz-adv-x="1251" 
d="M94 0v210l706 1067h-663v203h1021v-203l-706 -1067h706v-210h-1064zM1025 1925l-241 -321h-273l-241 321h179l197 -198h3l197 198h179z" />
    <glyph glyph-name="zcaron" unicode="&#x17e;" horiz-adv-x="1024" 
d="M111 0v197l471 716h-443v185h774v-185l-471 -716h483v-197h-814zM904 1604l-241 -321h-273l-241 321h179l197 -198h3l197 198h179z" />
    <glyph glyph-name="longs" unicode="&#x17f;" horiz-adv-x="629" 
d="M166 0v913h-114v185h114v79q0 427 390 427q84 0 180 -26v-192q-82 33 -147 33q-127 0 -127 -231v-1188h-296z" />
    <glyph glyph-name="florin" unicode="&#x192;" 
d="M49 -296l198 993h-149v185h185l20 90q117 545 573 545q117 0 212 -18v-204q-123 38 -216 38q-201 0 -253 -274l-34 -177h177v-185h-214l-197 -993h-302z" />
    <glyph glyph-name="Aringacute" unicode="&#x1fa;" horiz-adv-x="1479" 
d="M645 1872l241 321h271l-321 -321h-1q39 -17 71 -50q69 -68 69 -165q0 -99 -69 -167l-12 -12l572 -1478h-315l-151 395h-612l-151 -395h-225l574 1480q-6 5 -12 11q-67 69 -67 165q0 98 68 166q32 33 71 50h-1zM464 592h460l-230 590zM739 1533q53 0 89 36t36 88
q0 51 -36 87t-87 36t-87 -36t-36 -87t35.5 -87.5t85.5 -36.5z" />
    <glyph glyph-name="aringacute" unicode="&#x1fb;" 
d="M1076 169l7 -166q-94 -28 -165 -28q-183 0 -235 143h-13q-107 -143 -276 -143q-146 0 -235.5 88.5t-89.5 232.5q0 374 522 374h79v100q0 171 -172 171q-155 0 -332 -98v204q181 76 380 76q408 0 408 -343v-486q0 -129 82 -129q16 0 40 4zM670 277v223h-70
q-247 0 -247 -178q0 -63 41.5 -104.5t105.5 -41.5q102 0 170 101zM546 1165q-96 0 -163.5 69t-67.5 165q0 98 68 166q32 32 70 50l241 320h271l-321 -321q38 -17 70 -49q69 -68 69 -165q0 -99 -68.5 -167t-168.5 -68zM547 1276q53 0 89 36t36 88q0 51 -36 87t-87 36t-87 -36
t-36 -87t35.5 -87.5t85.5 -36.5z" />
    <glyph glyph-name="AEacute" unicode="&#x1fc;" horiz-adv-x="2048" 
d="M12 0l896 1480h1031v-203h-679v-413h568v-204h-568v-450h726v-210h-1022v382h-476l-231 -382h-245zM604 574h360v595zM1069 1616l241 321h281l-321 -321h-201z" />
    <glyph glyph-name="aeacute" unicode="&#x1fd;" horiz-adv-x="1821" 
d="M804 192q-156 -217 -397 -217q-152 0 -245 87t-93 229q0 181 148.5 278t426.5 97h84v104q0 171 -202 171q-178 0 -359 -98v204q208 76 401 76q176 0 341 -121q154 121 338 121q239 0 352 -154t113 -479h-697q32 -314 353 -314q153 0 344 69v-208q-214 -62 -428 -62
q-308 0 -480 217zM728 277v223h-75q-300 0 -300 -179q0 -63 44.5 -104t111.5 -41q107 0 219 101zM1012 657h409q0 284 -189 284q-191 0 -220 -284zM778 1283l241 321h281l-321 -321h-201z" />
    <glyph glyph-name="Oslashacute" unicode="&#x1fe;" horiz-adv-x="1593" 
d="M1062 1190q-97 124 -266 124q-184 0 -286.5 -150.5t-102.5 -422.5q0 -165 48 -309zM531 290q98 -123 265 -123q185 0 287.5 150t102.5 421q0 165 -48 311zM80 -37l178 223q-178 226 -178 554q0 366 190.5 571.5t529.5 205.5q263 0 428 -119l95 119h190l-178 -223
q178 -223 178 -554q0 -366 -191 -571.5t-529 -205.5q-262 0 -428 120l-95 -120h-190zM599 1616l241 321h281l-321 -321h-201z" />
    <glyph glyph-name="oslashacute" unicode="&#x1ff;" horiz-adv-x="1251" 
d="M619 -25q-177 0 -304 81l-66 -81h-175l137 170q-137 155 -137 404q0 262 150 418t401 156q182 0 311 -82l66 82h175l-138 -170q138 -154 138 -402q0 -265 -150.5 -420.5t-407.5 -155.5zM623 160q124 0 195 104.5t71 286.5q1 101 -25 184l-406 -501q66 -74 165 -74z
M625 938q-121 0 -192 -105t-71 -284q-1 -102 26 -187l406 502q-69 74 -169 74zM424 1283l241 321h281l-321 -321h-201z" />
    <glyph glyph-name="Scommabelow" unicode="&#x218;" horiz-adv-x="1366" 
d="M102 13v252q284 -99 523 -99q340 0 340 197q0 128 -129 183l-137 52l-163 62q-261 99 -349 189t-88 256q0 412 604 412q254 0 483 -51v-234q-238 82 -461 82q-181 0 -251 -38t-70 -136q0 -62 34 -97t131 -71l114 -44l170 -63q247 -92 341.5 -190t94.5 -264
q0 -232 -172.5 -340.5t-543.5 -108.5q-139 0 -313 27zM579 -97q363 0 363 -171q0 -68 -70.5 -116t-170.5 -48q-82 0 -196 13v98q66 -6 111 -6q128 0 128 65q0 58 -165 66v99z" />
    <glyph glyph-name="scommabelow" unicode="&#x219;" 
d="M123 36v216q230 -92 387 -92q221 0 221 120q0 73 -175 144l-100 40q-205 83 -266.5 144t-61.5 183q0 332 463 332q158 0 358 -39v-203q-220 57 -322 57q-207 0 -207 -112q0 -68 161 -129l86 -33q220 -83 294.5 -153.5t74.5 -194.5q0 -156 -137.5 -248.5t-369.5 -92.5
q-204 0 -406 61zM456 -97q363 0 363 -171q0 -68 -70.5 -116t-170.5 -48q-82 0 -196 13v98q66 -6 111 -6q128 0 128 65q0 58 -165 66v99z" />
    <glyph glyph-name="Tcommabelow" unicode="&#x21a;" horiz-adv-x="1251" 
d="M472 0v1277h-432v203h1172v-203h-432v-1277h-308zM496 -97q363 0 363 -171q0 -68 -70.5 -116t-170.5 -48q-82 0 -196 13v98q66 -6 111 -6q128 0 128 65q0 58 -165 66v99z" />
    <glyph glyph-name="tcommabelow" unicode="&#x21b;" horiz-adv-x="682" 
d="M665 186v-185q-114 -26 -190 -26q-313 0 -313 360v578h-120v185h120v215l296 34v-249h210v-185h-210v-539q0 -124 21 -162.5t87 -38.5q40 0 99 13zM286 -97q363 0 363 -171q0 -68 -70.5 -116t-170.5 -48q-82 0 -196 13v98q66 -6 111 -6q128 0 128 65q0 58 -165 66v99z
" />
    <glyph glyph-name="circumflex" unicode="&#x2c6;" horiz-adv-x="682" 
d="M-36 1283l241 321h273l241 -321h-179l-197 197h-3l-197 -197h-179z" />
    <glyph glyph-name="caron" unicode="&#x2c7;" horiz-adv-x="682" 
d="M719 1604l-241 -321h-273l-241 321h179l197 -198h3l197 198h179z" />
    <glyph glyph-name="uni02C9" unicode="&#x2c9;" horiz-adv-x="682" 
d="M-29 1283v173h740v-173h-740z" />
    <glyph glyph-name="breve" unicode="&#x2d8;" horiz-adv-x="682" 
d="M-13 1604h148q41 -142 206 -142q163 0 205 142h148q-16 -147 -112 -234t-241 -87t-241 86.5t-113 234.5z" />
    <glyph glyph-name="dotaccent" unicode="&#x2d9;" horiz-adv-x="682" 
d="M193 1283v296h296v-296h-296z" />
    <glyph glyph-name="ring" unicode="&#x2da;" horiz-adv-x="682" 
d="M338 1283q-96 0 -163.5 69t-67.5 165q0 98 68 166.5t166 68.5q97 0 165.5 -68.5t68.5 -165.5q0 -99 -68.5 -167t-168.5 -68zM339 1394q53 0 89 36t36 88q0 51 -36 87t-87 36t-87 -36t-36 -87t35.5 -87.5t85.5 -36.5z" />
    <glyph glyph-name="ogonek" unicode="&#x2db;" horiz-adv-x="682" 
d="M319 0h158q-186 -86 -186 -180q0 -95 162 -95q85 0 135 15v-81q-87 -29 -199 -29q-295 0 -295 159q0 118 225 211z" />
    <glyph glyph-name="tilde" unicode="&#x2dc;" horiz-adv-x="682" 
d="M137 1283h-148q0 321 202 321q64 0 126 -43l38 -26l31 -22q64 -45 91 -45q67 0 67 136h148q0 -321 -201 -321q-64 0 -126 43l-39 26q-23 16 -31 22q-61 45 -90 45q-68 0 -68 -136z" />
    <glyph glyph-name="hungarumlaut" unicode="&#x2dd;" horiz-adv-x="682" 
d="M-82 1283l241 321h228l-321 -321h-148zM295 1283l240 321h229l-321 -321h-148z" />
    <glyph glyph-name="tonos" unicode="&#x384;" horiz-adv-x="682" 
d="M118 1283l210 419h274l-336 -419h-148z" />
    <glyph glyph-name="dieresistonos" unicode="&#x385;" horiz-adv-x="952" 
d="M25 1283v222h222v-222h-222zM704 1283v222h222v-222h-222zM346 1394l210 419h274l-336 -419h-148z" />
    <glyph glyph-name="Alphatonos" unicode="&#x386;" horiz-adv-x="1479" 
d="M12 0l574 1480h308l572 -1480h-315l-151 395h-612l-151 -395h-225zM464 592h460l-230 590zM10 1283l210 419h274l-336 -419h-148z" />
    <glyph glyph-name="anoteleia" unicode="&#x387;" horiz-adv-x="682" 
d="M180 777v321h321v-321h-321z" />
    <glyph glyph-name="Epsilontonos" unicode="&#x388;" horiz-adv-x="1747" 
d="M554 0v1480h1086v-203h-778v-413h667v-198h-667v-456h825v-210h-1133zM10 1283l210 419h274l-336 -419h-148z" />
    <glyph glyph-name="Etatonos" unicode="&#x389;" horiz-adv-x="1855" 
d="M549 0v1480h308v-601h517v601h308v-1480h-308v675h-517v-675h-308zM10 1283l210 419h274l-336 -419h-148z" />
    <glyph glyph-name="Iotatonos" unicode="&#x38a;" horiz-adv-x="1154" 
d="M326 0v210h210v1060h-210v210h728v-210h-210v-1060h210v-210h-728zM-150 1283l210 419h274l-336 -419h-148z" />
    <glyph glyph-name="Omicrontonos" unicode="&#x38c;" horiz-adv-x="1689" 
d="M882 -37q-328 0 -517 208.5t-189 568.5q0 365 190.5 571t526.5 206q335 0 525.5 -206t190.5 -568q0 -370 -191 -575t-536 -205zM887 167q190 0 292.5 149.5t102.5 427.5q0 269 -102.5 419.5t-286.5 150.5q-185 0 -287.5 -150.5t-102.5 -423.5q0 -269 102 -421t282 -152z
M0 1283l210 419h274l-336 -419h-148z" />
    <glyph glyph-name="Upsilontonos" unicode="&#x38e;" horiz-adv-x="1899" 
d="M1048 0v436q0 339 -147 587t-348 248v209q292 0 459.5 -145.5t245.5 -469.5q91 266 258.5 430.5t362.5 184.5v-185q-207 -49 -364.5 -311t-157.5 -564v-420h-309zM20 1283l210 419h274l-336 -419h-148z" />
    <glyph glyph-name="Omegatonos" unicode="&#x38f;" horiz-adv-x="1716" 
d="M169 0v215h374q-172 136 -258 292.5t-86 344.5q0 295 193.5 480t502.5 185q308 0 501.5 -185t193.5 -480q0 -187 -86 -344t-258 -293h374v-215h-619v215q131 112 201.5 263t70.5 352q0 225 -104 354.5t-274 129.5q-171 0 -275 -130t-104 -355q0 -201 70.5 -351.5
t201.5 -262.5v-215h-619zM0 1283l210 419h274l-336 -419h-148z" />
    <glyph glyph-name="iotadieresistonos" unicode="&#x390;" horiz-adv-x="788" 
d="M737 25q-119 -50 -241 -50q-160 0 -246 73q-62 52 -83.5 133t-21.5 261v656h296v-674q0 -140 32.5 -197.5t110.5 -57.5q66 0 153 42v-186zM-56 1283v222h222v-222h-222zM623 1283v222h222v-222h-222zM265 1394l210 419h274l-336 -419h-148z" />
    <glyph glyph-name="Alpha" unicode="&#x391;" horiz-adv-x="1479" 
d="M12 0l574 1480h308l572 -1480h-315l-151 395h-612l-151 -395h-225zM464 592h460l-230 590z" />
    <glyph glyph-name="Beta" unicode="&#x392;" horiz-adv-x="1479" 
d="M173 0v1480h716q456 0 456 -329q0 -267 -355 -378q416 -100 416 -407q0 -177 -121.5 -271.5t-349.5 -94.5h-762zM463 864h286q130 0 206.5 64.5t76.5 173.5q0 101 -61.5 138t-232.5 37h-275v-413zM463 210h279q194 0 267.5 41.5t73.5 150.5q0 114 -98.5 189t-248.5 75
h-273v-456z" />
    <glyph glyph-name="Gamma" unicode="&#x393;" horiz-adv-x="1231" 
d="M481 0h-308v1480h1038v-223h-730v-1257z" />
    <glyph glyph-name="uni0394" unicode="&#x394;" horiz-adv-x="1472" 
d="M30 0v247l574 1233h262l576 -1233v-247h-1412zM686 1156l-419 -909h840z" />
    <glyph glyph-name="Epsilon" unicode="&#x395;" horiz-adv-x="1366" 
d="M173 0v1480h1086v-203h-778v-413h667v-198h-667v-456h825v-210h-1133z" />
    <glyph glyph-name="Zeta" unicode="&#x396;" horiz-adv-x="1251" 
d="M94 0v210l706 1067h-663v203h1021v-203l-706 -1067h706v-210h-1064z" />
    <glyph glyph-name="Eta" unicode="&#x397;" horiz-adv-x="1479" 
d="M173 0v1480h308v-601h517v601h308v-1480h-308v675h-517v-675h-308z" />
    <glyph glyph-name="Theta" unicode="&#x398;" horiz-adv-x="1593" 
d="M786 -37q-328 0 -517 208.5t-189 568.5q0 365 190.5 571t526.5 206q335 0 525.5 -206t190.5 -568q0 -370 -191 -575t-536 -205zM791 167q190 0 292.5 149.5t102.5 427.5q0 269 -102.5 419.5t-286.5 150.5q-185 0 -287.5 -150.5t-102.5 -423.5q0 -269 102 -421t282 -152z
M567 666v204h460v-204h-460z" />
    <glyph glyph-name="Iota" unicode="&#x399;" horiz-adv-x="928" 
d="M100 0v210h210v1060h-210v210h728v-210h-210v-1060h210v-210h-728z" />
    <glyph glyph-name="Kappa" unicode="&#x39a;" horiz-adv-x="1479" 
d="M173 0v1480h296v-718l616 718h255l-562 -664l686 -816h-385l-610 728v-728h-296z" />
    <glyph glyph-name="Lambda" unicode="&#x39b;" horiz-adv-x="1366" 
d="M1027 0l-389 1134l-387 -1134h-237l514 1480h314l510 -1480h-325z" />
    <glyph glyph-name="Mu" unicode="&#x39c;" horiz-adv-x="1706" 
d="M173 0v1480h408l292 -1041l303 1041h358v-1480h-284v1117l-297 -1018h-248l-290 1033v-1132h-242z" />
    <glyph glyph-name="Nu" unicode="&#x39d;" horiz-adv-x="1479" 
d="M173 0v1480h271l615 -1011v1011h247v-1480h-275l-611 1011v-1011h-247z" />
    <glyph glyph-name="Xi" unicode="&#x39e;" horiz-adv-x="1318" 
d="M40 0v260h1238v-260h-1238zM194 642v240h930v-240h-930zM96 1230v250h1126v-250h-1126z" />
    <glyph glyph-name="Omicron" unicode="&#x39f;" horiz-adv-x="1593" 
d="M786 -37q-328 0 -517 208.5t-189 568.5q0 365 190.5 571t526.5 206q335 0 525.5 -206t190.5 -568q0 -370 -191 -575t-536 -205zM791 167q190 0 292.5 149.5t102.5 427.5q0 269 -102.5 419.5t-286.5 150.5q-185 0 -287.5 -150.5t-102.5 -423.5q0 -269 102 -421t282 -152z
" />
    <glyph glyph-name="Pi" unicode="&#x3a0;" horiz-adv-x="1479" 
d="M173 0v1480h1133v-1480h-308v1277h-517v-1277h-308z" />
    <glyph glyph-name="Rho" unicode="&#x3a1;" horiz-adv-x="1366" 
d="M173 0v1480h602q189 0 282 -23.5t158 -93.5q91 -97 91 -276q0 -507 -617 -507h-214v-580h-302zM475 783h146q370 0 370 274q0 122 -73 171t-238 49h-205v-494z" />
    <glyph glyph-name="Sigma" unicode="&#x3a3;" horiz-adv-x="1229" 
d="M70 0v244l475 483l-426 550v203h1050v-203h-658l390 -506l-520 -524h798v-247h-1109z" />
    <glyph glyph-name="Tau" unicode="&#x3a4;" horiz-adv-x="1251" 
d="M472 0v1267h-432v213h1172v-213h-432v-1267h-308z" />
    <glyph glyph-name="Upsilon" unicode="&#x3a5;" horiz-adv-x="1366" 
d="M515 0v436q0 339 -147 587t-348 248v209q292 0 459.5 -145.5t245.5 -469.5q91 266 258.5 430.5t362.5 184.5v-185q-207 -49 -364.5 -311t-157.5 -564v-420h-309z" />
    <glyph glyph-name="Phi" unicode="&#x3a6;" horiz-adv-x="1681" 
d="M706 0v202q-278 12 -439.5 159t-161.5 379q0 233 161.5 379.5t439.5 158.5v202h270v-202q268 -12 434 -158.5t166 -379.5q0 -232 -161 -379t-439 -159v-202h-270zM706 1075q-166 -13 -248.5 -99.5t-82.5 -235.5q0 -150 82.5 -236t248.5 -98v669zM976 1075v-669
q166 12 248 98t82 236q0 149 -82 235.5t-248 99.5z" />
    <glyph glyph-name="Chi" unicode="&#x3a7;" horiz-adv-x="1366" 
d="M49 0l474 729l-453 751h359l301 -498l326 498h249l-454 -698l470 -782h-358l-321 529l-344 -529h-249z" />
    <glyph glyph-name="Psi" unicode="&#x3a8;" horiz-adv-x="1657" 
d="M674 0v575q-214 23 -312.5 113.5t-130.5 303.5l-14 91q-18 120 -44 157t-80 37h-13v203h19q179 0 259 -68.5t118 -277.5l18 -96q27 -149 62.5 -205.5t117.5 -66.5v714h309v-714q82 10 117.5 66.5t62.5 205.5l18 96q38 209 118 277.5t259 68.5h19v-203h-13q-54 0 -80 -37
t-44 -157l-14 -91q-32 -213 -131 -303.5t-312 -113.5v-575h-309z" />
    <glyph glyph-name="uni03A9" unicode="&#x3a9;" horiz-adv-x="1642" 
d="M95 0v215h374q-172 136 -258 292.5t-86 344.5q0 295 193.5 480t502.5 185q308 0 501.5 -185t193.5 -480q0 -187 -86 -344t-258 -293h374v-215h-619v215q131 112 201.5 263t70.5 352q0 225 -104 354.5t-274 129.5q-171 0 -275 -130t-104 -355q0 -201 70.5 -351.5
t201.5 -262.5v-215h-619z" />
    <glyph glyph-name="Iotadieresis" unicode="&#x3aa;" horiz-adv-x="928" 
d="M128 1604v222h222v-222h-222zM567 1604v222h223v-222h-223zM100 0v200h210v1070h-210v210h728v-210h-210v-1070h210v-200h-728z" />
    <glyph glyph-name="Upsilondieresis" unicode="&#x3ab;" horiz-adv-x="1366" 
d="M515 0v436q0 339 -147 587t-348 248v209q292 0 459.5 -145.5t245.5 -469.5q91 266 258.5 430.5t362.5 184.5v-185q-207 -49 -364.5 -311t-157.5 -564v-420h-309zM373 1604v222h222v-222h-222zM812 1604v222h223v-222h-223z" />
    <glyph glyph-name="alphatonos" unicode="&#x3ac;" horiz-adv-x="1259" 
d="M505 1283l210 419h274l-336 -419h-148zM960 0q-12 24 -25.5 57.5t-29 72.5t-33.5 82t-37 85q-26 -52 -59 -108.5t-79.5 -103.5t-108.5 -77.5t-145 -30.5q-105 0 -175.5 44.5t-113.5 118.5t-61.5 169.5t-18.5 197.5q0 68 8 140.5t27.5 140.5t51.5 129t79.5 107t111.5 72.5
t148 26.5q76 0 130 -22.5t93.5 -62.5t69.5 -93.5t57 -116.5l50 -114q10 32 21 76.5t21 95.5t17 105.5t9 106.5h239q-27 -169 -85 -316.5t-131 -284.5q20 -51 47.5 -113t58 -127.5l61 -131t56.5 -123.5zM717 579q-29 68 -51.5 126.5t-45 101t-47.5 67t-58 24.5
q-43 0 -69 -36.5t-40 -93t-18.5 -126t-4.5 -135.5q0 -54 3.5 -111t15.5 -103.5t36 -76.5t65 -30q45 0 85.5 29t74 71.5t59 91.5t42.5 90z" />
    <glyph glyph-name="epsilontonos" unicode="&#x3ad;" horiz-adv-x="924" 
d="M435 1283l210 419h274l-336 -419h-148zM901 239v-191q-213 -73 -385 -73q-199 0 -322 86t-123 225q0 203 286 312q-249 63 -249 246q0 130 124 204.5t340 74.5q155 0 299 -29v-184q-144 29 -267 29q-200 0 -200 -118q0 -141 329 -141h51v-185h-106q-299 0 -299 -178
q0 -155 203 -155q121 0 319 77z" />
    <glyph glyph-name="etatonos" unicode="&#x3ae;" horiz-adv-x="1251" 
d="M130 0v769q0 190 -65 329h320q22 -77 41 -208q161 233 374 233q158 0 237 -96t79 -287v-1135h-296v1083q0 97 -34 145.5t-102 48.5q-136 0 -258 -188v-694h-296zM455 1283l210 419h274l-336 -419h-148z" />
    <glyph glyph-name="iotatonos" unicode="&#x3af;" horiz-adv-x="788" 
d="M737 25q-119 -50 -241 -50q-160 0 -246 73q-62 52 -83.5 133t-21.5 261v656h296v-674q0 -140 32.5 -197.5t110.5 -57.5q66 0 153 42v-186zM195 1283l210 419h274l-336 -419h-148z" />
    <glyph glyph-name="upsilondieresistonos" unicode="&#x3b0;" horiz-adv-x="1192" 
d="M135 1098h296v-528q0 -237 48.5 -323.5t157.5 -86.5q114 0 169.5 91t52.5 217q3 297 -196 630h308q106 -278 106 -541q0 -267 -132.5 -424.5t-354.5 -157.5q-195 0 -321 118q-80 74 -107 172.5t-27 312.5v520zM135 1283v222h222v-222h-222zM814 1283v222h222v-222h-222z
M456 1394l210 419h274l-336 -419h-148z" />
    <glyph glyph-name="alpha" unicode="&#x3b1;" horiz-adv-x="1259" 
d="M960 0q-12 24 -25.5 57.5t-29 72.5t-33.5 82t-37 85q-26 -52 -59 -108.5t-79.5 -103.5t-108.5 -77.5t-145 -30.5q-105 0 -175.5 44.5t-113.5 118.5t-61.5 169.5t-18.5 197.5q0 68 8 140.5t27.5 140.5t51.5 129t79.5 107t111.5 72.5t148 26.5q76 0 130 -22.5t93.5 -62.5
t69.5 -93.5t57 -116.5l50 -114q10 32 21 76.5t21 95.5t17 105.5t9 106.5h239q-27 -169 -85 -316.5t-131 -284.5q20 -51 47.5 -113t58 -127.5l61 -131t56.5 -123.5zM717 579q-29 68 -51.5 126.5t-45 101t-47.5 67t-58 24.5q-43 0 -69 -36.5t-40 -93t-18.5 -126t-4.5 -135.5
q0 -54 3.5 -111t15.5 -103.5t36 -76.5t65 -30q45 0 85.5 29t74 71.5t59 91.5t42.5 90z" />
    <glyph glyph-name="beta" unicode="&#x3b2;" horiz-adv-x="1250" 
d="M148 -395v1359q0 320 126.5 480t380.5 160q170 0 283.5 -95.5t113.5 -255.5q0 -119 -64.5 -213.5t-215.5 -171.5q188 -46 289 -162.5t101 -278.5q0 -193 -142 -322.5t-361 -129.5q-96 0 -215 38v-408h-296zM505 916h25q105 0 166.5 91.5t61.5 226.5q0 92 -36.5 138.5
t-94.5 46.5q-92 0 -137.5 -93.5t-45.5 -280.5v-832q102 -53 195 -53q97 0 161.5 75.5t64.5 185.5q0 134 -98 225t-235 91h-27v179z" />
    <glyph glyph-name="gamma" unicode="&#x3b3;" 
d="M453 128q-52 136 -106 270t-110 259t-114 237t-116 204h338q42 -75 78.5 -157.5t69.5 -169t63 -173.5t59 -171q56 152 129 325.5t164 345.5h224q-35 -52 -73.5 -125t-78 -157t-78 -173.5t-73 -175t-63.5 -161.5t-48 -132q58 -186 58 -284q0 -132 -72 -285h-251
q-61 138 -61 248q0 95 61 275z" />
    <glyph glyph-name="delta" unicode="&#x3b4;" horiz-adv-x="1242" 
d="M446 973q-184 103 -255 178t-71 164q0 137 132 213t369 76q168 0 316 -34v-208q-157 57 -321 57q-100 0 -150 -23t-50 -68q0 -44 96 -102l94 -59l92 -56l89 -55q201 -127 288.5 -256.5t87.5 -302.5q0 -231 -151.5 -376.5t-391.5 -145.5t-393 137t-153 351q0 173 93 300.5
t279 209.5zM619 853q-119 -68 -178 -163t-59 -217q0 -140 66.5 -226.5t173.5 -86.5q102 0 167 89t65 229q0 126 -52.5 209.5t-182.5 165.5z" />
    <glyph glyph-name="epsilon" unicode="&#x3b5;" horiz-adv-x="972" 
d="M901 239v-191q-213 -73 -385 -73q-199 0 -322 86t-123 225q0 203 286 312q-249 63 -249 246q0 130 124 204.5t340 74.5q155 0 299 -29v-184q-144 29 -267 29q-200 0 -200 -118q0 -141 329 -141h51v-185h-106q-299 0 -299 -178q0 -155 203 -155q121 0 319 77z" />
    <glyph glyph-name="zeta" unicode="&#x3b6;" horiz-adv-x="943" 
d="M337 1141q-94 7 -175.5 31t-162.5 55v257q60 -36 111 -63t106.5 -48t123 -37t160.5 -28q49 56 97.5 101t103.5 81t119 63.5t145 50.5l77 -152q-34 -45 -72 -88t-89 -81.5t-118 -72t-159 -60.5q-57 -70 -100.5 -151.5t-73 -167t-44 -172t-14.5 -165.5q0 -66 8 -115
t35.5 -81t79 -48t138.5 -16h20q93 0 157.5 -24t105 -65.5t59 -97t18.5 -117.5q0 -81 -20.5 -145.5t-63 -109.5t-108.5 -69.5t-156 -24.5q-32 0 -76 4.5t-96 14.5v203l44 -11t39.5 -8t39.5 -4.5t46 -1.5q54 0 84 29.5t30 89.5q0 32 -14.5 52t-37.5 31.5t-51 15.5t-55 4h-21
q-141 0 -237.5 32.5t-155.5 95t-85 153.5t-26 207q0 163 64.5 330.5t199.5 322.5z" />
    <glyph glyph-name="eta" unicode="&#x3b7;" horiz-adv-x="1251" 
d="M130 0v769q0 190 -65 329h320q22 -77 41 -208q161 233 374 233q158 0 237 -96t79 -287v-1135h-296v1083q0 97 -34 145.5t-102 48.5q-136 0 -258 -188v-694h-296z" />
    <glyph glyph-name="theta" unicode="&#x3b8;" horiz-adv-x="1107" 
d="M366 897h375q0 262 -44.5 392t-142.5 130t-143 -130t-45 -392zM364 712v-43q0 -49 1 -106t7 -113.5t17.5 -108.5t33 -92.5t53.5 -64.5t78 -24t77.5 24t52.5 64.5t33 93t17.5 109t7 113t1.5 105.5v43h-379zM554 -25q-98 0 -171.5 32.5t-127 90t-88.5 135.5t-55.5 168.5
t-29 189.5t-8.5 199q0 99 8.5 198t29 189.5t55.5 168.5t88.5 135.5t127 90t171.5 32.5t171.5 -32.5t127 -90t88 -135.5t55 -168.5t29 -189.5t8.5 -198q0 -100 -8.5 -199t-29 -189.5t-55 -168.5t-88 -135.5t-127 -90t-171.5 -32.5z" />
    <glyph glyph-name="iota" unicode="&#x3b9;" horiz-adv-x="788" 
d="M737 25q-119 -50 -241 -50q-160 0 -246 73q-62 52 -83.5 133t-21.5 261v656h296v-674q0 -140 32.5 -197.5t110.5 -57.5q66 0 153 42v-186z" />
    <glyph glyph-name="kappa" unicode="&#x3ba;" horiz-adv-x="1142" 
d="M148 0v1098h296v-525l82 104l101 126q155 193 231.5 244t214.5 51v-206l-25 1q-64 0 -125 -48t-164 -178l-50 -62l414 -605h-319l-360 533v-533h-296z" />
    <glyph glyph-name="lambda" unicode="&#x3bb;" 
d="M830 0q-32 60 -54 110.5t-41 99.5t-36.5 100t-40.5 112l-119 319l-290 -741h-222l403 1032l-45 123q-24 64 -46.5 102t-51.5 57.5t-70.5 25t-102.5 5.5h-21v234h30q92 0 161 -6t121 -22t90 -44t69.5 -71t59 -104.5t58.5 -143.5l262 -705q29 -78 55.5 -145t53 -125.5
t53 -111t56.5 -101.5h-332z" />
    <glyph glyph-name="uni03BC" unicode="&#x3bc;" horiz-adv-x="1253" 
d="M148 -395v1493h296v-678q0 -102 34 -153t128 -51q101 0 225 191v691h296v-770q0 -191 61 -328h-320q-22 79 -37 207q-124 -226 -262 -226q-77 0 -125 31v-407h-296z" />
    <glyph glyph-name="nu" unicode="&#x3bd;" 
d="M397 0q-20 76 -47.5 171t-60 197.5t-68 207.5t-72 201.5t-72.5 179.5t-68 141h332q32 -70 60.5 -148.5t54 -159t48 -160t42 -151t35.5 -132t28 -103.5q22 36 47 87t50 111t47.5 126t39.5 131.5t27.5 127.5t10.5 114q0 79 -30 157h258q15 -53 15 -109q0 -65 -18.5 -146
t-49.5 -170t-70.5 -182t-81.5 -181t-83.5 -168t-75.5 -142h-298z" />
    <glyph glyph-name="xi" unicode="&#x3be;" horiz-adv-x="912" 
d="M425 824q-139 45 -203 121.5t-64 188.5q0 51 17 103t53 94q-32 5 -58.5 12t-51 16t-48 19.5t-49.5 22.5v215q46 -25 86 -45.5t81 -36.5t88 -28t107 -21q22 21 52 42.5t67.5 38.5t83 27.5t98.5 10.5q40 0 89 -4.5t94 -12.5l36 -117q-29 -32 -69.5 -61t-92.5 -51t-115 -35
t-138 -13q-23 -34 -39 -73.5t-16 -100.5q0 -36 12 -78.5t43.5 -78.5t86.5 -60.5t142 -24.5h129v-185h-121q-107 0 -175 -24t-108 -63t-55 -88t-15 -99q0 -52 15.5 -90t43.5 -62.5t65.5 -36.5t82.5 -12h32q102 0 174.5 -19t118 -57.5t66.5 -96t21 -133.5q0 -99 -34.5 -166
t-96.5 -107t-147.5 -57t-186.5 -17q-42 0 -88 4.5t-97 14.5v203q94 -25 199 -25q61 0 102 7.5t66 22.5t35.5 37t10.5 52q0 37 -22.5 58t-55 31t-68.5 12t-63 2h-23q-117 0 -201.5 26t-139 76.5t-81 123.5t-26.5 168q0 70 21 135.5t64.5 121.5t109.5 100.5t156 72.5z" />
    <glyph glyph-name="omicron" unicode="&#x3bf;" horiz-adv-x="1251" 
d="M619 -25q-246 0 -395.5 157.5t-149.5 416.5q0 262 150 418t401 156t401.5 -156t150.5 -416q0 -265 -150.5 -420.5t-407.5 -155.5zM623 160q112 0 176 104.5t64 286.5q0 177 -64.5 282t-173.5 105t-173 -105t-64 -284q0 -177 64 -283t171 -106z" />
    <glyph glyph-name="pi" unicode="&#x3c0;" horiz-adv-x="1568" 
d="M334 0v876h-20q-115 0 -281 -108v261q125 69 321 69h1153v-222h-245v-563q0 -219 108 -313h-338q-66 83 -66 329v547h-336v-876h-296z" />
    <glyph glyph-name="rho" unicode="&#x3c1;" horiz-adv-x="1267" 
d="M135 -395v714q0 442 123 623t390 181q284 0 414.5 -133t130.5 -367q0 -268 -161.5 -445.5t-426.5 -177.5q-92 0 -174 27v-422h-296zM431 238q77 -53 164 -53q143 0 222.5 118t79.5 299q0 156 -60.5 246t-186.5 90t-172.5 -110t-46.5 -391v-199z" />
    <glyph glyph-name="sigma1" unicode="&#x3c2;" horiz-adv-x="1065" 
d="M414 -197q94 -25 199 -25q243 0 243 119q0 39 -22.5 59.5t-55.5 30.5t-70.5 11.5t-67.5 1.5h-62q-132 0 -227.5 29t-157 87t-90.5 145t-29 204q0 103 26 192t72 162t109 129.5t137 95.5t156 59t177 20q40 0 77.5 -1.5t68.5 -4.5t58 -7.5t57 -10.5v-200q-32 10 -59.5 17
t-54 12t-53.5 7.5t-57 2.5q-103 0 -181.5 -33t-131 -92t-79 -140t-26.5 -177q0 -69 14.5 -118.5t48 -81.5t87.5 -47t133 -15h34q407 0 407 -306q0 -70 -22 -123t-59.5 -91.5t-87 -64t-104.5 -41t-112.5 -21.5t-109.5 -6q-84 0 -185 19v203z" />
    <glyph glyph-name="sigma" unicode="&#x3c3;" horiz-adv-x="1401" 
d="M623 160q112 0 176 104.5t64 286.5q0 177 -64.5 282t-173.5 105t-173 -105t-64 -284q0 -177 64 -283t171 -106zM619 -25q-246 0 -395.5 157.5t-149.5 416.5q0 262 150 418t401 156q100 0 184 -25h578v-210h-299q89 -138 89 -337q0 -265 -150.5 -420.5t-407.5 -155.5z" />
    <glyph glyph-name="tau" unicode="&#x3c4;" horiz-adv-x="914" 
d="M391 0q-68 153 -68 427v461h-103q-97 0 -210 -49v220q105 39 236 39h658v-210h-285v-571q0 -196 79 -317h-307z" />
    <glyph glyph-name="upsilon" unicode="&#x3c5;" horiz-adv-x="1192" 
d="M135 1098h296v-528q0 -237 48.5 -323.5t157.5 -86.5q114 0 169.5 91t52.5 217q3 297 -196 630h308q106 -278 106 -541q0 -267 -132.5 -424.5t-354.5 -157.5q-195 0 -321 118q-80 74 -107 172.5t-27 312.5v520z" />
    <glyph glyph-name="phi" unicode="&#x3c6;" horiz-adv-x="1465" 
d="M553 1098v-185q-49 0 -87.5 -24.5t-64.5 -68.5t-40 -106.5t-14 -137.5q0 -85 9.5 -149t34.5 -111t68 -78.5t110 -52.5v225q0 166 12 298t53 224.5t119.5 141.5t210.5 49q114 0 195 -32.5t132.5 -95t75.5 -152.5t24 -205q0 -150 -36.5 -264t-107 -193t-173 -124
t-234.5 -57v-395h-271v395q-134 14 -228 57t-153 117t-86.5 180t-27.5 245q0 119 30 212t89.5 156.5t149.5 97t210 33.5zM840 185q88 9 142.5 51.5t84.5 106.5t40 143.5t10 162.5q0 60 -8 112.5t-25.5 91.5t-44.5 62t-65 23q-39 0 -65 -21.5t-41 -64t-21.5 -105t-6.5 -144.5
v-418z" />
    <glyph glyph-name="chi" unicode="&#x3c7;" horiz-adv-x="1179" 
d="M449 377l-207 380q-55 100 -104.5 184.5t-100.5 156.5h313q22 -32 48 -70t58.5 -90t73.5 -121t92 -162l275 443h246l-406 -655l233 -423q27 -48 58.5 -105t63.5 -113.5t62.5 -108t54.5 -88.5h-324q-57 85 -106 171.5t-99 178.5l-114 212l-348 -562h-247z" />
    <glyph glyph-name="psi" unicode="&#x3c8;" horiz-adv-x="1543" 
d="M624 -395v395q-254 21 -383 166t-129 483v135q0 208 -63 314h282q55 -102 55 -305v-119q0 -251 43 -352.5t195 -136.5v1098h273v-1098q120 26 194 135.5t74 332.5q0 228 -81 445h278q77 -212 77 -443q0 -302 -156.5 -471t-385.5 -184v-395h-273z" />
    <glyph glyph-name="omega" unicode="&#x3c9;" horiz-adv-x="1730" 
d="M865 275q-69 -151 -170 -225.5t-242 -74.5q-71 0 -126.5 23.5t-97.5 64t-71.5 95t-48 116.5t-27 129t-8.5 132q0 150 32 290t101 273h295q-82 -146 -120 -286t-38 -278q0 -50 9.5 -110.5t30.5 -113t56 -88t86 -35.5q80 0 131 66.5t87 199.5q-58 137 -58 254q0 140 60 289
h238q59 -150 59 -289q0 -115 -57 -254q12 -42 29 -89t43 -86t62 -65t85 -26q37 0 64.5 17.5t47.5 46.5t33.5 66t21.5 75.5t11 75.5t3 66q0 138 -38 278t-120 286h295q69 -134 101 -273.5t32 -289.5q0 -64 -8 -130t-26.5 -128t-47.5 -117t-71 -96t-98 -65t-127 -24
q-145 0 -245.5 75t-167.5 225z" />
    <glyph glyph-name="iotadieresis" unicode="&#x3ca;" horiz-adv-x="788" 
d="M737 25q-119 -50 -241 -50q-160 0 -246 73q-62 52 -83.5 133t-21.5 261v656h296v-674q0 -140 32.5 -197.5t110.5 -57.5q66 0 153 42v-186zM-1 1283v222h222v-222h-222zM438 1283v222h223v-222h-223z" />
    <glyph glyph-name="upsilondieresis" unicode="&#x3cb;" horiz-adv-x="1192" 
d="M135 1098h296v-528q0 -237 48.5 -323.5t157.5 -86.5q114 0 169.5 91t52.5 217q3 297 -196 630h308q106 -278 106 -541q0 -267 -132.5 -424.5t-354.5 -157.5q-195 0 -321 118q-80 74 -107 172.5t-27 312.5v520zM259 1283v222h222v-222h-222zM698 1283v222h223v-222h-223z
" />
    <glyph glyph-name="omicrontonos" unicode="&#x3cc;" horiz-adv-x="1251" 
d="M619 -25q-246 0 -395.5 157.5t-149.5 416.5q0 262 150 418t401 156t401.5 -156t150.5 -416q0 -265 -150.5 -420.5t-407.5 -155.5zM623 160q112 0 176 104.5t64 286.5q0 177 -64.5 282t-173.5 105t-173 -105t-64 -284q0 -177 64 -283t171 -106zM505 1283l210 419h274
l-336 -419h-148z" />
    <glyph glyph-name="upsilontonos" unicode="&#x3cd;" horiz-adv-x="1192" 
d="M135 1098h296v-528q0 -237 48.5 -323.5t157.5 -86.5q114 0 169.5 91t52.5 217q3 297 -196 630h308q106 -278 106 -541q0 -267 -132.5 -424.5t-354.5 -157.5q-195 0 -321 118q-80 74 -107 172.5t-27 312.5v520zM445 1283l210 419h274l-336 -419h-148z" />
    <glyph glyph-name="omegatonos" unicode="&#x3ce;" horiz-adv-x="1730" 
d="M685 1283l210 419h274l-336 -419h-148zM865 275q-69 -151 -170 -225.5t-242 -74.5q-71 0 -126.5 23.5t-97.5 64t-71.5 95t-48 116.5t-27 129t-8.5 132q0 150 32 290t101 273h295q-82 -146 -120 -286t-38 -278q0 -50 9.5 -110.5t30.5 -113t56 -88t86 -35.5q80 0 131 66.5
t87 199.5q-58 137 -58 254q0 140 60 289h238q59 -150 59 -289q0 -115 -57 -254q12 -42 29 -89t43 -86t62 -65t85 -26q37 0 64.5 17.5t47.5 46.5t33.5 66t21.5 75.5t11 75.5t3 66q0 138 -38 278t-120 286h295q69 -134 101 -273.5t32 -289.5q0 -64 -8 -130t-26.5 -128
t-47.5 -117t-71 -96t-98 -65t-127 -24q-145 0 -245.5 75t-167.5 225z" />
    <glyph glyph-name="uni0400" unicode="&#x400;" horiz-adv-x="1366" 
d="M173 0v1480h1086v-203h-778v-413h667v-198h-667v-456h825v-210h-1133zM895 1604h-201l-321 321h281z" />
    <glyph glyph-name="uni0401" unicode="&#x401;" horiz-adv-x="1370" 
d="M173 0v1480h1086v-203h-778v-413h667v-198h-667v-456h825v-210h-1133zM385 1604v222h222v-222h-222zM824 1604v222h223v-222h-223z" />
    <glyph glyph-name="uni0402" unicode="&#x402;" horiz-adv-x="1813" 
d="M787 850q204 136 397 136q287 0 418 -131.5t131 -339.5q0 -235 -138 -381t-347 -146q-70 0 -165 16v186q61 -12 105 -12q105 0 168 79.5t63 225.5q0 123 -74.5 195.5t-224.5 72.5q-161 0 -333 -139v-612h-303v1277h-459v203h1281v-203h-519v-427z" />
    <glyph glyph-name="uni0403" unicode="&#x403;" horiz-adv-x="1161" 
d="M481 0h-308v1480h978v-223h-670v-1257zM471 1604l241 321h281l-321 -321h-201z" />
    <glyph glyph-name="uni0404" unicode="&#x404;" horiz-adv-x="1457" 
d="M1387 288v-227q-229 -98 -527 -98q-364 0 -567 205t-203 572q0 374 204.5 575.5t583.5 201.5q242 0 495 -59v-241q-285 97 -468 97q-206 0 -331 -115.5t-147 -325.5h719v-198h-725q0 -219 143 -359t369 -140q218 0 454 112z" />
    <glyph glyph-name="uni0405" unicode="&#x405;" horiz-adv-x="1366" 
d="M102 13v252q284 -99 523 -99q340 0 340 197q0 128 -129 183l-137 52l-163 62q-261 99 -349 189t-88 256q0 412 604 412q254 0 483 -51v-234q-238 82 -461 82q-181 0 -251 -38t-70 -136q0 -62 34 -97t131 -71l114 -44l170 -63q247 -92 341.5 -190t94.5 -264
q0 -232 -172.5 -340.5t-543.5 -108.5q-139 0 -313 27z" />
    <glyph glyph-name="uni0406" unicode="&#x406;" horiz-adv-x="928" 
d="M100 0v210h210v1060h-210v210h728v-210h-210v-1060h210v-210h-728z" />
    <glyph glyph-name="uni0407" unicode="&#x407;" horiz-adv-x="928" 
d="M133 1604v222h222v-222h-222zM572 1604v222h223v-222h-223zM100 0v210h210v1060h-210v210h728v-210h-210v-1060h210v-210h-728z" />
    <glyph glyph-name="uni0408" unicode="&#x408;" 
d="M0 -252v221q186 -56 355 -56q151 0 208.5 58.5t57.5 212.5v1086h-240v210h548v-1263q0 -269 -134 -391t-429 -122q-174 0 -366 44z" />
    <glyph glyph-name="uni0409" unicode="&#x409;" horiz-adv-x="2240" 
d="M1070 0v1277h-437v-117q0 -672 -67 -854q-68 -156 -180.5 -222.5t-345.5 -83.5v218q153 11 223 113t76 331l7 263l3 273v282h1023v-618h139q227 0 314 -14t164 -62q171 -106 171 -333q0 -249 -195 -370q-133 -83 -539 -83h-356zM1372 190h131q180 0 267.5 62.5
t87.5 188.5q0 115 -86.5 172.5t-265.5 57.5h-134v-481z" />
    <glyph glyph-name="uni040A" unicode="&#x40a;" horiz-adv-x="2176" 
d="M173 0v1480h302v-618h531v618h302v-618h139q356 0 478 -75q171 -107 171 -334q0 -249 -195 -370q-133 -83 -539 -83h-356v671h-531v-671h-302zM1308 191h121q184 0 274.5 62.5t90.5 187.5q0 115 -87 172.5t-265 57.5h-134v-480z" />
    <glyph glyph-name="uni040B" unicode="&#x40b;" horiz-adv-x="1792" 
d="M455 0v1277h-415v203h1153v-203h-430v-442q164 140 403 140q267 0 376.5 -119.5t109.5 -365.5v-490h-308v485q0 141 -54 203.5t-194 62.5q-178 0 -333 -154v-597h-308z" />
    <glyph glyph-name="uni040C" unicode="&#x40c;" horiz-adv-x="1250" 
d="M173 0v1480h296v-629q48 6 82 44.5t148 228.5l57 95q95 159 166 209t203 50q16 0 80 2v-191q-90 0 -123.5 -21.5t-86.5 -107.5l-40 -65l-43 -73l-43 -71q-69 -117 -201 -179q123 -30 194.5 -96t158.5 -237l41 -74l61 -118q51 -105 127 -247h-324q-22 45 -29 58l-61 117
l-82 152q-122 229 -208 339h-77v-666h-296zM491 1604l241 321h281l-321 -321h-201z" />
    <glyph glyph-name="uni040D" unicode="&#x40d;" horiz-adv-x="1472" 
d="M895 1604h-201l-321 321h281zM991 1480h308v-1480h-308v1020l-510 -1020h-308v1480h308v-1020z" />
    <glyph glyph-name="uni040E" unicode="&#x40e;" horiz-adv-x="1274" 
d="M553 414l-495 1066h333l325 -756h7l283 756h261l-447 -1075q-131 -263 -250 -360q-100 -82 -379 -82h-43v210h37q133 0 202.5 37.5t144.5 168.5zM360 1925h210v-24q0 -84 30.5 -125.5t92.5 -41.5t93 42t31 127l-1 22h210q0 -161 -83.5 -241t-249.5 -80q-167 0 -250 80
t-83 241z" />
    <glyph glyph-name="uni040F" unicode="&#x40f;" horiz-adv-x="1472" 
d="M173 0v1480h308v-1270h510v1270h308v-1480h-453v-385h-220v385h-453z" />
    <glyph glyph-name="uni0410" unicode="&#x410;" horiz-adv-x="1479" 
d="M12 0l574 1480h308l572 -1480h-315l-151 395h-612l-151 -395h-225zM464 592h460l-230 590z" />
    <glyph glyph-name="uni0411" unicode="&#x411;" horiz-adv-x="1472" 
d="M173 0v1480h1069v-203h-767v-415h270q221 0 301.5 -14t156.5 -62q169 -106 169 -333q0 -249 -193 -370q-132 -83 -489 -83h-517zM475 190h246q184 0 266.5 62.5t82.5 188.5q0 115 -79 172.5t-257 57.5h-259v-481z" />
    <glyph glyph-name="uni0412" unicode="&#x412;" horiz-adv-x="1479" 
d="M173 0v1480h716q456 0 456 -329q0 -267 -355 -378q416 -100 416 -407q0 -177 -121.5 -271.5t-349.5 -94.5h-762zM463 864h286q130 0 206.5 64.5t76.5 173.5q0 101 -61.5 138t-232.5 37h-275v-413zM463 210h279q194 0 267.5 41.5t73.5 150.5q0 114 -98.5 189t-248.5 75
h-273v-456z" />
    <glyph glyph-name="uni0413" unicode="&#x413;" horiz-adv-x="1161" 
d="M481 0h-308v1480h978v-225h-670v-1255z" />
    <glyph glyph-name="uni0414" unicode="&#x414;" horiz-adv-x="1459" 
d="M15 -385v595h75q139 204 208.5 478t69.5 619v173h884v-1270h180v-595h-220v385h-977v-385h-220zM966 210v1076h-320v-25q0 -315 -68.5 -603t-179.5 -448h568z" />
    <glyph glyph-name="uni0415" unicode="&#x415;" horiz-adv-x="1366" 
d="M173 0v1480h1086v-203h-778v-413h667v-198h-667v-456h825v-210h-1133z" />
    <glyph glyph-name="uni0416" unicode="&#x416;" horiz-adv-x="1851" 
d="M1070 668v-668h-289v668h-69q-60 -48 -111.5 -141.5t-173.5 -377.5l-51 -118q-2 -4 -14 -31h-326q67 114 161 332l40 92q84 194 146.5 258.5t191.5 92.5q-74 37 -115.5 86t-107.5 177l-29 57q-60 117 -112 155.5t-118 38.5v191q167 0 262.5 -58.5t183.5 -232.5l26 -52
l39 -79q63 -126 92 -159t85 -46v627h289v-627q57 17 88.5 53t87.5 152q14 27 40 79l26 52q89 175 184 233t262 58v-191q-67 0 -118 -38t-112 -156l-29 -57q-67 -130 -107.5 -178t-116.5 -85q130 -28 193 -93t146 -258l40 -92q92 -215 161 -332h-326l-14 31l-51 118
q-126 293 -175 382t-110 137h-69z" />
    <glyph glyph-name="uni0417" unicode="&#x417;" horiz-adv-x="1283" 
d="M105 17v221q236 -81 415 -81q164 0 247 67t83 184q0 145 -110 217.5t-329 72.5h-93v191h92q201 0 301.5 60t100.5 181q0 98 -71 147t-233 49q-186 0 -379 -69v200q199 61 446 61q289 0 424 -88.5t135 -264.5q0 -121 -70.5 -209t-211.5 -143q162 -48 243.5 -148.5
t81.5 -254.5q0 -206 -162.5 -326.5t-462.5 -120.5q-234 0 -447 54z" />
    <glyph glyph-name="uni0418" unicode="&#x418;" horiz-adv-x="1472" 
d="M991 1480h308v-1480h-308v1020l-510 -1020h-308v1480h308v-1020z" />
    <glyph glyph-name="uni0419" unicode="&#x419;" horiz-adv-x="1472" 
d="M991 1480h308v-1480h-308v1020l-510 -1020h-308v1480h308v-1020zM410 1925h210v-24q0 -84 30.5 -125.5t92.5 -41.5t93 42t31 127l-1 22h210q0 -161 -83.5 -241t-249.5 -80q-167 0 -250 80t-83 241z" />
    <glyph glyph-name="uni041A" unicode="&#x41a;" horiz-adv-x="1250" 
d="M173 0v1480h296v-629q48 6 82 44.5t148 228.5l57 95q95 159 166 209t203 50q16 0 80 2v-191q-90 0 -123.5 -21.5t-86.5 -107.5l-40 -65l-43 -73l-43 -71q-69 -117 -201 -179q123 -30 194.5 -96t158.5 -237l41 -74l61 -118q51 -105 127 -247h-324q-22 45 -29 58l-61 117
l-82 152q-122 229 -208 339h-77v-666h-296z" />
    <glyph glyph-name="uni041B" unicode="&#x41b;" horiz-adv-x="1437" 
d="M20 0v218q152 11 217 105.5t76 339.5l12 262q4 79 4 273v282h935v-1480h-309v1277h-336v-117q0 -672 -67 -854q-58 -157 -178.5 -224.5t-353.5 -81.5z" />
    <glyph glyph-name="uni041C" unicode="&#x41c;" horiz-adv-x="1706" 
d="M173 0v1480h408l292 -1041l302 1041h358v-1480h-284v1117l-296 -1018h-248l-290 1033v-1132h-242z" />
    <glyph glyph-name="uni041D" unicode="&#x41d;" horiz-adv-x="1479" 
d="M173 0v1480h308v-601h517v601h308v-1480h-308v675h-517v-675h-308z" />
    <glyph glyph-name="uni041E" unicode="&#x41e;" horiz-adv-x="1593" 
d="M786 -37q-328 0 -517 208.5t-189 568.5q0 365 190.5 571t526.5 206q335 0 525.5 -206t190.5 -568q0 -370 -191 -575t-536 -205zM791 167q190 0 292.5 149.5t102.5 427.5q0 269 -102.5 419.5t-286.5 150.5q-185 0 -287.5 -150.5t-102.5 -423.5q0 -269 102 -421t282 -152z
" />
    <glyph glyph-name="uni041F" unicode="&#x41f;" horiz-adv-x="1472" 
d="M173 0v1480h1126v-1480h-308v1277h-510v-1277h-308z" />
    <glyph glyph-name="uni0420" unicode="&#x420;" horiz-adv-x="1366" 
d="M173 0v1480h582q189 0 282 -23.5t158 -93.5q91 -97 91 -276q0 -507 -617 -507h-194v-580h-302zM475 783h126q370 0 370 274q0 122 -73 171t-238 49h-185v-494z" />
    <glyph glyph-name="uni0421" unicode="&#x421;" horiz-adv-x="1479" 
d="M1406 286v-227q-215 -96 -535 -96q-381 0 -586 201.5t-205 575.5q0 382 207 579.5t606 197.5q259 0 500 -57v-241q-273 95 -473 95q-513 0 -513 -570q0 -568 542 -568q235 0 457 110z" />
    <glyph glyph-name="uni0422" unicode="&#x422;" horiz-adv-x="1251" 
d="M472 0v1267h-432v213h1172v-213h-432v-1267h-308z" />
    <glyph glyph-name="uni0423" unicode="&#x423;" horiz-adv-x="1274" 
d="M553 414l-495 1066h333l325 -756h7l283 756h261l-447 -1075q-131 -263 -250 -360q-100 -82 -379 -82h-43v210h37q133 0 202.5 37.5t144.5 168.5z" />
    <glyph glyph-name="uni0424" unicode="&#x424;" horiz-adv-x="1748" 
d="M739 0v202q-339 12 -499 159t-160 379q0 233 160 379.5t499 158.5v202h270v-202q339 -12 499 -158.5t160 -379.5q0 -232 -160 -379t-499 -159v-202h-270zM739 1085q-227 -3 -308 -94.5t-81 -250.5q0 -160 81 -251t308 -93v689zM1009 1085v-689q227 2 308 93t81 251
q0 159 -81 250.5t-308 94.5z" />
    <glyph glyph-name="uni0425" unicode="&#x425;" horiz-adv-x="1366" 
d="M49 0l474 729l-453 751h359l301 -498l326 498h249l-454 -698l470 -782h-358l-321 529l-344 -529h-249z" />
    <glyph glyph-name="uni0426" unicode="&#x426;" horiz-adv-x="1496" 
d="M1295 210h150v-595h-220v385h-1052v1480h308v-1270h506v1270h308v-1270z" />
    <glyph glyph-name="uni0427" unicode="&#x427;" horiz-adv-x="1439" 
d="M958 0v596q-175 -90 -372 -90q-239 0 -350 118t-111 366v490h309v-484q0 -146 48.5 -206t172.5 -60q166 0 303 90v660h308v-1480h-308z" />
    <glyph glyph-name="uni0428" unicode="&#x428;" horiz-adv-x="2058" 
d="M173 0v1480h308v-1270h399v1270h300v-1270h397v1270h308v-1480h-1712z" />
    <glyph glyph-name="uni0429" unicode="&#x429;" horiz-adv-x="2087" 
d="M1817 0h-1644v1480h308v-1270h402v1270h308v-1270h402v1270h308v-1270h135l1 -605h-220v395z" />
    <glyph glyph-name="uni042A" unicode="&#x42a;" horiz-adv-x="1781" 
d="M466 0v1277h-442v203h751v-598h277q228 0 315.5 -14.5t162.5 -61.5q171 -106 171 -343q0 -259 -195 -380q-132 -83 -492 -83h-548zM775 191h269q184 0 266.5 62.5t82.5 197.5q0 125 -83 182.5t-268 57.5h-267v-500z" />
    <glyph glyph-name="uni042B" unicode="&#x42b;" horiz-adv-x="2005" 
d="M1530 0v1480h302v-1480h-302zM173 0v1480h302v-598h179q360 0 482 -76q171 -106 171 -343q0 -259 -195 -380q-133 -83 -503 -83h-436zM475 191h171q184 0 271.5 62.5t87.5 197.5q0 125 -86.5 182.5t-269.5 57.5h-174v-500z" />
    <glyph glyph-name="uni042C" unicode="&#x42c;" horiz-adv-x="1472" 
d="M173 0v1480h308v-598h262q228 0 315.5 -14t162.5 -62q171 -106 171 -343q0 -259 -195 -380q-133 -83 -493 -83h-531zM481 191h254q184 0 266.5 62.5t82.5 197.5q0 125 -83 182.5t-269 57.5h-251v-500z" />
    <glyph glyph-name="uni042D" unicode="&#x42d;" horiz-adv-x="1457" 
d="M70 59v227q226 -110 449 -110q231 0 374 140t143 359h-730v198h724q-22 210 -147 325.5t-336 115.5q-188 0 -463 -95v241q243 57 490 57q384 0 588.5 -201.5t204.5 -575.5q0 -367 -203 -572t-572 -205q-303 0 -522 96z" />
    <glyph glyph-name="uni042E" unicode="&#x42e;" horiz-adv-x="2112" 
d="M173 0v1480h308v-644h219q37 340 201.5 510.5t457.5 170.5q316 0 489.5 -203.5t173.5 -573.5t-173.5 -573.5t-489.5 -203.5q-296 0 -463.5 173.5t-194.5 508.5h-220v-645h-308zM1354 148q168 0 261 157t93 439q0 274 -93 431t-256 157t-256 -157.5t-93 -434.5
q0 -274 92.5 -433t251.5 -159z" />
    <glyph glyph-name="uni042F" unicode="&#x42f;" horiz-adv-x="1472" 
d="M996 609h-175q-111 -124 -335 -548l-33 -61h-391q80 94 165 225l43 67l27 41l66 105q102 156 225 228q-183 40 -274 140t-91 259q0 199 146 322q71 59 156.5 76t326.5 17h447v-1480h-303v609zM996 1289h-135q-176 0 -253.5 -60t-77.5 -180q0 -124 82.5 -186t268.5 -62
h115v488z" />
    <glyph glyph-name="uni0430" unicode="&#x430;" 
d="M1076 169l7 -166q-94 -28 -165 -28q-183 0 -235 143h-13q-107 -143 -276 -143q-146 0 -235.5 88.5t-89.5 232.5q0 374 522 374h79v100q0 171 -172 171q-155 0 -332 -98v204q181 76 380 76q408 0 408 -343v-486q0 -129 82 -129q16 0 40 4zM670 277v223h-70
q-247 0 -247 -178q0 -63 41.5 -104.5t105.5 -41.5q102 0 170 101z" />
    <glyph glyph-name="uni0431" unicode="&#x431;" horiz-adv-x="1265" 
d="M392 875q138 211 368 211q200 0 315.5 -144t115.5 -391q0 -272 -147 -424t-409 -152q-276 0 -408 173.5t-132 545.5q0 455 153.5 670t478.5 215h33q148 0 265 53v-190q-91 -48 -241 -48h-32q-174 0 -260 -119t-100 -400zM392 691l-1 -34q0 -232 69.5 -364.5t182.5 -132.5
t176.5 102.5t63.5 282.5q0 162 -53.5 243.5t-160.5 81.5q-143 0 -277 -179z" />
    <glyph glyph-name="uni0432" unicode="&#x432;" horiz-adv-x="1259" 
d="M150 0v1098h459q264 0 380 -60t116 -190q0 -101 -60 -169.5t-189 -104.5q151 -35 222 -106t71 -182q0 -155 -110 -220.5t-391 -65.5h-498zM427 179h90q211 0 270 25.5t59 110.5q0 82 -76 125.5t-241 43.5h-102v-305zM427 651h102q145 0 211.5 37.5t66.5 112.5
q0 59 -65 88.5t-208 29.5h-107v-268z" />
    <glyph glyph-name="uni0433" unicode="&#x433;" horiz-adv-x="853" 
d="M150 0v1098h678v-210h-351v-888h-327z" />
    <glyph glyph-name="uni0434" unicode="&#x434;" horiz-adv-x="1300" 
d="M10 -345v542h101q107 136 160.5 330.5t53.5 448.5v122h787v-901h160v-542h-220v345h-822v-345h-220zM828 197v713h-241v-12q0 -194 -42 -369t-125 -332h408z" />
    <glyph glyph-name="uni0435" unicode="&#x435;" 
d="M1031 245v-208q-183 -62 -367 -62q-275 0 -432.5 157.5t-157.5 431.5q0 254 137.5 406.5t365.5 152.5q236 0 345 -151.5t109 -481.5h-645q31 -314 329 -314q141 0 316 69zM383 657h357q0 281 -159 281q-168 0 -198 -281z" />
    <glyph glyph-name="uni0436" unicode="&#x436;" horiz-adv-x="1452" 
d="M852 1098v-460q44 0 81 32.5t90 155.5l21 57q51 137 108 176t221 39v-185q-82 -4 -121 -87l-41 -87q-65 -135 -183 -180q90 -27 136.5 -71t107.5 -160l44 -85q9 -17 43 -86q41 -86 88 -157h-286q-14 26 -16 30l-46 94q-133 252 -210 345h-37v-469h-252v469h-37
q-77 -93 -210 -345l-46 -94q-3 -4 -16 -30h-286q46 71 88 157q34 69 43 86l44 85q61 116 107 160t137 71q-118 45 -184 180l-40 87q-39 83 -121 87v185q154 0 215.5 -39t113.5 -176l21 -57q53 -123 89.5 -155.5t81.5 -32.5v460h252z" />
    <glyph glyph-name="uni0437" unicode="&#x437;" horiz-adv-x="1018" 
d="M60 23v203q184 -63 325 -63q137 0 195.5 40t58.5 120q0 86 -78 129t-234 43h-53v170h57q139 0 208.5 35.5t69.5 107.5q0 67 -55.5 101t-185.5 34q-123 0 -289 -53v184q169 49 358 49q240 0 350.5 -68t110.5 -204q0 -83 -51.5 -149t-153.5 -114q120 -37 180 -104.5
t60 -165.5q0 -156 -134 -249.5t-380 -93.5q-159 0 -359 48z" />
    <glyph glyph-name="uni0438" unicode="&#x438;" horiz-adv-x="1259" 
d="M148 0v1098h278v-715l389 715h296v-1098h-278v715l-389 -715h-296z" />
    <glyph glyph-name="uni0439" unicode="&#x439;" horiz-adv-x="1259" 
d="M148 0v1098h278v-715l389 715h296v-1098h-278v715l-389 -715h-296zM288 1604h210v-24q0 -84 30.5 -125.5t92.5 -41.5t93 42t31 127l-1 22h210q0 -161 -83.5 -241t-249.5 -80q-167 0 -250 80t-83 241z" />
    <glyph glyph-name="uni043A" unicode="&#x43a;" horiz-adv-x="1025" 
d="M148 0v1098h267v-466q38 0 60.5 37t99.5 179l29 52q67 124 127 160.5t166 37.5h44v-185h-18q-48 0 -69.5 -19.5t-73.5 -113.5l-28 -51q-78 -128 -196 -158q98 -22 153 -75t118 -181l50 -90q89 -178 122 -225h-303q-19 34 -86 186q-100 225 -166 280h-29v-466h-267z" />
    <glyph glyph-name="uni043B" unicode="&#x43b;" horiz-adv-x="1301" 
d="M30 0v198q137 0 181 163q48 172 48 573v164h892v-1098h-296v901h-319v-18q0 -515 -105 -699t-401 -184z" />
    <glyph glyph-name="uni043C" unicode="&#x43c;" horiz-adv-x="1515" 
d="M150 0v1098h285l332 -759h2l296 759h300v-1098h-272v757h-1l-274 -683h-190l-268 676v-750h-210z" />
    <glyph glyph-name="uni043D" unicode="&#x43d;" horiz-adv-x="1237" 
d="M150 0v1098h296v-424h345v424h296v-1098h-296v489h-345v-489h-296z" />
    <glyph glyph-name="uni043E" unicode="&#x43e;" horiz-adv-x="1251" 
d="M619 -25q-246 0 -395.5 157.5t-149.5 416.5q0 262 150 418t401 156t401.5 -156t150.5 -416q0 -265 -150.5 -420.5t-407.5 -155.5zM623 160q112 0 176 104.5t64 286.5q0 177 -64.5 282t-173.5 105t-173 -105t-64 -284q0 -177 64 -283t171 -106z" />
    <glyph glyph-name="uni043F" unicode="&#x43f;" horiz-adv-x="1237" 
d="M150 0v1098h937v-1098h-296v901h-345v-901h-296z" />
    <glyph glyph-name="uni0440" unicode="&#x440;" horiz-adv-x="1251" 
d="M444 -395h-296v1493h296v-182q157 207 345 207q172 0 277.5 -149.5t105.5 -394.5q0 -284 -136.5 -444t-379.5 -160q-81 0 -212 25v-395zM444 176q112 -19 167 -19q246 0 246 381q0 353 -179 353q-120 0 -234 -175v-540z" />
    <glyph glyph-name="uni0441" unicode="&#x441;" 
d="M1056 229v-205q-212 -49 -375 -49q-290 0 -448.5 150.5t-158.5 424.5q0 573 629 573q174 0 344 -43v-214q-209 59 -323 59q-335 0 -335 -374q0 -178 96.5 -279t266.5 -101q120 0 304 58z" />
    <glyph glyph-name="uni0442" unicode="&#x442;" horiz-adv-x="1003" 
d="M353 0v901h-333v197h963v-197h-333v-901h-297z" />
    <glyph glyph-name="uni0443" unicode="&#x443;" 
d="M439 40l-439 1058h291l298 -712l307 712h243l-466 -1079q-126 -289 -211 -351.5t-351 -62.5h-32v198h28q116 0 177 22.5t97 90.5l39 83z" />
    <glyph glyph-name="uni0444" unicode="&#x444;" horiz-adv-x="1792" 
d="M760 -395v481q-93 -98 -231 -98q-203 0 -329 157.5t-126 400.5q0 244 128.5 404.5t332.5 160.5q152 0 225 -99v567h271v-567q72 99 224 99q202 0 332.5 -160.5t130.5 -404.5q0 -243 -128 -400.5t-329 -157.5q-138 0 -230 98v-481h-271zM760 859q-71 48 -134 48
q-111 0 -182 -104.5t-71 -257.5q0 -159 70 -256.5t180 -97.5q58 0 137 52v616zM1031 859v-616q79 -52 137 -52q115 0 182.5 97.5t67.5 256.5q0 153 -71 257.5t-183 104.5q-62 0 -133 -48z" />
    <glyph glyph-name="uni0445" unicode="&#x445;" 
d="M48 0l358 551l-342 547h337l217 -348l207 348h240l-325 -540l350 -558h-337l-227 363l-233 -363h-245z" />
    <glyph glyph-name="uni0446" unicode="&#x446;" horiz-adv-x="1259" 
d="M148 0v1098h297v-901h333v901h296v-901h160v-542h-220v345h-866z" />
    <glyph glyph-name="uni0447" unicode="&#x447;" horiz-adv-x="1189" 
d="M745 0v413q-142 -49 -279 -49q-210 0 -293 83.5t-83 279.5v371h296v-308q0 -144 32.5 -193t137.5 -49q97 0 189 42v508h296v-1098h-296z" />
    <glyph glyph-name="uni0448" unicode="&#x448;" horiz-adv-x="1707" 
d="M150 0v1098h270v-901h299v901h269v-901h299v901h270v-1098h-1407z" />
    <glyph glyph-name="uni0449" unicode="&#x449;" horiz-adv-x="1728" 
d="M148 0v1098h270v-901h279v901h270v-901h279v901h270v-901h160v-542h-220v345h-1308z" />
    <glyph glyph-name="uni044A" unicode="&#x44a;" horiz-adv-x="1493" 
d="M322 0v901h-323v197h619v-384h287q281 0 397.5 -80t116.5 -270q0 -195 -126.5 -279.5t-423.5 -84.5h-547zM618 185h252q136 0 194.5 41.5t58.5 135.5q0 88 -57.5 127.5t-192.5 39.5h-255v-344z" />
    <glyph glyph-name="uni044B" unicode="&#x44b;" horiz-adv-x="1749" 
d="M148 0v1098h290v-384h186q261 0 378 -82t117 -268q0 -192 -126.5 -278t-403.5 -86h-441zM438 185h157q117 0 175.5 41.5t58.5 135.5q0 88 -57.5 127.5t-172.5 39.5h-161v-344zM1311 0v1098h290v-1098h-290z" />
    <glyph glyph-name="uni044C" unicode="&#x44c;" horiz-adv-x="1259" 
d="M148 0v1098h296v-384h247q260 0 377 -80t117 -270q0 -195 -126.5 -279.5t-423.5 -84.5h-487zM444 185h192q136 0 194.5 41.5t58.5 135.5q0 88 -57.5 127.5t-192.5 39.5h-195v-344z" />
    <glyph glyph-name="uni044D" unicode="&#x44d;" horiz-adv-x="1131" 
d="M53 32v196q146 -68 352 -68q166 0 252 78.5t101 236.5h-446v185h446q-4 143 -82.5 210.5t-245.5 67.5q-189 0 -352 -63v202q168 46 374 46q304 0 454.5 -145t150.5 -418q0 -293 -144 -439t-447 -146q-240 0 -413 57z" />
    <glyph glyph-name="uni044E" unicode="&#x44e;" horiz-adv-x="1749" 
d="M1127 -25q-246 0 -391 157q-117 128 -139 324h-165v-456h-284v1098h284v-456h165q21 198 140 325q145 156 396 156t396.5 -156t145.5 -416q0 -265 -145.5 -420.5t-402.5 -155.5zM1131 160q112 0 171 104.5t59 286.5q0 177 -59.5 282t-168.5 105t-168 -105t-59 -284
q0 -177 59 -283t166 -106z" />
    <glyph glyph-name="uni044F" unicode="&#x44f;" horiz-adv-x="1195" 
d="M763 426h-156q-60 -67 -119 -182l-56 -110l-50 -97q-6 -12 -18 -37h-311q71 106 127 212l25 49q107 202 202 240q-117 38 -175.5 110.5t-58.5 178.5q0 187 167 267q86 41 356 41h351v-1098h-284v426zM763 925h-105q-101 0 -151 -41.5t-50 -124.5q0 -84 51.5 -125.5
t154.5 -41.5h100v333z" />
    <glyph glyph-name="uni0450" unicode="&#x450;" 
d="M1031 245v-208q-183 -62 -367 -62q-275 0 -432.5 157.5t-157.5 431.5q0 254 137.5 406.5t365.5 152.5q236 0 345 -151.5t109 -481.5h-645q31 -314 329 -314q141 0 316 69zM383 657h357q0 281 -159 281q-168 0 -198 -281zM777 1283h-201l-320 321h280z" />
    <glyph glyph-name="uni0451" unicode="&#x451;" 
d="M1031 245v-208q-183 -62 -367 -62q-275 0 -432.5 157.5t-157.5 431.5q0 254 137.5 406.5t365.5 152.5q236 0 345 -151.5t109 -481.5h-645q31 -314 329 -314q141 0 316 69zM383 657h357q0 281 -159 281q-168 0 -198 -281zM265 1283v222h222v-222h-222zM684 1283v222h223
v-222h-223z" />
    <glyph glyph-name="uni0452" unicode="&#x452;" horiz-adv-x="1251" 
d="M180 0v1156h-160v173h160v250h296v-250h344v-173h-344v-450q134 232 324 232q147 0 231.5 -93t84.5 -254v-652q0 -359 -364 -359q-80 0 -135 21v171q31 -7 85 -7q66 0 92 39.5t26 140.5v573q0 93 -31 140t-83 47q-109 0 -230 -199v-506h-296z" />
    <glyph glyph-name="uni0453" unicode="&#x453;" horiz-adv-x="853" 
d="M150 0v1098h678v-210h-381v-888h-297zM311 1283l241 321h281l-321 -321h-201z" />
    <glyph glyph-name="uni0454" unicode="&#x454;" horiz-adv-x="1131" 
d="M1048 228v-196q-163 -57 -389 -57q-298 0 -441.5 146t-143.5 439q0 273 150.5 418t444.5 145q186 0 354 -46v-202q-163 63 -332 63q-158 0 -235 -69.5t-83 -208.5h446v-185h-446q15 -158 100.5 -236.5t252.5 -78.5q176 0 322 68z" />
    <glyph glyph-name="uni0455" unicode="&#x455;" 
d="M123 36v216q230 -92 387 -92q221 0 221 120q0 73 -175 144l-100 40q-205 83 -266.5 144t-61.5 183q0 332 463 332q158 0 358 -39v-203q-220 57 -322 57q-207 0 -207 -112q0 -68 161 -129l86 -33q220 -83 294.5 -153.5t74.5 -194.5q0 -156 -137.5 -248.5t-369.5 -92.5
q-204 0 -406 61z" />
    <glyph glyph-name="uni0456" unicode="&#x456;" horiz-adv-x="569" 
d="M137 0v1098h296v-1098h-296zM137 1283v247h296v-247h-296z" />
    <glyph glyph-name="uni0457" unicode="&#x457;" horiz-adv-x="576" 
d="M140 0v1098h296v-1098h-296zM-33 1283v222h222v-222h-222zM386 1283v222h223v-222h-223z" />
    <glyph glyph-name="uni0458" unicode="&#x458;" horiz-adv-x="569" 
d="M-74 -399v184q70 -19 111 -19q78 0 92 50t14 184v1098h296v-1079q0 -438 -360 -438q-77 0 -153 20zM133 1283v247h296v-247h-296z" />
    <glyph glyph-name="uni0459" unicode="&#x459;" horiz-adv-x="1984" 
d="M896 0v901h-312v-18q0 -514 -104.5 -698.5t-395.5 -184.5v198q137 0 182 163q47 172 47 573v164h872v-384h217q275 0 391.5 -82t116.5 -268q0 -192 -125 -278t-419 -86h-470zM1185 185h182q136 0 194.5 41.5t58.5 135.5q0 88 -57.5 127.5t-192.5 39.5h-185v-344z" />
    <glyph glyph-name="uni045A" unicode="&#x45a;" horiz-adv-x="1856" 
d="M808 0v509h-370v-509h-290v1098h290v-404h370v404h290v-404h169q278 0 396.5 -82.5t118.5 -257.5q0 -181 -126.5 -267.5t-423.5 -86.5h-424zM1098 185h140q137 0 195.5 41.5t58.5 125.5q0 78 -57.5 117.5t-192.5 39.5h-144v-324z" />
    <glyph glyph-name="uni045B" unicode="&#x45b;" horiz-adv-x="1251" 
d="M476 706q144 232 324 232q147 0 231.5 -93t84.5 -254v-591h-296v518q0 93 -26 140t-88 47q-99 0 -230 -199v-506h-296v1156h-160v173h160v250h296v-250h344v-173h-344v-450z" />
    <glyph glyph-name="uni045C" unicode="&#x45c;" horiz-adv-x="1025" 
d="M148 0v1098h267v-466q38 0 60.5 37t99.5 179l29 52q67 124 127 160.5t166 37.5h44v-185h-18q-48 0 -69.5 -19.5t-73.5 -113.5l-28 -51q-78 -128 -196 -158q98 -22 153 -75t118 -181l50 -90q89 -178 122 -225h-303q-19 34 -86 186q-100 225 -166 280h-29v-466h-267z
M361 1283l241 321h281l-321 -321h-201z" />
    <glyph glyph-name="uni045D" unicode="&#x45d;" horiz-adv-x="1259" 
d="M148 0v1098h278v-715l389 715h296v-1098h-278v715l-389 -715h-296zM797 1283h-201l-321 321h281z" />
    <glyph glyph-name="uni045E" unicode="&#x45e;" 
d="M439 40l-439 1058h291l298 -712l307 712h243l-466 -1079q-126 -289 -211 -351.5t-351 -62.5h-32v198h28q116 0 177 22.5t97 90.5l39 83zM278 1604h210v-24q0 -84 30.5 -125.5t92.5 -41.5t93 42t31 127l-1 22h210q0 -161 -83.5 -241t-249.5 -80q-167 0 -250 80t-83 241z
" />
    <glyph glyph-name="uni045F" unicode="&#x45f;" horiz-adv-x="1237" 
d="M150 0v1098h297v-901h343v901h297v-1098h-359v-345h-220v345h-358z" />
    <glyph glyph-name="uni0490" unicode="&#x490;" horiz-adv-x="997" 
d="M173 0v1480h574v297h220v-500h-486v-1277h-308z" />
    <glyph glyph-name="uni0491" unicode="&#x491;" horiz-adv-x="915" 
d="M150 0v1098h510v247h220v-457h-433v-888h-297z" />
    <glyph glyph-name="Wgrave" unicode="&#x1e80;" horiz-adv-x="1933" 
d="M405 0l-380 1480h291l281 -1083l280 1083h257l255 -1086l301 1086h219l-411 -1480h-295l-240 1015l-264 -1015h-294zM1135 1604h-191l-321 321h271z" />
    <glyph glyph-name="wgrave" unicode="&#x1e81;" horiz-adv-x="1593" 
d="M328 0l-266 1098h267l185 -769l193 769h256l170 -773l200 773h199l-286 -1098h-283l-164 753l-187 -753h-284zM963 1283h-191l-321 321h271z" />
    <glyph glyph-name="Wacute" unicode="&#x1e82;" horiz-adv-x="1933" 
d="M405 0l-380 1480h291l281 -1083l280 1083h257l255 -1086l301 1086h219l-411 -1480h-295l-240 1015l-264 -1015h-294zM877 1604l241 321h271l-321 -321h-191z" />
    <glyph glyph-name="wacute" unicode="&#x1e83;" horiz-adv-x="1593" 
d="M328 0l-266 1098h267l185 -769l193 769h256l170 -773l200 773h199l-286 -1098h-283l-164 753l-187 -753h-284zM707 1283l241 321h271l-321 -321h-191z" />
    <glyph glyph-name="Wdieresis" unicode="&#x1e84;" horiz-adv-x="1933" 
d="M405 0l-380 1480h291l281 -1083l280 1083h257l255 -1086l301 1086h219l-411 -1480h-295l-240 1015l-264 -1015h-294zM675 1604v222h222v-222h-222zM1114 1604v222h223v-222h-223z" />
    <glyph glyph-name="wdieresis" unicode="&#x1e85;" horiz-adv-x="1593" 
d="M328 0l-266 1098h267l185 -769l193 769h256l170 -773l200 773h199l-286 -1098h-283l-164 753l-187 -753h-284zM495 1283v222h222v-222h-222zM954 1283v222h223v-222h-223z" />
    <glyph glyph-name="Ygrave" unicode="&#x1ef2;" horiz-adv-x="1366" 
d="M519 0v620l-491 860h341l354 -625l372 625h244l-512 -858v-622h-308zM884 1604h-191l-321 321h271z" />
    <glyph glyph-name="ygrave" unicode="&#x1ef3;" 
d="M419 0l-394 1098h312l254 -710l302 710h220l-640 -1493h-302zM782 1283h-191l-321 321h271z" />
    <glyph glyph-name="endash" unicode="&#x2013;" 
d="M88 537v170h962v-170h-962z" />
    <glyph glyph-name="emdash" unicode="&#x2014;" horiz-adv-x="2048" 
d="M80 537v170h1888v-170h-1888z" />
    <glyph glyph-name="uni2015" unicode="&#x2015;" horiz-adv-x="2048" 
d="M0 537v195h2048v-195h-2048z" />
    <glyph glyph-name="underscoredbl" unicode="&#x2017;" horiz-adv-x="1131" 
d="M0 -145v145h1131v-145h-1131zM0 -466v145h1131v-145h-1131z" />
    <glyph glyph-name="quoteleft" unicode="&#x2018;" horiz-adv-x="569" 
d="M321 1258h124v-320h-321v248q0 393 321 393v-111q-124 0 -124 -178v-32z" />
    <glyph glyph-name="quoteright" unicode="&#x2019;" horiz-adv-x="569" 
d="M247 1258h-123v321h321v-248q0 -393 -321 -393v111q123 0 123 178v31z" />
    <glyph glyph-name="quotesinglbase" unicode="&#x201a;" horiz-adv-x="569" 
d="M247 0h-123v321h321v-249q0 -393 -321 -393v111q123 0 123 178v32z" />
    <glyph glyph-name="quotereversed" unicode="&#x201b;" horiz-adv-x="569" 
d="M322 1227q0 -178 123 -178v-111q-321 0 -321 393v248h321v-321h-123v-31z" />
    <glyph glyph-name="quotedblleft" unicode="&#x201c;" horiz-adv-x="1024" 
d="M315 1258h111v-296h-296v224q0 367 296 393v-111q-111 -31 -111 -178v-32zM784 1258h111v-296h-296v224q0 367 296 393v-111q-111 -31 -111 -178v-32z" />
    <glyph glyph-name="quotedblright" unicode="&#x201d;" horiz-adv-x="1024" 
d="M241 1283h-111v296h296v-223q0 -368 -296 -394v111q111 32 111 179v31zM710 1283h-111v296h296v-223q0 -368 -296 -394v111q111 32 111 179v31z" />
    <glyph glyph-name="quotedblbase" unicode="&#x201e;" horiz-adv-x="1024" 
d="M241 0h-111v296h296v-223q0 -367 -296 -394v111q111 32 111 179v31zM710 0h-111v296h296v-223q0 -367 -296 -394v111q111 32 111 179v31z" />
    <glyph glyph-name="dagger" unicode="&#x2020;" 
d="M421 -296l25 1098l-352 -25v222l352 -24l-25 505h296l-25 -505l352 24v-222l-352 25l25 -1098h-296z" />
    <glyph glyph-name="daggerdbl" unicode="&#x2021;" 
d="M421 -296l25 506l-352 -25v222l352 -25v420l-352 -25v222l352 -24l-25 505h296l-25 -505l352 24v-222l-352 25v-420l352 25v-222l-352 25l25 -506h-296z" />
    <glyph glyph-name="bullet" unicode="&#x2022;" horiz-adv-x="717" 
d="M353 503q-124 0 -215.5 93t-91.5 220q0 129 92 221t221 92t220.5 -92t91.5 -223q0 -130 -92.5 -220.5t-225.5 -90.5z" />
    <glyph glyph-name="ellipsis" unicode="&#x2026;" horiz-adv-x="2048" 
d="M181 0v321h321v-321h-321zM864 0v321h320v-321h-320zM1546 0v321h321v-321h-321z" />
    <glyph glyph-name="perthousand" unicode="&#x2030;" horiz-adv-x="2048" 
d="M332 740q-143 0 -226 99.5t-83 271.5t83.5 270.5t229.5 98.5q147 0 229.5 -99t82.5 -276q0 -170 -84 -267.5t-232 -97.5zM334 888q117 0 117 223q0 221 -115 221q-116 0 -116 -222t114 -222zM986 0q-144 0 -227 99.5t-83 270.5q0 173 83.5 271.5t229.5 98.5t229.5 -98.5
t83.5 -270.5q0 -175 -84 -273t-232 -98zM987 148q117 0 117 223q0 221 -115 221t-115 -222t113 -222zM1710 0q-144 0 -227 99.5t-83 270.5q0 173 83.5 271.5t229.5 98.5t229.5 -98.5t83.5 -270.5q0 -175 -83.5 -273t-232.5 -98zM1711 148q118 0 118 223q0 221 -116 221
q-115 0 -115 -221q0 -223 113 -223zM33 -37l1108 1554h151l-1108 -1554h-151z" />
    <glyph glyph-name="minute" unicode="&#x2032;" horiz-adv-x="491" 
d="M50 987l118 592h272l-217 -592h-173z" />
    <glyph glyph-name="second" unicode="&#x2033;" horiz-adv-x="981" 
d="M73 987l119 592h272l-218 -592h-173zM517 987l120 592h271l-218 -592h-173z" />
    <glyph glyph-name="guilsinglleft" unicode="&#x2039;" horiz-adv-x="682" 
d="M617 888l-262 -339l262 -339l-139 -105l-416 444l416 444z" />
    <glyph glyph-name="guilsinglright" unicode="&#x203a;" horiz-adv-x="682" 
d="M65 210l262 339l-262 339l139 105l416 -444l-416 -444z" />
    <glyph glyph-name="exclamdbl" unicode="&#x203c;" horiz-adv-x="1237" 
d="M180 0v247h296v-247h-296zM229 419l-49 765v296h296v-296l-49 -765h-198zM771 0v247h296v-247h-296zM821 419l-50 765v296h296v-296l-49 -765h-197z" />
    <glyph glyph-name="uni203E" unicode="&#x203e;" horiz-adv-x="682" 
d="M0 1604v175h682v-175h-682z" />
    <glyph glyph-name="fraction" unicode="&#x2044;" horiz-adv-x="342" 
d="M-452 -37l1088 1554h160l-1088 -1554h-160z" />
    <glyph glyph-name="nsuperior" unicode="&#x207f;" horiz-adv-x="811" 
d="M110 925v658h178v-124q86 139 224 139q190 0 190 -208v-465h-177v421q0 113 -75 113q-84 0 -162 -120v-414h-178z" />
    <glyph glyph-name="franc" unicode="&#x20a3;" 
d="M60 0v1480h851v-203h-601v-413h500v-207q71 231 238 231q24 0 51 -6v-258q-68 18 -106 18q-102 0 -183 -179v-463h-250v660h-250v-660h-250z" />
    <glyph glyph-name="lira" unicode="&#x20a4;" 
d="M111 0v234q110 26 153.5 88.5t43.5 193.5v24h-197v148h197v198h-197v148h197v18q0 466 449 466q120 0 267 -24v-203q-120 41 -231 41q-189 0 -189 -214v-84h216v-148h-216v-198h216v-148h-216q-44 -190 -216 -306h651v-234h-928z" />
    <glyph glyph-name="peseta" unicode="&#x20a7;" horiz-adv-x="2240" 
d="M61 0v1480h376q158 0 235 -24.5t133 -92.5q82 -98 82 -276q0 -236 -135 -371.5t-371 -135.5h-48v-580h-272zM333 783h39q107 0 170 74.5t63 201.5q0 118 -53.5 168t-178.5 50h-40v-494zM1408 3q-79 -28 -150 -28q-154 0 -221 72t-67 237v427h-83v170h83v141l266 36v-177
h156v-170h-156v-394q0 -154 108 -154q27 0 64 11v-171zM1496 22v194q177 -70 291 -70q125 0 125 77q0 50 -105 95l-62 27q-135 58 -190.5 121t-55.5 159q0 276 368 276q122 0 258 -34v-193q-134 56 -231 56q-129 0 -129 -75q0 -53 94 -89l57 -22q155 -58 214.5 -119
t59.5 -159q0 -131 -101 -211t-267 -80q-173 0 -326 47z" />
    <glyph glyph-name="Euro" unicode="&#x20ac;" 
d="M0 481l63 173h66q-3 46 -3 88q0 57 5 109h-131l63 173h98q139 494 623 494q153 0 279 -38v-214q-119 55 -260 55q-253 0 -346 -297h518l-62 -173h-488q-2 -33 -2 -81q0 -68 3 -116h415l-63 -173h-322q52 -179 134.5 -250t241.5 -71q109 0 231 53v-204q-122 -46 -300 -46
q-479 0 -608 518h-155z" />
    <glyph glyph-name="uni2105" unicode="&#x2105;" horiz-adv-x="1813" 
d="M74 0l1481 1480h185l-1481 -1480h-185zM729 841q-133 -56 -292 -56q-249 0 -249 219q0 186 142.5 331t325.5 145q82 0 174 -39l-30 -155q-98 56 -164 56q-77 0 -136.5 -88t-59.5 -202q0 -108 110 -108q85 0 212 65zM1202 0q-261 0 -261 222q0 194 145.5 334t345.5 140
q264 0 264 -222q0 -194 -145.5 -334t-348.5 -140zM1273 141q76 0 127.5 85t51.5 211q0 118 -88 118q-75 0 -127 -85t-52 -208q0 -121 88 -121z" />
    <glyph glyph-name="uni2113" unicode="&#x2113;" horiz-adv-x="1001" 
d="M509 793q102 98 153 218t51 257q0 24 -2 51t-10 49t-24.5 36.5t-44.5 14.5q-31 0 -52 -23.5t-34.5 -62.5t-20.5 -90t-10.5 -106t-4 -110t-0.5 -102zM509 557v-63q0 -54 1.5 -109t10.5 -99.5t28 -72.5t55 -28q57 0 101.5 85t71.5 268l198 -37q-54 -265 -165.5 -395.5
t-277.5 -130.5q-104 0 -167 34t-97 91.5t-44.5 132.5t-10.5 158v39q-24 -5 -44 -9t-40 -7t-42 -6t-50 -6l-37 172q24 4 52 9t56.5 11t55.5 14t49 17v250q0 370 109.5 555.5t338.5 185.5q76 0 131.5 -24t91.5 -66.5t53 -100.5t17 -126q0 -117 -36 -228t-97 -208
t-141.5 -175.5t-170.5 -130.5z" />
    <glyph glyph-name="uni2116" unicode="&#x2116;" horiz-adv-x="2283" 
d="M170 0v1480h247l604 -970v970h247v-1480h-247l-604 971v-971h-247zM1444 0v173h617v-173h-617zM1748 309q-162 0 -263.5 111.5t-101.5 289.5q0 179 102 289.5t268 110.5q165 0 267.5 -110.5t102.5 -288.5q0 -182 -102.5 -292t-272.5 -110zM1750 494q126 0 126 216
q0 215 -123 215q-124 0 -124 -215q0 -216 121 -216z" />
    <glyph glyph-name="trademark" unicode="&#x2122;" horiz-adv-x="2048" 
d="M465 740v617h-268v123h734v-123h-268v-617h-198zM1061 740v740h254l156 -472l159 472h220v-740h-179v518l-160 -468h-144l-158 481v-531h-148z" />
    <glyph glyph-name="Ohm" unicode="&#x2126;" horiz-adv-x="1573" 
d="M81 0v204h354q-172 136 -258 298t-86 350q0 295 193.5 480t502.5 185q308 0 501.5 -185t193.5 -480q0 -187 -86 -349t-258 -299h354v-204h-599v204q141 112 211.5 268.5t70.5 357.5q0 225 -104 354.5t-284 129.5q-181 0 -285 -130t-104 -355q0 -201 70.5 -357t211.5 -268
v-204h-599z" />
    <glyph glyph-name="estimated" unicode="&#x212e;" horiz-adv-x="1462" 
d="M1136 155h94q-85 -75 -170 -112q-154 -68 -329 -68q-139 0 -264.5 43t-214.5 120q-152 131 -152 303t152 304q89 77 214.5 119.5t264.5 42.5t264.5 -42.5t215.5 -119.5q151 -132 151 -304v-13h-1015q-15 0 -15 -13v-228q0 -32 25 -58q52 -53 161 -89.5t215 -36.5
q235 0 403 152zM347 454h768q17 0 17 13v229q0 31 -26 57q-54 53 -162 90t-213 37t-213.5 -37t-160.5 -90q-25 -26 -25 -57v-229q0 -13 15 -13z" />
    <glyph glyph-name="oneeighth" unicode="&#x215b;" horiz-adv-x="1708" 
d="M242 615v713l-222 -55v133l444 111v-902h-222zM187 -37l1088 1554h160l-1088 -1554h-160zM1168 467q-128 81 -128 207q0 105 86.5 169t226.5 64q135 0 213.5 -55t78.5 -150q0 -110 -138 -214q181 -102 181 -246q0 -121 -98.5 -194t-260.5 -73q-154 0 -247 65.5t-93 173.5
q0 155 179 253zM1395 548q62 60 62 122q0 110 -120 110q-109 0 -109 -84q0 -62 167 -148zM1273 399q-78 -70 -78 -148q0 -64 47.5 -108t117.5 -44q58 0 98 32t40 77q0 68 -143 147z" />
    <glyph glyph-name="threeeighths" unicode="&#x215c;" horiz-adv-x="1708" 
d="M50 614v150q135 -52 235 -52q162 0 162 128q0 168 -255 168h-60v127h46q242 0 242 146q0 109 -138 109q-107 0 -220 -50v134q146 43 267 43q320 0 320 -215q0 -160 -205 -222q232 -53 232 -242q0 -119 -96.5 -186t-269.5 -67q-127 0 -260 29zM270 -37l998 1554h160
l-998 -1554h-160zM1138 467q-128 81 -128 207q0 105 86.5 169t226.5 64q135 0 213.5 -55t78.5 -150q0 -110 -138 -214q181 -102 181 -246q0 -121 -98.5 -194t-260.5 -73q-154 0 -247 65.5t-93 173.5q0 155 179 253zM1365 548q62 60 62 122q0 110 -120 110q-109 0 -109 -84
q0 -62 167 -148zM1243 399q-78 -70 -78 -148q0 -64 47.5 -108t117.5 -44q58 0 98 32t40 77q0 68 -143 147z" />
    <glyph glyph-name="fiveeighths" unicode="&#x215d;" horiz-adv-x="1708" 
d="M70 601v146q132 -50 205 -50q149 0 149 150q0 183 -272 183q-35 0 -66 -6v456h555v-168h-420v-159h30q183 0 296 -82.5t113 -216.5q0 -128 -98 -206t-258 -78q-95 0 -234 31zM280 -37l918 1554h160l-918 -1554h-160zM1118 467q-128 81 -128 207q0 105 86.5 169t226.5 64
q135 0 213.5 -55t78.5 -150q0 -110 -138 -214q181 -102 181 -246q0 -121 -98.5 -194t-260.5 -73q-154 0 -247 65.5t-93 173.5q0 155 179 253zM1345 548q62 60 62 122q0 110 -120 110q-109 0 -109 -84q0 -62 167 -148zM1223 399q-78 -70 -78 -148q0 -64 47.5 -108t117.5 -44
q58 0 98 32t40 77q0 68 -143 147z" />
    <glyph glyph-name="seveneighths" unicode="&#x215e;" horiz-adv-x="1708" 
d="M83 592q22 181 251 481l181 238h-465v169h635v-169q-343 -390 -369 -719h-233zM100 -37l1088 1554h160l-1088 -1554h-160zM1118 467q-128 81 -128 207q0 105 86.5 169t226.5 64q135 0 213.5 -55t78.5 -150q0 -110 -138 -214q181 -102 181 -246q0 -121 -98.5 -194
t-260.5 -73q-154 0 -247 65.5t-93 173.5q0 155 179 253zM1345 548q62 60 62 122q0 110 -120 110q-109 0 -109 -84q0 -62 167 -148zM1223 399q-78 -70 -78 -148q0 -64 47.5 -108t117.5 -44q58 0 98 32t40 77q0 68 -143 147z" />
    <glyph glyph-name="arrowleft" unicode="&#x2190;" horiz-adv-x="2048" 
d="M1848 506h-1173l173 -345l-748 432l748 431l-173 -345h1173v-173z" />
    <glyph glyph-name="arrowup" unicode="&#x2191;" horiz-adv-x="1024" 
d="M426 -395v1424l-345 -173l432 748l431 -748l-345 173v-1424h-173z" />
    <glyph glyph-name="arrowright" unicode="&#x2192;" horiz-adv-x="2048" 
d="M200 680h1173l-173 345l748 -432l-748 -431l173 345h-1173v173z" />
    <glyph glyph-name="arrowdown" unicode="&#x2193;" horiz-adv-x="1024" 
d="M599 1604v-1424l345 173l-432 -748l-431 748l345 -173v1424h173z" />
    <glyph glyph-name="arrowboth" unicode="&#x2194;" horiz-adv-x="2048" 
d="M100 593l748 431l-173 -345h698l-173 345l748 -431l-748 -432l173 345h-698l173 -345z" />
    <glyph glyph-name="arrowupdn" unicode="&#x2195;" horiz-adv-x="1024" 
d="M513 1604l431 -748l-345 173v-849l345 173l-431 -748l-432 748l345 -173v849l-345 -173z" />
    <glyph glyph-name="arrowupdnbse" unicode="&#x21a8;" horiz-adv-x="1024" 
d="M513 1604l431 -748l-345 173v-550l345 173l-431 -748l-432 748l345 -173v550l-345 -173zM81 -246h863v-173h-863v173z" />
    <glyph glyph-name="partialdiff" unicode="&#x2202;" horiz-adv-x="1012" 
d="M66 1275q166 329 438 329q219 0 348.5 -180.5t129.5 -485.5q0 -430 -218 -731q-167 -232 -417 -232q-145 0 -229.5 93t-84.5 252q0 269 175 498t380 229q98 0 207 -77v33q0 175 -108.5 285.5t-279.5 110.5q-162 0 -341 -124zM783 770q-63 72 -140 72q-110 0 -204.5 -158
t-94.5 -343q0 -133 95 -133q114 0 212 160t132 402z" />
    <glyph glyph-name="uni2206" unicode="&#x2206;" horiz-adv-x="1253" 
d="M31 0v247l588 1233h262l590 -1233v-247h-1440zM701 1156l-433 -909h868z" />
    <glyph glyph-name="product" unicode="&#x220f;" horiz-adv-x="1686" 
d="M288 -395v1672h-148v203h1406v-203h-148v-1672h-308v1672h-494v-1672h-308z" />
    <glyph glyph-name="summation" unicode="&#x2211;" horiz-adv-x="1460" 
d="M60 -296v256l523 658l-498 659v203h1270v-203h-899l455 -602l-568 -715h1049v-256h-1332z" />
    <glyph glyph-name="minus" unicode="&#x2212;" horiz-adv-x="1196" 
d="M104 506v173h987v-173h-987z" />
    <glyph glyph-name="uni2215" unicode="&#x2215;" horiz-adv-x="342" 
d="M-232 -296l625 1875h181l-625 -1875h-181z" />
    <glyph glyph-name="uni2219" unicode="&#x2219;" horiz-adv-x="569" 
d="M75 681q0 85 62 146.5t148 61.5q87 0 148 -61.5t61 -148.5t-61 -148.5t-148 -61.5q-88 0 -149 61.5t-61 150.5z" />
    <glyph glyph-name="radical" unicode="&#x221a;" horiz-adv-x="1124" 
d="M95 374l-95 160l361 206l366 -639l238 1737h159l-338 -2035h-165l-388 651z" />
    <glyph glyph-name="infinity" unicode="&#x221e;" horiz-adv-x="1460" 
d="M609 576q-66 105 -129 159.5t-121 54.5q-133 0 -133 -243q0 -33 8.5 -69t26.5 -66.5t45.5 -50t64.5 -19.5q39 0 73.5 24.5t64 60.5t54.5 76.5t46 72.5zM741 751q48 71 89.5 124.5t82 89t84 53.5t95.5 18q76 0 134 -33.5t97 -90.5t58.5 -131.5t19.5 -156.5
q0 -92 -20.5 -178t-61.5 -152t-103 -106t-145 -40q-47 0 -88 20.5t-82.5 57.5t-85 89.5t-95.5 117.5q-48 -71 -89.5 -124.5t-82.5 -89t-84.5 -53.5t-95.5 -18q-77 0 -134.5 33.5t-96.5 90.5t-58.5 131.5t-19.5 156.5q0 92 20.5 178t61.5 152t103 106t145 40q47 0 88.5 -20.5
t82.5 -57.5t85 -90t96 -117zM851 608q66 -105 129 -159.5t121 -54.5q133 0 133 243q0 33 -8.5 69t-26.5 66.5t-45.5 50t-64.5 19.5q-39 0 -73.5 -24.5t-64 -60.5t-54.5 -76.5t-46 -72.5z" />
    <glyph glyph-name="orthogonal" unicode="&#x221f;" horiz-adv-x="2005" 
d="M362 0v1284h200v-1084h1084v-200h-1284z" />
    <glyph glyph-name="intersection" unicode="&#x2229;" horiz-adv-x="1479" 
d="M1331 0h-195v887q0 165 -116 281.5t-281 116.5t-281 -116t-116 -282v-887h-195v888q0 246 173.5 419t418.5 173q246 0 419 -173t173 -419v-888z" />
    <glyph glyph-name="integral" unicode="&#x222b;" horiz-adv-x="561" 
d="M192 913q-1 29 -3 69.5t-4 88t-4 98.5t-4 101t-3 96.5t-1 84.5q0 49 4 103t14.5 107t28 101t44 85t63.5 58.5t86 21.5q27 0 52 -8.5t43.5 -24.5t29.5 -39.5t11 -52.5q0 -20 -4 -38t-13 -32.5t-22.5 -23t-32.5 -8.5q-10 0 -20 2.5t-18.5 10t-14 20.5t-5.5 34q0 8 3 24.5
t7 24.5q-9 5 -18 5q-24 0 -39.5 -32t-24.5 -79t-12.5 -100.5t-3.5 -96.5q0 -10 1.5 -40.5t4 -73.5t5.5 -96t6.5 -108t7 -109t6 -99.5t4.5 -80t3 -49.5l6 -139q2 -47 4 -115.5t4 -143.5t3.5 -148.5t1.5 -130.5q0 -49 -4 -103t-14.5 -107t-28 -101t-44 -85t-63.5 -58.5
t-86 -21.5q-27 0 -52 8.5t-43.5 24.5t-29.5 39.5t-11 52.5q0 19 4 37.5t13 33t22.5 23t32.5 8.5q10 0 20 -2.5t18.5 -10t14 -20.5t5.5 -34q0 -8 -3 -24.5t-7 -24.5q9 -5 18 -5q24 0 39.5 32t24.5 79t12.5 100.5t3.5 96.5q0 14 -2 61.5t-5.5 113t-7 140t-7 143t-6.5 122
t-4 76.5z" />
    <glyph glyph-name="approxequal" unicode="&#x2248;" horiz-adv-x="1124" 
d="M182 691h-113q0 347 238 347q93 0 255 -86l74 -40q148 -78 204 -78q102 0 102 144v9h113q0 -347 -238 -347q-93 0 -255 86l-74 40q-147 78 -203 78q-103 0 -103 -144v-9zM182 197h-113q0 348 238 348q93 0 255 -87l74 -39q148 -78 204 -78q102 0 102 143v10h113
q0 -348 -238 -348q-93 0 -255 87l-74 39q-147 78 -203 78q-103 0 -103 -143v-10z" />
    <glyph glyph-name="notequal" unicode="&#x2260;" horiz-adv-x="1124" 
d="M384 287h-290v194h353l75 222h-428v195h493l78 237h156l-79 -237h288v-195h-352l-74 -222h426v-194h-492l-79 -238h-156z" />
    <glyph glyph-name="equivalence" unicode="&#x2261;" horiz-adv-x="1195" 
d="M104 112v185h987v-185h-987zM104 501v185h987v-185h-987zM104 890v185h987v-185h-987z" />
    <glyph glyph-name="lessequal" unicode="&#x2264;" horiz-adv-x="1124" 
d="M70 0v195h984v-195h-984zM1054 296l-985 492l985 492v-218l-547 -273v-2l547 -273v-218z" />
    <glyph glyph-name="greaterequal" unicode="&#x2265;" horiz-adv-x="1124" 
d="M70 0v195h984v-195h-984zM70 514l547 273v2l-547 273v218l985 -492l-985 -492v218z" />
    <glyph glyph-name="house" unicode="&#x2302;" horiz-adv-x="1237" 
d="M1100 0h-962v703l481 481l481 -481v-703zM915 185v441l-296 296l-296 -296v-441h592z" />
    <glyph glyph-name="revlogicalnot" unicode="&#x2310;" horiz-adv-x="1196" 
d="M257 693v-417h-172v612h1023v-195h-851z" />
    <glyph glyph-name="integraltp" unicode="&#x2320;" horiz-adv-x="1237" 
d="M886 1514q-16 5 -26 5q-67 0 -106 -93q-37 -89 -37 -620v-1238h-197v981q0 624 85 829q99 238 292 238q76 0 114.5 -30t38.5 -89q0 -50 -23 -74.5t-68 -24.5q-41 0 -61 20t-20 60q0 14 8 36z" />
    <glyph glyph-name="integralbt" unicode="&#x2321;" horiz-adv-x="1237" 
d="M352 -330q16 -5 26 -5q67 0 105 93q37 90 37 620v1238h197v-981q0 -624 -84 -828q-99 -239 -292 -239q-77 0 -115.5 30t-38.5 90q0 49 23 73.5t69 24.5q40 0 60.5 -19.5t20.5 -59.5q0 -14 -8 -37z" />
    <glyph glyph-name="uni2500" unicode="&#x2500;" horiz-adv-x="1451" 
d="M-20 538v148h1491v-148h-1491z" />
    <glyph glyph-name="uni2502" unicode="&#x2502;" horiz-adv-x="1451" 
d="M651 -462v2387h148v-2387h-148z" />
    <glyph glyph-name="uni250C" unicode="&#x250c;" horiz-adv-x="1451" 
d="M651 -462v1148h820v-148h-672v-1000h-148z" />
    <glyph glyph-name="uni2510" unicode="&#x2510;" horiz-adv-x="1451" 
d="M651 -462v1000h-671v148h819v-1148h-148z" />
    <glyph glyph-name="uni2514" unicode="&#x2514;" horiz-adv-x="1451" 
d="M651 538v1387h148v-1239h672v-148h-820z" />
    <glyph glyph-name="uni2518" unicode="&#x2518;" horiz-adv-x="1451" 
d="M-20 538v148h671v1239h148v-1387h-819z" />
    <glyph glyph-name="uni251C" unicode="&#x251c;" horiz-adv-x="1451" 
d="M651 -462v2387h148v-1239h672v-148h-672v-1000h-148z" />
    <glyph glyph-name="uni2524" unicode="&#x2524;" horiz-adv-x="1451" 
d="M651 -462v1000h-671v148h671v1239h148v-2387h-148z" />
    <glyph glyph-name="uni252C" unicode="&#x252c;" horiz-adv-x="1451" 
d="M651 -462v1000h-671v148h1491v-148h-672v-1000h-148z" />
    <glyph glyph-name="uni2534" unicode="&#x2534;" horiz-adv-x="1451" 
d="M-20 538v148h671v1239h148v-1239h672v-148h-1491z" />
    <glyph glyph-name="uni253C" unicode="&#x253c;" horiz-adv-x="1451" 
d="M651 -452v990h-671v148h671v1239h148v-1239h671v-148h-671v-990h-148z" />
    <glyph glyph-name="uni2550" unicode="&#x2550;" horiz-adv-x="1451" 
d="M-20 528h1491v-148h-1491v148zM-20 696v148h1491v-148h-1491z" />
    <glyph glyph-name="uni2551" unicode="&#x2551;" horiz-adv-x="1451" 
d="M641 -452h-148v2377h148v-2377zM809 1925h148v-2377h-148v2377z" />
    <glyph glyph-name="uni2552" unicode="&#x2552;" horiz-adv-x="1451" 
d="M651 -452v1296h820v-148h-672v-168h672v-148h-672v-832h-148z" />
    <glyph glyph-name="uni2553" unicode="&#x2553;" horiz-adv-x="1451" 
d="M641 -452h-148v1128h978v-148h-514v-980h-148v980h-168v-980z" />
    <glyph glyph-name="uni2554" unicode="&#x2554;" horiz-adv-x="1451" 
d="M641 -462h-148v1306h978v-148h-830v-1158zM809 -462v990h662v-148h-514v-842h-148z" />
    <glyph glyph-name="uni2555" unicode="&#x2555;" horiz-adv-x="1451" 
d="M651 -442v822h-671v148h671v168h-671v148h819v-1286h-148z" />
    <glyph glyph-name="uni2556" unicode="&#x2556;" horiz-adv-x="1451" 
d="M641 -462h-148v1000h-513v148h977v-1148h-148v1000h-168v-1000z" />
    <glyph glyph-name="uni2557" unicode="&#x2557;" horiz-adv-x="1451" 
d="M641 -462h-148v842h-513v148h661v-990zM809 -462v1158h-829v148h977v-1306h-148z" />
    <glyph glyph-name="uni2558" unicode="&#x2558;" horiz-adv-x="1451" 
d="M651 380v1545h148v-1081h672v-148h-672v-168h672v-148h-820z" />
    <glyph glyph-name="uni2559" unicode="&#x2559;" horiz-adv-x="1451" 
d="M493 538v1387h148v-1239h168v1239h148v-1239h514v-148h-978z" />
    <glyph glyph-name="uni255A" unicode="&#x255a;" horiz-adv-x="1451" 
d="M493 380v1545h148v-1397h830v-148h-978zM1471 696h-662v1229h148v-1081h514v-148z" />
    <glyph glyph-name="uni255B" unicode="&#x255b;" horiz-adv-x="1451" 
d="M-20 528h671v168h-671v148h671v1081h148v-1545h-819v148z" />
    <glyph glyph-name="uni255C" unicode="&#x255c;" horiz-adv-x="1451" 
d="M0 538v148h493v1239h148v-1239h168v1239h148v-1387h-957z" />
    <glyph glyph-name="uni255D" unicode="&#x255d;" horiz-adv-x="1451" 
d="M-20 528h829v1088h148v-1236h-977v148zM-20 696v148h513v772h148v-920h-661z" />
    <glyph glyph-name="uni255E" unicode="&#x255e;" horiz-adv-x="1451" 
d="M651 -462v2078h148v-772h672v-148h-672v-168h672v-148h-672v-842h-148z" />
    <glyph glyph-name="uni255F" unicode="&#x255f;" horiz-adv-x="1451" 
d="M493 -462v2387h148v-2387h-148zM809 -462v2387h148v-1239h514v-148h-514v-1000h-148z" />
    <glyph glyph-name="uni2560" unicode="&#x2560;" horiz-adv-x="1451" 
d="M493 -462v2387h148v-2387h-148zM809 -462v1000h662v-148h-514v-852h-148zM809 686v1239h148v-1091h514v-148h-662z" />
    <glyph glyph-name="uni2561" unicode="&#x2561;" horiz-adv-x="1451" 
d="M651 -442v832h-671v148h671v148h-671v148h671v782h148v-2058h-148z" />
    <glyph glyph-name="uni2562" unicode="&#x2562;" horiz-adv-x="1451" 
d="M493 -462v1000h-513v148h513v1239h148v-2387h-148zM809 -462v2387h148v-2387h-148z" />
    <glyph glyph-name="uni2563" unicode="&#x2563;" horiz-adv-x="1451" 
d="M493 -462v852h-513v148h661v-1000h-148zM809 -462v2387h148v-2387h-148zM-20 686v148h513v1091h148v-1239h-661z" />
    <glyph glyph-name="uni2564" unicode="&#x2564;" horiz-adv-x="1451" 
d="M-20 528h1491v-148h-672v-842h-148v842h-671v148zM-20 696v148h1491v-148h-1491z" />
    <glyph glyph-name="uni2565" unicode="&#x2565;" horiz-adv-x="1451" 
d="M-20 538v148h1491v-148h-514v-1000h-148v1000h-168v-1000h-148v1000h-513z" />
    <glyph glyph-name="uni2566" unicode="&#x2566;" horiz-adv-x="1451" 
d="M-20 528h661v-990h-148v842h-513v148zM-20 696v148h1491v-148h-1491zM1471 528v-148h-534v-842h-148v990h682z" />
    <glyph glyph-name="uni2567" unicode="&#x2567;" horiz-adv-x="1451" 
d="M-20 528h1491v-148h-1491v148zM-20 696v148h671v1171h148v-1171h672v-148h-1491z" />
    <glyph glyph-name="uni2568" unicode="&#x2568;" horiz-adv-x="1451" 
d="M-20 538v148h513v1329h148v-1329h168v1329h148v-1329h514v-148h-1491z" />
    <glyph glyph-name="uni2569" unicode="&#x2569;" horiz-adv-x="1451" 
d="M-20 528h1491v-148h-1491v148zM-20 696v148h513v1171h148v-1319h-661zM809 696v1319h148v-1171h514v-148h-662z" />
    <glyph glyph-name="uni256A" unicode="&#x256a;" horiz-adv-x="1451" 
d="M-20 528h671v168h-671v148h671v981h148v-981h672v-148h-672v-168h672v-148h-672v-842h-148v842h-671v148z" />
    <glyph glyph-name="uni256B" unicode="&#x256b;" horiz-adv-x="1451" 
d="M-20 538v148h513v1239h148v-1239h168v1239h148v-1239h514v-148h-514v-1000h-148v1000h-168v-1000h-148v1000h-513z" />
    <glyph glyph-name="uni256C" unicode="&#x256c;" horiz-adv-x="1451" 
d="M-20 538h661v-1000h-148v852h-513v148zM-20 686v148h513v1091h148v-1239h-661zM809 686v1239h148v-1091h514v-148h-662zM1471 538v-148h-514v-852h-148v1000h662z" />
    <glyph glyph-name="upblock" unicode="&#x2580;" horiz-adv-x="1451" 
d="M1471 592h-1491v1333h1491v-1333z" />
    <glyph glyph-name="dnblock" unicode="&#x2584;" horiz-adv-x="1451" 
d="M1471 -462h-1491v1054h1491v-1054z" />
    <glyph glyph-name="block" unicode="&#x2588;" horiz-adv-x="1451" 
d="M-20 -462v2387h1491v-2387h-1491z" />
    <glyph glyph-name="lfblock" unicode="&#x258c;" horiz-adv-x="1451" 
d="M-20 -462v2387h746v-2387h-746z" />
    <glyph glyph-name="rtblock" unicode="&#x2590;" horiz-adv-x="1451" 
d="M725 -462v2387h746v-2387h-746z" />
    <glyph glyph-name="ltshade" unicode="&#x2591;" horiz-adv-x="1235" 
d="M0 1411v205h207v-205h-207zM206 1001v205h207v-205h-207zM0 592v205h207v-205h-207zM206 182v205h207v-205h-207zM0 -227v204h207v-204h-207zM412 1411v205h204v-205h-204zM618 1001v205h204v-205h-204zM412 592v205h204v-205h-204zM618 182v205h204v-205h-204zM412 -227
v204h204v-204h-204zM821 1411v205h207v-205h-207zM1028 1001v205h207v-205h-207zM821 592v205h207v-205h-207zM1028 182v205h207v-205h-207zM821 -227v204h207v-204h-207z" />
    <glyph glyph-name="shade" unicode="&#x2592;" horiz-adv-x="1451" 
d="M0 1209v202h241v-202h-241zM0 798v203h241v-203h-241zM0 388v203h241v-203h-241zM0 -22v203h241v-203h-241zM0 -432v203h241v-203h-241zM243 1413v203h241v-203h-241zM243 1004v202h241v-202h-241zM243 593v203h241v-203h-241zM243 183v203h241v-203h-241zM243 -227v203
h241v-203h-241zM486 1209v202h241v-202h-241zM486 798v203h241v-203h-241zM486 388v203h241v-203h-241zM486 -22v203h241v-203h-241zM486 -432v203h241v-203h-241zM729 1413v203h241v-203h-241zM729 1004v202h241v-202h-241zM729 593v203h241v-203h-241zM729 183v203h241
v-203h-241zM729 -227v203h241v-203h-241zM972 1209v202h241v-202h-241zM972 798v203h241v-203h-241zM972 388v203h241v-203h-241zM972 -22v203h241v-203h-241zM972 -432v203h241v-203h-241zM1215 1413v203h236v-203h-236zM1215 1004v202h236v-202h-236zM1215 593v203h236
v-203h-236zM1215 183v203h236v-203h-236zM1215 -227v203h236v-203h-236z" />
    <glyph glyph-name="dkshade" unicode="&#x2593;" horiz-adv-x="1451" 
d="M0 -432v2048h1451v-205h-242v-204h242v-205h-242v-205h242v-205h-242v-205h242v-204h-242v-205h242v-205h-242v-205h-241v205h-242v-205h-242v205h-243v-205h-241zM241 1207h243v204h-243v-204zM241 797h243v205h-243v-205zM241 387h243v205h-243v-205zM241 -22h243v204
h-243v-204zM726 1207h242v204h-242v-204zM726 797h242v205h-242v-205zM726 387h242v205h-242v-205zM726 -22h242v204h-242v-204z" />
    <glyph glyph-name="filledbox" unicode="&#x25a0;" horiz-adv-x="1237" 
d="M100 0v1037h1037v-1037h-1037z" />
    <glyph glyph-name="uni25A1" unicode="&#x25a1;" horiz-adv-x="1237" 
d="M100 0v1037h1037v-1037h-1037zM199 99h840v840h-840v-840z" />
    <glyph glyph-name="uni25AA" unicode="&#x25aa;" horiz-adv-x="726" 
d="M100 405v526h526v-526h-526z" />
    <glyph glyph-name="uni25AB" unicode="&#x25ab;" horiz-adv-x="726" 
d="M100 415v526h526v-526h-526zM199 514h329v328h-329v-328z" />
    <glyph glyph-name="filledrect" unicode="&#x25ac;" horiz-adv-x="2048" 
d="M0 512v512h2048v-512h-2048z" />
    <glyph glyph-name="triagup" unicode="&#x25b2;" horiz-adv-x="2027" 
d="M250 0l764 1527l763 -1527h-1527z" />
    <glyph glyph-name="triagrt" unicode="&#x25ba;" horiz-adv-x="2027" 
d="M250 1527l1527 -764l-1527 -763v1527z" />
    <glyph glyph-name="triagdn" unicode="&#x25bc;" horiz-adv-x="2027" 
d="M1777 1527l-764 -1527l-763 1527h1527z" />
    <glyph glyph-name="triaglf" unicode="&#x25c4;" horiz-adv-x="2027" 
d="M1777 0l-1527 764l1527 763v-1527z" />
    <glyph glyph-name="lozenge" unicode="&#x25ca;" horiz-adv-x="1012" 
d="M979 764l-474 -474l-473 474l473 473zM812 764l-307 306l-306 -306l306 -307z" />
    <glyph glyph-name="circle" unicode="&#x25cb;" horiz-adv-x="1237" 
d="M611 222q-178 0 -307.5 131.5t-129.5 312.5q0 184 130 314t314 130q185 0 314.5 -130.5t129.5 -316.5q0 -184 -131.5 -312.5t-319.5 -128.5zM613 321q146 0 248.5 100t102.5 242q0 146 -101 247.5t-245 101.5q-143 0 -244 -101.5t-101 -244.5q0 -141 100.5 -243
t239.5 -102z" />
    <glyph glyph-name="H18533" unicode="&#x25cf;" horiz-adv-x="1237" 
d="M611 222q-178 0 -307.5 131.5t-129.5 312.5q0 184 130 314t314 130q185 0 314.5 -130.5t129.5 -316.5q0 -184 -131.5 -312.5t-319.5 -128.5z" />
    <glyph glyph-name="invbullet" unicode="&#x25d8;" horiz-adv-x="1237" 
d="M0 -462v2387h1237v-2387h-1237zM612 222q188 0 319.5 128.5t131.5 312.5q0 186 -129.5 316.5t-314.5 130.5q-184 0 -314 -130t-130 -314q0 -181 129 -312.5t308 -131.5z" />
    <glyph glyph-name="invcircle" unicode="&#x25d9;" horiz-adv-x="1237" 
d="M0 -462v2387h1237v-2387h-1237zM612 222q188 0 319.5 128.5t131.5 312.5q0 186 -129.5 316.5t-314.5 130.5q-184 0 -314 -130t-130 -314q0 -181 129 -312.5t308 -131.5zM614 321q146 0 248.5 100t102.5 242q0 146 -101 247.5t-245 101.5q-143 0 -244 -101.5t-101 -244.5
q0 -141 100.5 -243t239.5 -102z" />
    <glyph glyph-name="openbullet" unicode="&#x25e6;" horiz-adv-x="726" 
d="M361 470q82 0 140.5 57t58.5 137q0 84 -57.5 141.5t-139.5 57.5t-139 -57.5t-57 -139.5q0 -80 57 -138t137 -58zM358 369q-119 0 -205.5 88t-86.5 209q0 123 87 210t210 87q124 0 210.5 -87t86.5 -212q0 -123 -88 -209t-214 -86z" />
    <glyph glyph-name="smileface" unicode="&#x263a;" horiz-adv-x="2091" 
d="M1036 -37q-315 0 -541.5 229t-226.5 548q0 322 227.5 549.5t549.5 227.5t549.5 -227t227.5 -548q0 -327 -228.5 -553t-557.5 -226zM1037 111q267 0 452 183t185 447q0 260 -184 444t-445 184t-445 -184t-184 -445q0 -258 183 -443.5t438 -185.5zM564 697h111
q73 -302 370 -302t370 302h111q-31 -212 -161 -337.5t-320 -125.5t-320 125.5t-161 337.5zM797 864q-50 0 -86 36t-36 87t36 87t87 36t87.5 -36t36.5 -87q0 -52 -36.5 -87.5t-88.5 -35.5zM1290 864q-50 0 -86 36t-36 87t36.5 87t87.5 36t87 -36t36 -87q0 -52 -36 -87.5
t-89 -35.5z" />
    <glyph glyph-name="invsmileface" unicode="&#x263b;" horiz-adv-x="2155" 
d="M1069 -37q-315 0 -541.5 229t-226.5 548q0 322 227.5 549.5t549.5 227.5t549.5 -227t227.5 -548q0 -327 -228.5 -553t-557.5 -226zM597 697q31 -212 161 -337.5t320 -125.5t320 125.5t161 337.5h-111q-73 -302 -370 -302t-370 302h-111zM830 864q52 0 88.5 35.5
t36.5 87.5q0 51 -36.5 87t-87.5 36t-87 -36t-36 -87t36 -87t86 -36zM1323 864q53 0 89 35.5t36 87.5q0 51 -36 87t-87 36t-87.5 -36t-36.5 -87t36 -87t86 -36z" />
    <glyph glyph-name="sun" unicode="&#x263c;" horiz-adv-x="1877" 
d="M864 -25v252q-123 21 -236 98l-177 -177l-105 105l177 176q-74 105 -98 237h-252v148h252q24 132 98 237l-177 176l105 105l177 -177q113 77 236 98v252h148v-252q123 -21 236 -98l177 177l104 -105l-176 -176q74 -105 98 -237h252v-148h-252q-24 -132 -98 -237l176 -176
l-104 -105l-177 177q-113 -77 -236 -98v-252h-148zM933 370q158 0 266.5 107.5t108.5 263.5q0 153 -108.5 261t-261.5 108q-154 0 -262 -108t-108 -262q0 -152 107.5 -261t257.5 -109z" />
    <glyph glyph-name="female" unicode="&#x2640;" horiz-adv-x="1536" 
d="M694 -395v247h-450v148h450v276q-262 37 -427 221.5t-165 440.5q0 276 195 471t471 195t471 -195t195 -471q0 -256 -165 -440.5t-427 -221.5v-276h450v-148h-450v-247h-148zM762 420q220 0 372 150.5t152 368.5q0 214 -151.5 365.5t-366.5 151.5t-366.5 -151.5
t-151.5 -366.5q0 -212 151 -365t361 -153z" />
    <glyph glyph-name="male" unicode="&#x2642;" horiz-adv-x="1536" 
d="M1036 1250l219 380l-363 -97l-38 143l606 162l163 -607l-143 -38l-97 362l-219 -379q182 -153 236 -358q72 -267 -66.5 -508.5t-405.5 -312.5q-266 -72 -504 67.5t-310 407.5q-71 267 67.5 503.5t406.5 308.5q219 59 448 -34zM257 512q57 -212 241.5 -320t395.5 -51
q207 55 313.5 241t51.5 393q-56 207 -241.5 314.5t-393.5 51.5q-205 -55 -313.5 -240t-53.5 -389z" />
    <glyph glyph-name="spade" unicode="&#x2660;" horiz-adv-x="1088" 
d="M420 0l91 356q-104 -74 -248 -74q-93 0 -153 68.5t-60 199.5q0 110 36 184.5t144 189.5l113 121q115 123 200 289q85 -166 201 -289l113 -121q108 -115 144 -189.5t36 -185.5q0 -130 -60 -198.5t-154 -68.5q-143 0 -247 74l91 -356h-247z" />
    <glyph glyph-name="club" unicode="&#x2663;" horiz-adv-x="1344" 
d="M537 0l89 514q-113 -273 -311 -273q-113 0 -189 80t-76 197q0 131 81 210t214 79q50 0 108 -17q-52 102 -52 191q0 125 78 209.5t193 84.5q114 0 191.5 -84.5t77.5 -209.5q0 -89 -51 -191q57 17 107 17q134 0 215 -79t81 -210q0 -117 -76 -197t-188 -80q-199 0 -313 273
l90 -514h-269z" />
    <glyph glyph-name="heart" unicode="&#x2665;" horiz-adv-x="1216" 
d="M607 -30q-52 87 -71 112l-90 127l-66 95l-55 71l-67 84q-184 233 -184 423q0 145 74.5 238.5t189.5 93.5q215 0 269 -332q54 332 270 332q115 0 189.5 -93.5t74.5 -238.5q0 -190 -184 -423l-66 -84l-56 -71l-66 -95l-90 -127q-19 -25 -72 -112z" />
    <glyph glyph-name="diamond" unicode="&#x2666;" horiz-adv-x="1045" 
d="M523 -34q-195 409 -483 687q288 276 483 686q197 -409 482 -686q-285 -278 -482 -687z" />
    <glyph glyph-name="musicalnote" unicode="&#x266a;" horiz-adv-x="1024" 
d="M458 301v1179h99v-26q0 -131 131 -231l70 -53q217 -165 217 -305q0 -104 -107 -239l-69 52q62 84 62 145t-88 139l-74 67q-22 19 -74 56q-29 19 -68 64v-723q0 -463 -341 -463q-73 0 -120 38t-47 98q0 90 87 157.5t204 67.5q60 0 118 -23z" />
    <glyph glyph-name="musicalnotedbl" unicode="&#x266b;" horiz-adv-x="1534" 
d="M604 1015v-826q0 -229 -84.5 -347.5t-247.5 -118.5q-172 0 -172 140q0 92 86 158.5t204 66.5q64 0 115 -24v1127l816 326v-1009q0 -255 -94 -354q-98 -105 -237 -105q-170 0 -170 135q0 91 86 156t209 65q51 0 107 -22v879z" />
    <glyph glyph-name="gopher" unicode="&#xf800;" horiz-adv-x="2048" 
d="M685 908q41 0 84 16t77 45q38 34 57 79.5t19 101.5q0 57 -20.5 104.5t-62.5 78.5q-38 29 -81 37.5t-76 8.5q-47 0 -89.5 -18t-76.5 -54t-53 -82t-19 -92q0 -12 1.5 -28.5t6.5 -35.5t14.5 -40t24.5 -40q29 -38 76 -58q52 -23 118 -23zM585 1215q33 0 52.5 -21t19.5 -46
q0 -29 -21 -48.5t-51 -19.5q-35 0 -55.5 18.5t-20.5 45.5q0 28 19.5 49.5t56.5 21.5zM567 1169q0 -10 6 -15.5t14 -5.5t15 6.5t7 14.5q0 5 -3.5 12t-15.5 7q-6 0 -14.5 -5t-8.5 -14zM1363 930q48 0 91 18t75 50t49 73t17 86q0 50 -21.5 92.5t-62.5 74.5q-32 26 -71 40.5
t-81 14.5q-61 0 -100 -20.5t-62 -46.5q-29 -29 -47 -72t-18 -92q0 -73 52 -139q11 -14 28 -28.5t39.5 -25.5t50.5 -18t61 -7zM1612 594q0 9 -1.5 17.5t-7.5 15t-17.5 10.5t-31.5 4q-28 0 -63.5 -17.5t-66.5 -43t-52 -55.5t-21 -54q0 -14 5.5 -24.5t14 -18t17.5 -11.5t16 -4
q20 0 27.5 7.5t12 18.5t9.5 23.5t20 23.5q35 26 61 40t43.5 23.5t26 19t8.5 25.5zM1034 943q37 0 55 13t18 33q0 23 -16.5 35.5t-56.5 12.5t-60 -11t-20 -38q0 -7 2.5 -15t10.5 -14.5t24 -11t43 -4.5zM1464 1215q33 0 52 -21t19 -44q0 -29 -21 -49t-50 -20q-36 0 -55.5 18.5
t-19.5 45.5t18.5 48.5t56.5 21.5zM1447 1170q0 -10 5.5 -16t13.5 -6t14.5 7t6.5 15q0 5 -3 12t-16 7q-6 0 -13.5 -5t-7.5 -14zM649 425q20 0 33.5 14t13.5 39q0 26 -14 39.5t-38 24.5t-55.5 24.5t-65.5 40.5q-4 3 -9.5 10t-13 14.5t-17 13.5t-20.5 6q-23 0 -42 -17t-19 -49
q0 -24 17.5 -44t41 -34.5t47.5 -22.5t37 -8q17 0 27.5 -8t20 -17.5t22 -17.5t34.5 -8zM1030 1604q159 0 279 -33t202 -113q48 21 78 41.5t52 37t42 26.5t49 10q32 0 47.5 -15.5t15.5 -40.5q0 -26 -7.5 -53.5t-27 -55t-52 -54t-83.5 -51.5q26 -53 40 -112t21 -123.5t8 -134
t1 -144.5q0 -163 -7.5 -285.5t-27.5 -211t-55 -147t-89 -94.5q12 -21 23 -44.5t20 -47.5t14.5 -48t5.5 -46q0 -32 -12.5 -47.5t-46.5 -15.5q-49 0 -87 26.5t-53 79.5q-2 4 -4.5 14t-6 23l-7 26t-5.5 23q-47 -8 -100.5 -11.5t-116.5 -3.5q-52 0 -85 -2.5t-61.5 -5.5t-60 -5.5
t-81.5 -2.5q-21 0 -40.5 1t-38.5 3q-12 -28 -28.5 -58t-36.5 -55.5t-42 -42t-46 -16.5q-35 0 -55 19t-20 57t13 74t22 74q-93 47 -146 124.5t-79.5 171t-33 195t-6.5 195.5q0 76 4 151.5t14.5 146t27.5 136t44 122.5q-27 27 -54 56t-48.5 58t-35.5 59t-14 59q0 35 16.5 57.5
t55.5 22.5q23 0 39 -13.5t35.5 -32.5t46.5 -39t73 -32q82 77 207.5 112.5t303.5 35.5zM1130 810q23 0 34 10.5t11 26.5q0 26 -14 46t-40 44q-4 -3 -14.5 -6t-23.5 -6t-28 -5t-28 -2q-11 0 -23.5 2t-24.5 5t-21.5 6.5t-13.5 7.5q-9 -7 -19 -17t-18.5 -22t-14 -25.5
t-5.5 -27.5q0 -20 14 -29.5t33 -9.5q13 0 24 4t22.5 8.5t22.5 8.5t24 4q12 0 25.5 -3.5t27 -8t26.5 -8t24 -3.5zM1147 782q-14 -3 -40 0.5t-61 18.5q0 -26 0.5 -51.5t4 -45.5t10.5 -33t21 -13h38q10 0 15.5 11t8 29t3 40t0.5 44zM1023 806q-20 -12 -45 -18t-54 -8
q0 -26 1 -48t4.5 -38.5t9.5 -25.5t17 -9l47 1q7 0 11 14.5t6 36.5t2.5 47.5t0.5 47.5z" />
    <glyph glyph-name="fi" unicode="&#xfb01;" horiz-adv-x="1262" 
d="M166 0v913h-114v185h114v76q0 207 98.5 318.5t280.5 111.5q112 0 228 -31v-190q-114 33 -173 33q-138 0 -138 -250v-68h652v-1098h-296v913h-356v-913h-296zM868 1283v247h246v-247h-246z" />
    <glyph glyph-name="fl" unicode="&#xfb02;" horiz-adv-x="1294" 
d="M1274 182v-182q-67 -25 -143 -25q-313 0 -313 360v1052q-86 34 -155 34q-201 0 -201 -230v-93h214v-185h-214v-913h-296v913h-114v185h114v69q0 437 402 437q79 0 241 -25h305v-1229q2 -104 21 -139q21 -38 87 -38q27 0 52 9z" />
    <glyph glyph-name="zerodot" 
d="M564 -37q-217 0 -350.5 214t-133.5 564q0 352 134 564t356 212q220 0 354.5 -211.5t134.5 -560.5q0 -359 -134 -570.5t-361 -211.5zM568 148q176 0 176 604q0 580 -174 580q-175 0 -175 -591q0 -593 173 -593zM470 665v201h201v-201h-201z" />
    <glyph glyph-name="zero_empty" 
d="M570 -37q-223 0 -356.5 214t-133.5 564q0 352 134 564t356 212q221 0 355.5 -211.5t134.5 -564.5q0 -355 -134 -566.5t-356 -211.5zM570 148q200 0 200 593q0 591 -200 591t-200 -591q0 -593 200 -593z" />
  </font>
</defs>
</svg>
